<ttFont>
<head>
    <!-- Most of this table will be recalculated by the compiler -->
    <tableVersion value="1.0"/>
    <fontRevision value="4.0"/>
    <checkSumAdjustment value="0x4a0c7a7f"/>
    <magicNumber value="0x5f0f3cf5"/>
    <flags value="00001000 00011011"/>
    <unitsPerEm value="2048"/>
    <created value="Sat Dec  7 15:02:45 2013"/>
    <modified value="Tue Aug 18 21:34:49 2020"/>
    <xMin value="-837"/>
    <yMin value="-538"/>
    <xMax value="3179"/>
    <yMax value="1937"/>
    <macStyle value="00000000 00000000"/>
    <lowestRecPPEM value="6"/>
    <fontDirectionHint value="1"/>
    <indexToLocFormat value="0"/>
    <glyphDataFormat value="0"/>
  </head>
    <TTGlyph name=".notdef" xMin="284" yMin="0" xMax="1308" yMax="1280">
      <contour>
        <pt x="284" y="0" on="1"/>
        <pt x="284" y="1280" on="1"/>
        <pt x="1308" y="1280" on="1"/>
        <pt x="1308" y="0" on="1"/>
      </contour>
      <contour>
        <pt x="316" y="32" on="1"/>
        <pt x="1276" y="32" on="1"/>
        <pt x="1276" y="1248" on="1"/>
        <pt x="316" y="1248" on="1"/>
      </contour>
    </TTGlyph>
    <TTGlyph name="A" xMin="-40" yMin="0" xMax="1138" yMax="1302">
      <contour>
        <pt x="1138" y="0" on="1"/>
        <pt x="939" y="0" on="1"/>
        <pt x="939" y="97" on="0"/>
        <pt x="862" y="421" on="1"/>
        <pt x="314" y="421" on="1"/>
        <pt x="270" y="326" on="0"/>
        <pt x="237" y="249" on="1"/>
        <pt x="159" y="64" on="0"/>
        <pt x="152" y="0" on="1"/>
        <pt x="-40" y="0" on="1"/>
        <pt x="-35" y="29" on="0"/>
        <pt x="275" y="640" on="1"/>
        <pt x="581" y="1246" on="0"/>
        <pt x="587" y="1302" on="1"/>
        <pt x="807" y="1302" on="1"/>
        <pt x="807" y="1212" on="0"/>
        <pt x="1138" y="86" on="0"/>
      </contour>
      <contour>
        <pt x="832" y="552" on="1"/>
        <pt x="674" y="1130" on="0"/>
        <pt x="674" y="1176" on="1"/>
        <pt x="665" y="1176" on="1"/>
        <pt x="662" y="1145" on="0"/>
        <pt x="367" y="552" on="1"/>
      </contour>
    </TTGlyph>
    <TTGlyph name="B" xMin="88" yMin="-6" xMax="1019" yMax="1308">
      <contour>
        <pt x="1019" y="422" on="1"/>
        <pt x="1019" y="202" on="0"/>
        <pt x="668" y="-6" on="0"/>
        <pt x="397" y="-6" on="1"/>
        <pt x="323" y="-6" on="0"/>
        <pt x="88" y="0" on="1"/>
        <pt x="109" y="141" on="0"/>
        <pt x="172" y="684" on="1"/>
        <pt x="209" y="1036" on="0"/>
        <pt x="214" y="1302" on="1"/>
        <pt x="338" y="1302" on="1"/>
        <pt x="371" y="1302" on="0"/>
        <pt x="594" y="1308" on="0"/>
        <pt x="639" y="1308" on="1"/>
        <pt x="804" y="1308" on="0"/>
        <pt x="1006" y="1167" on="0"/>
        <pt x="1006" y="1036" on="1"/>
        <pt x="1006" y="931" on="0"/>
        <pt x="947" y="844" on="1"/>
        <pt x="885" y="752" on="0"/>
        <pt x="785" y="723" on="1"/>
        <pt x="785" y="713" on="1"/>
        <pt x="880" y="695" on="0"/>
        <pt x="1019" y="546" on="0"/>
      </contour>
      <contour>
        <pt x="855" y="411" on="1"/>
        <pt x="855" y="626" on="0"/>
        <pt x="465" y="626" on="1"/>
        <pt x="389" y="626" on="0"/>
        <pt x="311" y="620" on="1"/>
        <pt x="283" y="353" on="0"/>
        <pt x="271" y="143" on="1"/>
        <pt x="326" y="134" on="0"/>
        <pt x="447" y="134" on="1"/>
        <pt x="619" y="134" on="0"/>
        <pt x="855" y="249" on="0"/>
      </contour>
      <contour>
        <pt x="841" y="998" on="1"/>
        <pt x="841" y="1178" on="0"/>
        <pt x="597" y="1178" on="1"/>
        <pt x="464" y="1178" on="0"/>
        <pt x="362" y="1163" on="1"/>
        <pt x="362" y="1140" on="0"/>
        <pt x="325" y="756" on="1"/>
        <pt x="390" y="754" on="0"/>
        <pt x="446" y="754" on="1"/>
        <pt x="620" y="754" on="0"/>
        <pt x="708" y="791" on="1"/>
        <pt x="841" y="848" on="0"/>
      </contour>
    </TTGlyph>
    <TTGlyph name="C" xMin="70" yMin="-27" xMax="1003" yMax="1320">
      <contour>
        <pt x="1003" y="1293" on="1"/>
        <pt x="959" y="1134" on="1"/>
        <pt x="855" y="1170" on="0"/>
        <pt x="769" y="1170" on="1"/>
        <pt x="530" y="1170" on="0"/>
        <pt x="244" y="829" on="0"/>
        <pt x="244" y="587" on="1"/>
        <pt x="244" y="389" on="0"/>
        <pt x="480" y="116" on="0"/>
        <pt x="705" y="116" on="1"/>
        <pt x="797" y="116" on="0"/>
        <pt x="949" y="159" on="1"/>
        <pt x="922" y="10" on="1"/>
        <pt x="753" y="-27" on="0"/>
        <pt x="662" y="-27" on="1"/>
        <pt x="365" y="-27" on="0"/>
        <pt x="70" y="320" on="0"/>
        <pt x="70" y="567" on="1"/>
        <pt x="70" y="886" on="0"/>
        <pt x="501" y="1320" on="0"/>
        <pt x="826" y="1320" on="1"/>
        <pt x="912" y="1320" on="0"/>
      </contour>
    </TTGlyph>
    <TTGlyph name="D" xMin="88" yMin="-14" xMax="1141" yMax="1308">
      <contour>
        <pt x="1141" y="741" on="1"/>
        <pt x="1141" y="429" on="0"/>
        <pt x="731" y="-14" on="0"/>
        <pt x="414" y="-14" on="1"/>
        <pt x="315" y="-14" on="0"/>
        <pt x="88" y="0" on="1"/>
        <pt x="109" y="141" on="0"/>
        <pt x="172" y="684" on="1"/>
        <pt x="209" y="1036" on="0"/>
        <pt x="214" y="1302" on="1"/>
        <pt x="327" y="1302" on="1"/>
        <pt x="365" y="1302" on="0"/>
        <pt x="522" y="1308" on="0"/>
        <pt x="565" y="1308" on="1"/>
        <pt x="854" y="1308" on="0"/>
        <pt x="1141" y="977" on="0"/>
      </contour>
      <contour>
        <pt x="972" y="721" on="1"/>
        <pt x="972" y="915" on="0"/>
        <pt x="734" y="1173" on="0"/>
        <pt x="490" y="1173" on="1"/>
        <pt x="431" y="1173" on="0"/>
        <pt x="364" y="1163" on="1"/>
        <pt x="355" y="1056" on="0"/>
        <pt x="319" y="684" on="1"/>
        <pt x="291" y="414" on="0"/>
        <pt x="271" y="136" on="1"/>
        <pt x="345" y="120" on="0"/>
        <pt x="418" y="120" on="1"/>
        <pt x="671" y="120" on="0"/>
        <pt x="972" y="467" on="0"/>
      </contour>
    </TTGlyph>
    <TTGlyph name="E" xMin="88" yMin="0" xMax="942" yMax="1302">
      <contour>
        <pt x="942" y="1302" on="1"/>
        <pt x="919" y="1153" on="1"/>
        <pt x="661" y="1165" on="0"/>
        <pt x="369" y="1165" on="1"/>
        <pt x="365" y="1112" on="0"/>
        <pt x="340" y="840" on="1"/>
        <pt x="331" y="746" on="1"/>
        <pt x="583" y="746" on="0"/>
        <pt x="781" y="758" on="1"/>
        <pt x="764" y="609" on="1"/>
        <pt x="556" y="618" on="0"/>
        <pt x="316" y="618" on="1"/>
        <pt x="289" y="361" on="0"/>
        <pt x="272" y="136" on="1"/>
        <pt x="588" y="136" on="0"/>
        <pt x="878" y="151" on="1"/>
        <pt x="853" y="0" on="1"/>
        <pt x="88" y="0" on="1"/>
        <pt x="109" y="141" on="0"/>
        <pt x="173" y="684" on="1"/>
        <pt x="210" y="1036" on="0"/>
        <pt x="215" y="1302" on="1"/>
      </contour>
    </TTGlyph>
    <TTGlyph name="F" xMin="88" yMin="0" xMax="954" yMax="1302">
      <contour>
        <pt x="954" y="1302" on="1"/>
        <pt x="933" y="1153" on="1"/>
        <pt x="685" y="1165" on="0"/>
        <pt x="365" y="1165" on="1"/>
        <pt x="357" y="1043" on="0"/>
        <pt x="326" y="707" on="1"/>
        <pt x="549" y="707" on="0"/>
        <pt x="762" y="715" on="1"/>
        <pt x="745" y="570" on="1"/>
        <pt x="543" y="578" on="0"/>
        <pt x="312" y="578" on="1"/>
        <pt x="271" y="187" on="0"/>
        <pt x="262" y="0" on="1"/>
        <pt x="88" y="0" on="1"/>
        <pt x="110" y="141" on="0"/>
        <pt x="175" y="684" on="1"/>
        <pt x="212" y="1036" on="0"/>
        <pt x="215" y="1302" on="1"/>
      </contour>
    </TTGlyph>
    <TTGlyph name="G" xMin="70" yMin="-27" xMax="1064" yMax="1320">
      <contour>
        <pt x="1064" y="1291" on="1"/>
        <pt x="1023" y="1125" on="1"/>
        <pt x="861" y="1165" on="0"/>
        <pt x="772" y="1165" on="1"/>
        <pt x="535" y="1165" on="0"/>
        <pt x="244" y="830" on="0"/>
        <pt x="244" y="591" on="1"/>
        <pt x="244" y="390" on="0"/>
        <pt x="489" y="109" on="0"/>
        <pt x="716" y="109" on="1"/>
        <pt x="772" y="109" on="0"/>
        <pt x="867" y="124" on="1"/>
        <pt x="866" y="146" on="0"/>
        <pt x="866" y="177" on="1"/>
        <pt x="866" y="247" on="0"/>
        <pt x="887" y="523" on="0"/>
        <pt x="887" y="593" on="1"/>
        <pt x="1059" y="593" on="1"/>
        <pt x="1049" y="533" on="0"/>
        <pt x="1022" y="314" on="1"/>
        <pt x="1015" y="251" on="0"/>
        <pt x="1009" y="27" on="1"/>
        <pt x="838" y="-27" on="0"/>
        <pt x="670" y="-27" on="1"/>
        <pt x="372" y="-27" on="0"/>
        <pt x="70" y="322" on="0"/>
        <pt x="70" y="570" on="1"/>
        <pt x="70" y="886" on="0"/>
        <pt x="507" y="1320" on="0"/>
        <pt x="830" y="1320" on="1"/>
        <pt x="962" y="1320" on="0"/>
      </contour>
    </TTGlyph>
    <TTGlyph name="H" xMin="88" yMin="0" xMax="1137" yMax="1302">
      <contour>
        <pt x="1137" y="1302" on="1"/>
        <pt x="1116" y="1176" on="0"/>
        <pt x="1057" y="684" on="1"/>
        <pt x="1020" y="335" on="0"/>
        <pt x="1009" y="0" on="1"/>
        <pt x="819" y="0" on="1"/>
        <pt x="841" y="163" on="0"/>
        <pt x="893" y="620" on="1"/>
        <pt x="325" y="620" on="1"/>
        <pt x="302" y="398" on="0"/>
        <pt x="279" y="0" on="1"/>
        <pt x="88" y="0" on="1"/>
        <pt x="113" y="170" on="0"/>
        <pt x="174" y="684" on="1"/>
        <pt x="209" y="1018" on="0"/>
        <pt x="216" y="1302" on="1"/>
        <pt x="406" y="1302" on="1"/>
        <pt x="386" y="1169" on="0"/>
        <pt x="335" y="746" on="1"/>
        <pt x="910" y="746" on="1"/>
        <pt x="933" y="963" on="0"/>
        <pt x="945" y="1302" on="1"/>
      </contour>
    </TTGlyph>
    <TTGlyph name="I" xMin="88" yMin="0" xMax="406" yMax="1302">
      <contour>
        <pt x="406" y="1302" on="1"/>
        <pt x="387" y="1179" on="0"/>
        <pt x="328" y="684" on="1"/>
        <pt x="295" y="369" on="0"/>
        <pt x="283" y="72" on="1"/>
        <pt x="280" y="0" on="1"/>
        <pt x="88" y="0" on="1"/>
        <pt x="111" y="148" on="0"/>
        <pt x="175" y="684" on="1"/>
        <pt x="212" y="1038" on="0"/>
        <pt x="214" y="1302" on="1"/>
      </contour>
    </TTGlyph>
    <TTGlyph name="J" xMin="-47" yMin="-27" xMax="722" yMax="1302">
      <contour>
        <pt x="722" y="1302" on="1"/>
        <pt x="700" y="1168" on="0"/>
        <pt x="629" y="558" on="1"/>
        <pt x="594" y="220" on="0"/>
        <pt x="446" y="82" on="1"/>
        <pt x="329" y="-27" on="0"/>
        <pt x="117" y="-27" on="1"/>
        <pt x="24" y="-27" on="0"/>
        <pt x="-47" y="-6" on="1"/>
        <pt x="-18" y="140" on="1"/>
        <pt x="47" y="107" on="0"/>
        <pt x="110" y="107" on="1"/>
        <pt x="256" y="107" on="0"/>
        <pt x="329" y="166" on="1"/>
        <pt x="445" y="261" on="0"/>
        <pt x="474" y="535" on="1"/>
        <pt x="522" y="988" on="0"/>
        <pt x="530" y="1302" on="1"/>
      </contour>
    </TTGlyph>
    <TTGlyph name="K" xMin="88" yMin="0" xMax="1082" yMax="1302">
      <contour>
        <pt x="1082" y="1302" on="1"/>
        <pt x="1082" y="1272" on="0"/>
        <pt x="632" y="820" on="0"/>
        <pt x="526" y="746" on="1"/>
        <pt x="524" y="735" on="1"/>
        <pt x="630" y="690" on="0"/>
        <pt x="844" y="352" on="1"/>
        <pt x="1040" y="42" on="0"/>
        <pt x="1040" y="0" on="1"/>
        <pt x="843" y="0" on="1"/>
        <pt x="843" y="17" on="0"/>
        <pt x="755" y="178" on="1"/>
        <pt x="653" y="365" on="0"/>
        <pt x="440" y="653" on="0"/>
        <pt x="373" y="653" on="1"/>
        <pt x="325" y="653" on="1"/>
        <pt x="300" y="419" on="0"/>
        <pt x="275" y="0" on="1"/>
        <pt x="88" y="0" on="1"/>
        <pt x="109" y="141" on="0"/>
        <pt x="172" y="684" on="1"/>
        <pt x="209" y="1036" on="0"/>
        <pt x="214" y="1302" on="1"/>
        <pt x="404" y="1302" on="1"/>
        <pt x="386" y="1179" on="0"/>
        <pt x="338" y="762" on="1"/>
        <pt x="358" y="762" on="1"/>
        <pt x="402" y="762" on="0"/>
        <pt x="647" y="1020" on="1"/>
        <pt x="888" y="1273" on="0"/>
        <pt x="888" y="1302" on="1"/>
      </contour>
    </TTGlyph>
    <TTGlyph name="L" xMin="88" yMin="0" xMax="859" yMax="1302">
      <contour>
        <pt x="859" y="147" on="1"/>
        <pt x="836" y="0" on="1"/>
        <pt x="88" y="0" on="1"/>
        <pt x="106" y="106" on="0"/>
        <pt x="173" y="684" on="1"/>
        <pt x="212" y="1059" on="0"/>
        <pt x="217" y="1302" on="1"/>
        <pt x="402" y="1302" on="1"/>
        <pt x="388" y="1217" on="0"/>
        <pt x="326" y="684" on="1"/>
        <pt x="290" y="342" on="0"/>
        <pt x="262" y="136" on="1"/>
        <pt x="494" y="136" on="0"/>
      </contour>
    </TTGlyph>
    <TTGlyph name="M" xMin="44" yMin="0" xMax="1446" yMax="1302">
      <contour>
        <pt x="1432" y="0" on="1"/>
        <pt x="1243" y="0" on="1"/>
        <pt x="1243" y="526" on="0"/>
        <pt x="1293" y="1161" on="1"/>
        <pt x="1282" y="1161" on="1"/>
        <pt x="1272" y="1129" on="0"/>
        <pt x="1159" y="837" on="0"/>
        <pt x="787" y="80" on="0"/>
        <pt x="779" y="0" on="1"/>
        <pt x="646" y="0" on="1"/>
        <pt x="646" y="102" on="0"/>
        <pt x="443" y="967" on="0"/>
        <pt x="421" y="1097" on="0"/>
        <pt x="414" y="1161" on="1"/>
        <pt x="404" y="1161" on="1"/>
        <pt x="385" y="1007" on="0"/>
        <pt x="211" y="40" on="0"/>
        <pt x="211" y="0" on="1"/>
        <pt x="44" y="0" on="1"/>
        <pt x="44" y="35" on="0"/>
        <pt x="292" y="1142" on="0"/>
        <pt x="309" y="1302" on="1"/>
        <pt x="549" y="1302" on="1"/>
        <pt x="549" y="1146" on="0"/>
        <pt x="750" y="356" on="0"/>
        <pt x="750" y="219" on="1"/>
        <pt x="760" y="219" on="1"/>
        <pt x="771" y="326" on="0"/>
        <pt x="1191" y="1208" on="0"/>
        <pt x="1201" y="1302" on="1"/>
        <pt x="1446" y="1302" on="1"/>
        <pt x="1414" y="1017" on="0"/>
        <pt x="1414" y="570" on="1"/>
        <pt x="1414" y="219" on="0"/>
      </contour>
    </TTGlyph>
    <TTGlyph name="N" xMin="77" yMin="0" xMax="1168" yMax="1302">
      <contour>
        <pt x="1168" y="1302" on="1"/>
        <pt x="1148" y="1183" on="0"/>
        <pt x="1089" y="684" on="1"/>
        <pt x="1051" y="325" on="0"/>
        <pt x="1031" y="0" on="1"/>
        <pt x="897" y="0" on="1"/>
        <pt x="897" y="36" on="0"/>
        <pt x="627" y="516" on="1"/>
        <pt x="347" y="1015" on="0"/>
        <pt x="319" y="1132" on="1"/>
        <pt x="308" y="1132" on="1"/>
        <pt x="314" y="1089" on="0"/>
        <pt x="314" y="1010" on="1"/>
        <pt x="314" y="868" on="0"/>
        <pt x="294" y="678" on="1"/>
        <pt x="259" y="342" on="0"/>
        <pt x="236" y="0" on="1"/>
        <pt x="77" y="0" on="1"/>
        <pt x="100" y="149" on="0"/>
        <pt x="164" y="684" on="1"/>
        <pt x="201" y="1036" on="0"/>
        <pt x="203" y="1302" on="1"/>
        <pt x="397" y="1302" on="1"/>
        <pt x="397" y="1243" on="0"/>
        <pt x="645" y="804" on="1"/>
        <pt x="905" y="346" on="0"/>
        <pt x="930" y="219" on="1"/>
        <pt x="938" y="219" on="1"/>
        <pt x="932" y="256" on="0"/>
        <pt x="932" y="312" on="1"/>
        <pt x="932" y="474" on="0"/>
        <pt x="953" y="674" on="1"/>
        <pt x="992" y="1044" on="0"/>
        <pt x="995" y="1302" on="1"/>
      </contour>
    </TTGlyph>
    <TTGlyph name="O" xMin="70" yMin="-39" xMax="1248" yMax="1328">
      <contour>
        <pt x="1248" y="744" on="1"/>
        <pt x="1248" y="434" on="0"/>
        <pt x="865" y="-39" on="0"/>
        <pt x="574" y="-39" on="1"/>
        <pt x="370" y="-39" on="0"/>
        <pt x="70" y="282" on="0"/>
        <pt x="70" y="545" on="1"/>
        <pt x="70" y="862" on="0"/>
        <pt x="455" y="1328" on="0"/>
        <pt x="744" y="1328" on="1"/>
        <pt x="946" y="1328" on="0"/>
        <pt x="1248" y="1009" on="0"/>
      </contour>
      <contour>
        <pt x="1077" y="735" on="1"/>
        <pt x="1077" y="950" on="0"/>
        <pt x="855" y="1189" on="0"/>
        <pt x="703" y="1189" on="1"/>
        <pt x="494" y="1189" on="0"/>
        <pt x="244" y="804" on="0"/>
        <pt x="244" y="555" on="1"/>
        <pt x="244" y="342" on="0"/>
        <pt x="464" y="100" on="0"/>
        <pt x="616" y="100" on="1"/>
        <pt x="822" y="100" on="0"/>
        <pt x="1077" y="490" on="0"/>
      </contour>
    </TTGlyph>
    <TTGlyph name="P" xMin="88" yMin="0" xMax="1028" yMax="1308">
      <contour>
        <pt x="1028" y="993" on="1"/>
        <pt x="1028" y="753" on="0"/>
        <pt x="664" y="525" on="0"/>
        <pt x="391" y="525" on="1"/>
        <pt x="336" y="525" on="0"/>
        <pt x="311" y="527" on="1"/>
        <pt x="286" y="292" on="0"/>
        <pt x="281" y="0" on="1"/>
        <pt x="88" y="0" on="1"/>
        <pt x="108" y="126" on="0"/>
        <pt x="174" y="684" on="1"/>
        <pt x="210" y="1028" on="0"/>
        <pt x="216" y="1302" on="1"/>
        <pt x="360" y="1302" on="1"/>
        <pt x="382" y="1302" on="0"/>
        <pt x="590" y="1308" on="0"/>
        <pt x="662" y="1308" on="1"/>
        <pt x="829" y="1308" on="0"/>
        <pt x="1028" y="1128" on="0"/>
      </contour>
      <contour>
        <pt x="862" y="954" on="1"/>
        <pt x="862" y="1178" on="0"/>
        <pt x="554" y="1178" on="1"/>
        <pt x="473" y="1178" on="0"/>
        <pt x="373" y="1163" on="1"/>
        <pt x="323" y="655" on="1"/>
        <pt x="356" y="653" on="0"/>
        <pt x="404" y="653" on="1"/>
        <pt x="862" y="653" on="0"/>
      </contour>
    </TTGlyph>
    <TTGlyph name="Q" xMin="70" yMin="-442" xMax="1246" yMax="1328">
      <contour>
        <pt x="1246" y="746" on="1"/>
        <pt x="1246" y="520" on="0"/>
        <pt x="1041" y="139" on="0"/>
        <pt x="849" y="35" on="1"/>
        <pt x="849" y="25" on="1"/>
        <pt x="1007" y="9" on="0"/>
        <pt x="1132" y="-171" on="0"/>
        <pt x="1159" y="-434" on="1"/>
        <pt x="979" y="-442" on="1"/>
        <pt x="948" y="-169" on="0"/>
        <pt x="811" y="-39" on="0"/>
        <pt x="572" y="-39" on="1"/>
        <pt x="371" y="-39" on="0"/>
        <pt x="70" y="280" on="0"/>
        <pt x="70" y="545" on="1"/>
        <pt x="70" y="848" on="0"/>
        <pt x="446" y="1328" on="0"/>
        <pt x="744" y="1328" on="1"/>
        <pt x="946" y="1328" on="0"/>
        <pt x="1246" y="1011" on="0"/>
      </contour>
      <contour>
        <pt x="1077" y="735" on="1"/>
        <pt x="1077" y="950" on="0"/>
        <pt x="855" y="1189" on="0"/>
        <pt x="703" y="1189" on="1"/>
        <pt x="494" y="1189" on="0"/>
        <pt x="244" y="804" on="0"/>
        <pt x="244" y="555" on="1"/>
        <pt x="244" y="342" on="0"/>
        <pt x="464" y="100" on="0"/>
        <pt x="616" y="100" on="1"/>
        <pt x="822" y="100" on="0"/>
        <pt x="1077" y="490" on="0"/>
      </contour>
    </TTGlyph>
    <TTGlyph name="R" xMin="88" yMin="0" xMax="1044" yMax="1308">
      <contour>
        <pt x="1044" y="0" on="1"/>
        <pt x="864" y="0" on="1"/>
        <pt x="808" y="266" on="0"/>
        <pt x="710" y="495" on="0"/>
        <pt x="581" y="558" on="0"/>
        <pt x="448" y="558" on="1"/>
        <pt x="367" y="558" on="0"/>
        <pt x="311" y="556" on="1"/>
        <pt x="277" y="233" on="0"/>
        <pt x="273" y="0" on="1"/>
        <pt x="88" y="0" on="1"/>
        <pt x="109" y="141" on="0"/>
        <pt x="172" y="684" on="1"/>
        <pt x="209" y="1036" on="0"/>
        <pt x="214" y="1302" on="1"/>
        <pt x="356" y="1302" on="1"/>
        <pt x="361" y="1302" on="0"/>
        <pt x="532" y="1308" on="0"/>
        <pt x="616" y="1308" on="1"/>
        <pt x="796" y="1308" on="0"/>
        <pt x="1003" y="1145" on="0"/>
        <pt x="1003" y="1007" on="1"/>
        <pt x="1003" y="884" on="0"/>
        <pt x="853" y="695" on="0"/>
        <pt x="730" y="653" on="1"/>
        <pt x="730" y="643" on="1"/>
        <pt x="828" y="611" on="0"/>
        <pt x="954" y="362" on="0"/>
      </contour>
      <contour>
        <pt x="833" y="973" on="1"/>
        <pt x="833" y="1176" on="0"/>
        <pt x="550" y="1176" on="1"/>
        <pt x="441" y="1176" on="0"/>
        <pt x="369" y="1163" on="1"/>
        <pt x="360" y="1048" on="0"/>
        <pt x="325" y="690" on="1"/>
        <pt x="381" y="688" on="0"/>
        <pt x="433" y="688" on="1"/>
        <pt x="833" y="688" on="0"/>
      </contour>
    </TTGlyph>
    <TTGlyph name="S" xMin="31" yMin="-33" xMax="899" yMax="1320">
      <contour>
        <pt x="899" y="1289" on="1"/>
        <pt x="859" y="1130" on="1"/>
        <pt x="740" y="1178" on="0"/>
        <pt x="578" y="1178" on="1"/>
        <pt x="301" y="1178" on="0"/>
        <pt x="301" y="990" on="1"/>
        <pt x="301" y="916" on="0"/>
        <pt x="414" y="814" on="0"/>
        <pt x="540" y="754" on="1"/>
        <pt x="701" y="679" on="0"/>
        <pt x="874" y="499" on="0"/>
        <pt x="874" y="361" on="1"/>
        <pt x="874" y="-33" on="0"/>
        <pt x="344" y="-33" on="1"/>
        <pt x="165" y="-33" on="0"/>
        <pt x="31" y="10" on="1"/>
        <pt x="81" y="167" on="1"/>
        <pt x="215" y="109" on="0"/>
        <pt x="359" y="109" on="1"/>
        <pt x="716" y="109" on="0"/>
        <pt x="716" y="320" on="1"/>
        <pt x="716" y="408" on="0"/>
        <pt x="586" y="530" on="0"/>
        <pt x="449" y="597" on="1"/>
        <pt x="295" y="670" on="0"/>
        <pt x="148" y="828" on="0"/>
        <pt x="148" y="952" on="1"/>
        <pt x="148" y="1136" on="0"/>
        <pt x="397" y="1320" on="0"/>
        <pt x="592" y="1320" on="1"/>
        <pt x="818" y="1320" on="0"/>
      </contour>
    </TTGlyph>
    <TTGlyph name="T" xMin="98" yMin="0" xMax="1061" yMax="1302">
      <contour>
        <pt x="1061" y="1302" on="1"/>
        <pt x="1042" y="1161" on="1"/>
        <pt x="855" y="1171" on="0"/>
        <pt x="656" y="1171" on="1"/>
        <pt x="636" y="1010" on="0"/>
        <pt x="602" y="684" on="1"/>
        <pt x="568" y="358" on="0"/>
        <pt x="550" y="0" on="1"/>
        <pt x="365" y="0" on="1"/>
        <pt x="388" y="157" on="0"/>
        <pt x="450" y="684" on="1"/>
        <pt x="481" y="975" on="0"/>
        <pt x="495" y="1171" on="1"/>
        <pt x="354" y="1171" on="0"/>
        <pt x="98" y="1159" on="1"/>
        <pt x="117" y="1302" on="1"/>
      </contour>
    </TTGlyph>
    <TTGlyph name="U" xMin="124" yMin="-27" xMax="1208" yMax="1302">
      <contour>
        <pt x="1208" y="1302" on="1"/>
        <pt x="1189" y="1158" on="0"/>
        <pt x="1132" y="643" on="1"/>
        <pt x="1062" y="-27" on="0"/>
        <pt x="551" y="-27" on="1"/>
        <pt x="351" y="-27" on="0"/>
        <pt x="124" y="195" on="0"/>
        <pt x="124" y="469" on="1"/>
        <pt x="124" y="556" on="0"/>
        <pt x="132" y="632" on="1"/>
        <pt x="154" y="843" on="0"/>
        <pt x="186" y="1302" on="1"/>
        <pt x="376" y="1302" on="1"/>
        <pt x="351" y="1120" on="0"/>
        <pt x="301" y="705" on="1"/>
        <pt x="289" y="591" on="0"/>
        <pt x="289" y="492" on="1"/>
        <pt x="289" y="282" on="0"/>
        <pt x="426" y="105" on="0"/>
        <pt x="576" y="105" on="1"/>
        <pt x="757" y="105" on="0"/>
        <pt x="946" y="352" on="0"/>
        <pt x="983" y="707" on="1"/>
        <pt x="1005" y="917" on="0"/>
        <pt x="1021" y="1302" on="1"/>
      </contour>
    </TTGlyph>
    <TTGlyph name="V" xMin="74" yMin="0" xMax="1208" yMax="1302">
      <contour>
        <pt x="1208" y="1302" on="1"/>
        <pt x="1208" y="1205" on="0"/>
        <pt x="561" y="78" on="0"/>
        <pt x="553" y="0" on="1"/>
        <pt x="429" y="0" on="1"/>
        <pt x="429" y="126" on="0"/>
        <pt x="74" y="1155" on="0"/>
        <pt x="74" y="1302" on="1"/>
        <pt x="254" y="1302" on="1"/>
        <pt x="254" y="1172" on="0"/>
        <pt x="522" y="310" on="0"/>
        <pt x="522" y="200" on="1"/>
        <pt x="532" y="200" on="1"/>
        <pt x="539" y="270" on="0"/>
        <pt x="1026" y="1197" on="0"/>
        <pt x="1026" y="1302" on="1"/>
      </contour>
    </TTGlyph>
    <TTGlyph name="W" xMin="74" yMin="0" xMax="1897" yMax="1302">
      <contour>
        <pt x="1897" y="1302" on="1"/>
        <pt x="1897" y="1226" on="0"/>
        <pt x="1317" y="63" on="0"/>
        <pt x="1310" y="0" on="1"/>
        <pt x="1186" y="0" on="1"/>
        <pt x="1186" y="80" on="0"/>
        <pt x="957" y="954" on="0"/>
        <pt x="948" y="1099" on="1"/>
        <pt x="938" y="1099" on="1"/>
        <pt x="903" y="957" on="0"/>
        <pt x="511" y="67" on="0"/>
        <pt x="504" y="0" on="1"/>
        <pt x="380" y="0" on="1"/>
        <pt x="380" y="102" on="0"/>
        <pt x="74" y="1265" on="0"/>
        <pt x="74" y="1302" on="1"/>
        <pt x="256" y="1302" on="1"/>
        <pt x="256" y="1264" on="0"/>
        <pt x="467" y="325" on="0"/>
        <pt x="467" y="200" on="1"/>
        <pt x="477" y="200" on="1"/>
        <pt x="488" y="308" on="0"/>
        <pt x="905" y="1242" on="0"/>
        <pt x="905" y="1302" on="1"/>
        <pt x="1072" y="1302" on="1"/>
        <pt x="1072" y="1247" on="0"/>
        <pt x="1281" y="308" on="0"/>
        <pt x="1281" y="200" on="1"/>
        <pt x="1289" y="200" on="1"/>
        <pt x="1299" y="291" on="0"/>
        <pt x="1711" y="1206" on="0"/>
        <pt x="1711" y="1302" on="1"/>
      </contour>
    </TTGlyph>
    <TTGlyph name="X" xMin="-52" yMin="0" xMax="1133" yMax="1302">
      <contour>
        <pt x="1133" y="1302" on="1"/>
        <pt x="1133" y="1274" on="0"/>
        <pt x="739" y="798" on="0"/>
        <pt x="673" y="735" on="1"/>
        <pt x="673" y="725" on="1"/>
        <pt x="737" y="650" on="0"/>
        <pt x="1053" y="57" on="0"/>
        <pt x="1053" y="0" on="1"/>
        <pt x="846" y="0" on="1"/>
        <pt x="846" y="50" on="0"/>
        <pt x="598" y="538" on="0"/>
        <pt x="545" y="614" on="1"/>
        <pt x="534" y="614" on="1"/>
        <pt x="464" y="528" on="0"/>
        <pt x="169" y="46" on="0"/>
        <pt x="169" y="0" on="1"/>
        <pt x="-52" y="0" on="1"/>
        <pt x="-52" y="29" on="0"/>
        <pt x="426" y="657" on="0"/>
        <pt x="479" y="705" on="1"/>
        <pt x="479" y="715" on="1"/>
        <pt x="435" y="774" on="0"/>
        <pt x="156" y="1273" on="0"/>
        <pt x="156" y="1302" on="1"/>
        <pt x="361" y="1302" on="1"/>
        <pt x="361" y="1264" on="0"/>
        <pt x="565" y="869" on="0"/>
        <pt x="605" y="812" on="1"/>
        <pt x="613" y="812" on="1"/>
        <pt x="670" y="876" on="0"/>
        <pt x="935" y="1274" on="0"/>
        <pt x="935" y="1302" on="1"/>
      </contour>
    </TTGlyph>
    <TTGlyph name="Y" xMin="74" yMin="0" xMax="1103" yMax="1302">
      <contour>
        <pt x="1103" y="1302" on="1"/>
        <pt x="1103" y="1264" on="0"/>
        <pt x="763" y="816" on="0"/>
        <pt x="572" y="533" on="0"/>
        <pt x="561" y="424" on="1"/>
        <pt x="540" y="224" on="0"/>
        <pt x="540" y="0" on="1"/>
        <pt x="349" y="0" on="1"/>
        <pt x="406" y="376" on="0"/>
        <pt x="406" y="459" on="1"/>
        <pt x="406" y="581" on="0"/>
        <pt x="276" y="884" on="0"/>
        <pt x="74" y="1269" on="0"/>
        <pt x="74" y="1302" on="1"/>
        <pt x="268" y="1302" on="1"/>
        <pt x="268" y="1264" on="0"/>
        <pt x="522" y="694" on="0"/>
        <pt x="522" y="597" on="1"/>
        <pt x="532" y="597" on="1"/>
        <pt x="542" y="690" on="0"/>
        <pt x="913" y="1258" on="0"/>
        <pt x="913" y="1302" on="1"/>
      </contour>
    </TTGlyph>
    <TTGlyph name="Z" xMin="28" yMin="0" xMax="958" yMax="1302">
      <contour>
        <pt x="958" y="1302" on="1"/>
        <pt x="937" y="1178" on="1"/>
        <pt x="812" y="1017" on="0"/>
        <pt x="263" y="189" on="0"/>
        <pt x="259" y="147" on="1"/>
        <pt x="257" y="136" on="1"/>
        <pt x="453" y="136" on="0"/>
        <pt x="865" y="163" on="1"/>
        <pt x="844" y="0" on="1"/>
        <pt x="28" y="0" on="1"/>
        <pt x="49" y="120" on="1"/>
        <pt x="188" y="296" on="0"/>
        <pt x="752" y="1119" on="0"/>
        <pt x="757" y="1167" on="1"/>
        <pt x="759" y="1178" on="1"/>
        <pt x="551" y="1178" on="0"/>
        <pt x="166" y="1153" on="1"/>
        <pt x="183" y="1302" on="1"/>
      </contour>
    </TTGlyph>
    <TTGlyph name="a" xMin="54" yMin="-23" xMax="894" yMax="995">
      <contour>
        <pt x="894" y="995" on="1"/>
        <pt x="803" y="487" on="0"/>
        <pt x="803" y="256" on="1"/>
        <pt x="803" y="151" on="0"/>
        <pt x="821" y="10" on="1"/>
        <pt x="652" y="-15" on="1"/>
        <pt x="646" y="74" on="0"/>
        <pt x="646" y="208" on="1"/>
        <pt x="637" y="208" on="1"/>
        <pt x="510" y="-23" on="0"/>
        <pt x="302" y="-23" on="1"/>
        <pt x="181" y="-23" on="0"/>
        <pt x="54" y="170" on="0"/>
        <pt x="54" y="325" on="1"/>
        <pt x="54" y="575" on="0"/>
        <pt x="404" y="945" on="0"/>
        <pt x="732" y="949" on="1"/>
        <pt x="776" y="980" on="1"/>
      </contour>
      <contour>
        <pt x="712" y="836" on="1"/>
        <pt x="458" y="831" on="0"/>
        <pt x="225" y="564" on="0"/>
        <pt x="225" y="344" on="1"/>
        <pt x="225" y="116" on="0"/>
        <pt x="377" y="116" on="1"/>
        <pt x="483" y="116" on="0"/>
        <pt x="661" y="421" on="0"/>
        <pt x="704" y="668" on="0"/>
      </contour>
    </TTGlyph>
    <TTGlyph name="a.fina" xMin="0" yMin="637" xMax="1201" yMax="1926">
      <contour>
        <pt x="304" y="835" on="1"/>
        <pt x="439" y="834" on="0"/>
        <pt x="479" y="839" on="1"/>
        <pt x="585" y="861" on="0"/>
        <pt x="740" y="931" on="1"/>
        <pt x="850" y="999" on="0"/>
        <pt x="938" y="1073" on="0"/>
        <pt x="1008" y="1189" on="1"/>
        <pt x="1034" y="1238" on="0"/>
        <pt x="1041" y="1318" on="1"/>
        <pt x="1052" y="1403" on="0"/>
        <pt x="1025" y="1456" on="1"/>
        <pt x="983" y="1559" on="0"/>
        <pt x="838" y="1718" on="1"/>
        <pt x="762" y="1791" on="0"/>
        <pt x="640" y="1870" on="0"/>
        <pt x="626" y="1903" on="0"/>
        <pt x="644" y="1926" on="0"/>
        <pt x="663" y="1926" on="1"/>
        <pt x="733" y="1926" on="0"/>
        <pt x="921" y="1788" on="1"/>
        <pt x="1008" y="1710" on="0"/>
        <pt x="1128" y="1567" on="0"/>
        <pt x="1178" y="1493" on="0"/>
        <pt x="1201" y="1414" on="0"/>
        <pt x="1201" y="1336" on="1"/>
        <pt x="1184" y="1218" on="0"/>
        <pt x="1142" y="1148" on="1"/>
        <pt x="1035" y="989" on="0"/>
        <pt x="865" y="857" on="0"/>
        <pt x="787" y="802" on="1"/>
        <pt x="704" y="739" on="0"/>
        <pt x="553" y="679" on="0"/>
        <pt x="483" y="665" on="1"/>
        <pt x="342" y="637" on="0"/>
        <pt x="289" y="637" on="1"/>
        <pt x="0" y="637" on="1"/>
        <pt x="0" y="835" on="1"/>
      </contour>
    </TTGlyph>
    <TTGlyph name="a.init" xMin="-15" yMin="454" xMax="1458" yMax="1111">
      <contour>
        <pt x="350" y="1111" on="1"/>
        <pt x="416" y="1111" on="0"/>
        <pt x="520" y="1057" on="0"/>
        <pt x="552" y="987" on="1"/>
        <pt x="589" y="922" on="1"/>
        <pt x="658" y="848" on="0"/>
        <pt x="699" y="844" on="1"/>
        <pt x="732" y="839" on="0"/>
        <pt x="819" y="835" on="1"/>
        <pt x="1458" y="835" on="1"/>
        <pt x="1458" y="637" on="1"/>
        <pt x="1271" y="637" on="1"/>
        <pt x="1234" y="614" on="0"/>
        <pt x="1234" y="587" on="1"/>
        <pt x="1206" y="536" on="0"/>
        <pt x="1126" y="480" on="0"/>
        <pt x="1082" y="480" on="1"/>
        <pt x="1053" y="480" on="0"/>
        <pt x="971" y="542" on="0"/>
        <pt x="902" y="637" on="1"/>
        <pt x="843" y="637" on="0"/>
        <pt x="810" y="614" on="1"/>
        <pt x="801" y="606" on="0"/>
        <pt x="778" y="568" on="1"/>
        <pt x="717" y="454" on="0"/>
        <pt x="653" y="457" on="1"/>
        <pt x="579" y="464" on="0"/>
        <pt x="557" y="591" on="1"/>
        <pt x="520" y="700" on="0"/>
        <pt x="367" y="889" on="0"/>
        <pt x="289" y="895" on="1"/>
        <pt x="239" y="888" on="0"/>
        <pt x="193" y="848" on="1"/>
        <pt x="142" y="813" on="0"/>
        <pt x="87" y="793" on="1"/>
        <pt x="26" y="798" on="0"/>
        <pt x="5" y="825" on="1"/>
        <pt x="-15" y="866" on="0"/>
        <pt x="115" y="982" on="0"/>
        <pt x="226" y="1051" on="1"/>
        <pt x="292" y="1101" on="0"/>
      </contour>
    </TTGlyph>
    <TTGlyph name="a.isol" xMin="0" yMin="550" xMax="2061" yMax="1923">
      <contour>
        <pt x="1524" y="1923" on="1"/>
        <pt x="1594" y="1923" on="0"/>
        <pt x="1781" y="1785" on="1"/>
        <pt x="1868" y="1709" on="0"/>
        <pt x="1987" y="1565" on="0"/>
        <pt x="2038" y="1491" on="0"/>
        <pt x="2061" y="1413" on="0"/>
        <pt x="2061" y="1335" on="1"/>
        <pt x="2043" y="1217" on="0"/>
        <pt x="2002" y="1147" on="1"/>
        <pt x="1894" y="989" on="0"/>
        <pt x="1725" y="857" on="0"/>
        <pt x="1647" y="802" on="1"/>
        <pt x="1565" y="739" on="0"/>
        <pt x="1414" y="679" on="0"/>
        <pt x="1345" y="665" on="1"/>
        <pt x="1204" y="637" on="0"/>
        <pt x="1152" y="637" on="1"/>
        <pt x="716" y="637" on="1"/>
        <pt x="689" y="637" on="0"/>
        <pt x="652" y="573" on="0"/>
        <pt x="616" y="550" on="0"/>
        <pt x="587" y="550" on="1"/>
        <pt x="513" y="550" on="0"/>
        <pt x="487" y="605" on="1"/>
        <pt x="473" y="629" on="0"/>
        <pt x="459" y="688" on="1"/>
        <pt x="445" y="760" on="0"/>
        <pt x="376" y="807" on="1"/>
        <pt x="326" y="857" on="1"/>
        <pt x="253" y="911" on="0"/>
        <pt x="221" y="899" on="1"/>
        <pt x="170" y="881" on="0"/>
        <pt x="78" y="825" on="0"/>
        <pt x="46" y="825" on="1"/>
        <pt x="0" y="838" on="0"/>
        <pt x="0" y="857" on="1"/>
        <pt x="0" y="884" on="0"/>
        <pt x="19" y="908" on="1"/>
        <pt x="66" y="957" on="0"/>
        <pt x="133" y="1000" on="1"/>
        <pt x="276" y="1107" on="0"/>
        <pt x="330" y="1105" on="1"/>
        <pt x="402" y="1110" on="0"/>
        <pt x="473" y="1023" on="1"/>
        <pt x="519" y="959" on="0"/>
        <pt x="532" y="899" on="0"/>
        <pt x="551" y="876" on="0"/>
        <pt x="574" y="862" on="1"/>
        <pt x="629" y="843" on="0"/>
        <pt x="859" y="835" on="1"/>
        <pt x="1166" y="835" on="1"/>
        <pt x="1301" y="834" on="0"/>
        <pt x="1341" y="839" on="1"/>
        <pt x="1446" y="861" on="0"/>
        <pt x="1601" y="931" on="1"/>
        <pt x="1711" y="998" on="0"/>
        <pt x="1798" y="1072" on="0"/>
        <pt x="1868" y="1188" on="1"/>
        <pt x="1893" y="1236" on="0"/>
        <pt x="1900" y="1317" on="1"/>
        <pt x="1911" y="1401" on="0"/>
        <pt x="1885" y="1454" on="1"/>
        <pt x="1843" y="1558" on="0"/>
        <pt x="1698" y="1716" on="1"/>
        <pt x="1623" y="1788" on="0"/>
        <pt x="1501" y="1867" on="0"/>
        <pt x="1487" y="1900" on="0"/>
        <pt x="1504" y="1923" on="0"/>
      </contour>
    </TTGlyph>
    <TTGlyph name="a.medi" xMin="0" yMin="480" xMax="664" yMax="835">
      <contour>
        <pt x="664" y="835" on="1"/>
        <pt x="664" y="637" on="1"/>
        <pt x="476" y="637" on="1"/>
        <pt x="440" y="614" on="0"/>
        <pt x="440" y="587" on="1"/>
        <pt x="413" y="536" on="0"/>
        <pt x="332" y="480" on="0"/>
        <pt x="289" y="480" on="1"/>
        <pt x="258" y="480" on="0"/>
        <pt x="178" y="542" on="0"/>
        <pt x="109" y="637" on="1"/>
        <pt x="0" y="637" on="1"/>
        <pt x="0" y="835" on="1"/>
      </contour>
    </TTGlyph>
    <TTGlyph name="a1.fina" xMin="-232" yMin="-375" xMax="1717" yMax="875">
      <contour>
        <pt x="88" y="809" on="1"/>
        <pt x="129" y="782" on="1"/>
        <pt x="184" y="738" on="0"/>
        <pt x="1410" y="-45" on="1"/>
        <pt x="1446" y="-72" on="0"/>
        <pt x="1505" y="-121" on="0"/>
        <pt x="1593" y="-173" on="0"/>
        <pt x="1698" y="-237" on="1"/>
        <pt x="1717" y="-273" on="0"/>
        <pt x="1693" y="-324" on="1"/>
        <pt x="1674" y="-368" on="0"/>
        <pt x="1606" y="-375" on="1"/>
        <pt x="1568" y="-375" on="0"/>
        <pt x="1485" y="-304" on="0"/>
        <pt x="1386" y="-297" on="1"/>
        <pt x="1274" y="-343" on="0"/>
        <pt x="1230" y="-343" on="1"/>
        <pt x="1182" y="-341" on="0"/>
        <pt x="1194" y="-301" on="1"/>
        <pt x="1210" y="-260" on="0"/>
        <pt x="1240" y="-227" on="1"/>
        <pt x="1272" y="-196" on="0"/>
        <pt x="1301" y="-186" on="0"/>
        <pt x="1318" y="-164" on="1"/>
        <pt x="1329" y="-144" on="0"/>
        <pt x="1290" y="-123" on="1"/>
        <pt x="281" y="479" on="1"/>
        <pt x="126" y="572" on="0"/>
        <pt x="3" y="620" on="0"/>
        <pt x="-87" y="620" on="0"/>
        <pt x="-126" y="603" on="0"/>
        <pt x="-193" y="587" on="1"/>
        <pt x="-232" y="608" on="0"/>
        <pt x="-221" y="673" on="0"/>
        <pt x="-169" y="750" on="1"/>
        <pt x="-130" y="784" on="0"/>
        <pt x="-95" y="807" on="1"/>
        <pt x="0" y="875" on="0"/>
      </contour>
    </TTGlyph>
    <TTGlyph name="ampersand" xMin="97" yMin="-25" xMax="1198" yMax="1165">
      <contour>
        <pt x="1198" y="0" on="1"/>
        <pt x="994" y="0" on="1"/>
        <pt x="991" y="23" on="0"/>
        <pt x="907" y="187" on="0"/>
        <pt x="876" y="224" on="1"/>
        <pt x="869" y="224" on="1"/>
        <pt x="672" y="-25" on="0"/>
        <pt x="402" y="-25" on="1"/>
        <pt x="252" y="-25" on="0"/>
        <pt x="97" y="138" on="0"/>
        <pt x="97" y="271" on="1"/>
        <pt x="97" y="405" on="0"/>
        <pt x="264" y="614" on="0"/>
        <pt x="398" y="666" on="1"/>
        <pt x="399" y="674" on="1"/>
        <pt x="266" y="796" on="0"/>
        <pt x="266" y="913" on="1"/>
        <pt x="266" y="1033" on="0"/>
        <pt x="441" y="1165" on="0"/>
        <pt x="566" y="1165" on="1"/>
        <pt x="715" y="1165" on="0"/>
        <pt x="858" y="1049" on="0"/>
        <pt x="858" y="949" on="1"/>
        <pt x="858" y="858" on="0"/>
        <pt x="742" y="719" on="0"/>
        <pt x="660" y="687" on="1"/>
        <pt x="659" y="677" on="1"/>
        <pt x="748" y="627" on="0"/>
        <pt x="913" y="445" on="1"/>
        <pt x="921" y="445" on="1"/>
        <pt x="965" y="519" on="0"/>
        <pt x="982" y="671" on="1"/>
        <pt x="1157" y="671" on="1"/>
        <pt x="1153" y="636" on="0"/>
        <pt x="1095" y="531" on="1"/>
        <pt x="1034" y="418" on="0"/>
        <pt x="985" y="371" on="1"/>
        <pt x="984" y="363" on="1"/>
        <pt x="1045" y="302" on="0"/>
        <pt x="1121" y="172" on="1"/>
        <pt x="1196" y="38" on="0"/>
      </contour>
      <contour>
        <pt x="819" y="300" on="1"/>
        <pt x="820" y="310" on="1"/>
        <pt x="765" y="377" on="0"/>
        <pt x="712" y="432" on="1"/>
        <pt x="583" y="565" on="0"/>
        <pt x="479" y="618" on="1"/>
        <pt x="273" y="538" on="0"/>
        <pt x="273" y="340" on="1"/>
        <pt x="273" y="224" on="0"/>
        <pt x="378" y="107" on="0"/>
        <pt x="485" y="107" on="1"/>
        <pt x="631" y="107" on="0"/>
      </contour>
      <contour>
        <pt x="705" y="913" on="1"/>
        <pt x="705" y="978" on="0"/>
        <pt x="638" y="1049" on="0"/>
        <pt x="566" y="1049" on="1"/>
        <pt x="509" y="1049" on="0"/>
        <pt x="425" y="988" on="0"/>
        <pt x="425" y="926" on="1"/>
        <pt x="425" y="829" on="0"/>
        <pt x="578" y="728" on="1"/>
        <pt x="705" y="795" on="0"/>
      </contour>
    </TTGlyph>
    <TTGlyph name="arrowdown" xMin="246" yMin="-391" xMax="968" yMax="1689">
      <contour>
        <pt x="644" y="1689" on="1"/>
        <pt x="644" y="-112" on="1"/>
        <pt x="936" y="289" on="1"/>
        <pt x="968" y="270" on="1"/>
        <pt x="608" y="-391" on="1"/>
        <pt x="246" y="268" on="1"/>
        <pt x="276" y="289" on="1"/>
        <pt x="568" y="-112" on="1"/>
        <pt x="568" y="1689" on="1"/>
      </contour>
    </TTGlyph>
    <TTGlyph name="arrowleft" xMin="328" yMin="401" xMax="2406" yMax="1125">
      <contour>
        <pt x="2406" y="725" on="1"/>
        <pt x="607" y="725" on="1"/>
        <pt x="1007" y="433" on="1"/>
        <pt x="989" y="401" on="1"/>
        <pt x="328" y="762" on="1"/>
        <pt x="986" y="1125" on="1"/>
        <pt x="1007" y="1094" on="1"/>
        <pt x="607" y="802" on="1"/>
        <pt x="2406" y="802" on="1"/>
      </contour>
    </TTGlyph>
    <TTGlyph name="arrowright" xMin="328" yMin="401" xMax="2406" yMax="1125">
      <contour>
        <pt x="2406" y="762" on="1"/>
        <pt x="1747" y="401" on="1"/>
        <pt x="1727" y="433" on="1"/>
        <pt x="2129" y="725" on="1"/>
        <pt x="328" y="725" on="1"/>
        <pt x="328" y="802" on="1"/>
        <pt x="2129" y="802" on="1"/>
        <pt x="1727" y="1094" on="1"/>
        <pt x="1749" y="1125" on="1"/>
      </contour>
    </TTGlyph>
    <TTGlyph name="arrowup" xMin="246" yMin="-391" xMax="968" yMax="1689">
      <contour>
        <pt x="571" y="-391" on="1"/>
        <pt x="571" y="1410" on="1"/>
        <pt x="279" y="1009" on="1"/>
        <pt x="246" y="1028" on="1"/>
        <pt x="607" y="1689" on="1"/>
        <pt x="968" y="1030" on="1"/>
        <pt x="938" y="1009" on="1"/>
        <pt x="646" y="1410" on="1"/>
        <pt x="646" y="-391" on="1"/>
      </contour>
    </TTGlyph>
    <TTGlyph name="asciicircum" xMin="29" yMin="599" xMax="954" yMax="1417">
      <contour>
        <pt x="954" y="682" on="1"/>
        <pt x="824" y="599" on="1"/>
        <pt x="562" y="1244" on="1"/>
        <pt x="539" y="1244" on="1"/>
        <pt x="142" y="599" on="1"/>
        <pt x="29" y="682" on="1"/>
        <pt x="528" y="1417" on="1"/>
        <pt x="611" y="1417" on="1"/>
      </contour>
    </TTGlyph>
    <TTGlyph name="asciitilde" xMin="44" yMin="552" xMax="1042" yMax="919">
      <contour>
        <pt x="1042" y="864" on="1"/>
        <pt x="876" y="626" on="0"/>
        <pt x="697" y="626" on="1"/>
        <pt x="632" y="626" on="0"/>
        <pt x="425" y="708" on="0"/>
        <pt x="364" y="708" on="1"/>
        <pt x="251" y="708" on="0"/>
        <pt x="129" y="552" on="1"/>
        <pt x="44" y="607" on="1"/>
        <pt x="210" y="872" on="0"/>
        <pt x="389" y="872" on="1"/>
        <pt x="454" y="872" on="0"/>
        <pt x="687" y="789" on="0"/>
        <pt x="748" y="789" on="1"/>
        <pt x="861" y="789" on="0"/>
        <pt x="955" y="919" on="1"/>
      </contour>
    </TTGlyph>
    <TTGlyph name="asterisk" xMin="125" yMin="599" xMax="922" yMax="1434">
      <contour>
        <pt x="922" y="1058" on="1"/>
        <pt x="922" y="996" on="0"/>
        <pt x="841" y="978" on="1"/>
        <pt x="807" y="971" on="0"/>
        <pt x="707" y="971" on="1"/>
        <pt x="667" y="971" on="0"/>
        <pt x="579" y="979" on="1"/>
        <pt x="571" y="959" on="1"/>
        <pt x="753" y="778" on="0"/>
        <pt x="753" y="721" on="1"/>
        <pt x="753" y="679" on="0"/>
        <pt x="657" y="599" on="0"/>
        <pt x="616" y="599" on="1"/>
        <pt x="538" y="599" on="0"/>
        <pt x="505" y="917" on="1"/>
        <pt x="484" y="917" on="1"/>
        <pt x="348" y="628" on="0"/>
        <pt x="280" y="628" on="1"/>
        <pt x="240" y="628" on="0"/>
        <pt x="164" y="699" on="0"/>
        <pt x="164" y="740" on="1"/>
        <pt x="164" y="812" on="0"/>
        <pt x="432" y="965" on="1"/>
        <pt x="428" y="988" on="1"/>
        <pt x="323" y="997" on="0"/>
        <pt x="160" y="1029" on="1"/>
        <pt x="125" y="1036" on="0"/>
        <pt x="125" y="1103" on="1"/>
        <pt x="125" y="1151" on="0"/>
        <pt x="154" y="1189" on="1"/>
        <pt x="182" y="1233" on="0"/>
        <pt x="220" y="1233" on="1"/>
        <pt x="275" y="1233" on="0"/>
        <pt x="463" y="1060" on="1"/>
        <pt x="482" y="1072" on="1"/>
        <pt x="462" y="1245" on="0"/>
        <pt x="462" y="1330" on="1"/>
        <pt x="462" y="1351" on="0"/>
        <pt x="463" y="1364" on="1"/>
        <pt x="466" y="1395" on="0"/>
        <pt x="503" y="1415" on="1"/>
        <pt x="537" y="1434" on="0"/>
        <pt x="579" y="1434" on="1"/>
        <pt x="666" y="1434" on="0"/>
        <pt x="666" y="1364" on="1"/>
        <pt x="666" y="1285" on="0"/>
        <pt x="554" y="1068" on="1"/>
        <pt x="569" y="1052" on="1"/>
        <pt x="791" y="1192" on="0"/>
        <pt x="848" y="1192" on="1"/>
        <pt x="883" y="1192" on="0"/>
        <pt x="905" y="1143" on="1"/>
        <pt x="922" y="1104" on="0"/>
      </contour>
    </TTGlyph>
    <TTGlyph name="at" xMin="178" yMin="-355" xMax="1924" yMax="1595">
      <contour>
        <pt x="1924" y="812" on="1"/>
        <pt x="1924" y="534" on="0"/>
        <pt x="1640" y="91" on="0"/>
        <pt x="1408" y="91" on="1"/>
        <pt x="1309" y="91" on="0"/>
        <pt x="1184" y="206" on="0"/>
        <pt x="1184" y="308" on="1"/>
        <pt x="1184" y="318" on="0"/>
        <pt x="1187" y="343" on="1"/>
        <pt x="1178" y="343" on="1"/>
        <pt x="1044" y="91" on="0"/>
        <pt x="846" y="91" on="1"/>
        <pt x="739" y="91" on="0"/>
        <pt x="627" y="286" on="0"/>
        <pt x="627" y="428" on="1"/>
        <pt x="627" y="673" on="0"/>
        <pt x="921" y="1099" on="0"/>
        <pt x="1158" y="1099" on="1"/>
        <pt x="1293" y="1099" on="0"/>
        <pt x="1333" y="1008" on="1"/>
        <pt x="1344" y="1008" on="1"/>
        <pt x="1366" y="1070" on="1"/>
        <pt x="1490" y="1091" on="1"/>
        <pt x="1425" y="854" on="0"/>
        <pt x="1350" y="515" on="1"/>
        <pt x="1339" y="458" on="0"/>
        <pt x="1339" y="407" on="1"/>
        <pt x="1339" y="227" on="0"/>
        <pt x="1484" y="227" on="1"/>
        <pt x="1603" y="227" on="0"/>
        <pt x="1761" y="613" on="0"/>
        <pt x="1761" y="800" on="1"/>
        <pt x="1761" y="1069" on="0"/>
        <pt x="1460" y="1440" on="0"/>
        <pt x="1135" y="1440" on="1"/>
        <pt x="780" y="1440" on="0"/>
        <pt x="333" y="852" on="0"/>
        <pt x="333" y="488" on="1"/>
        <pt x="333" y="196" on="0"/>
        <pt x="654" y="-196" on="0"/>
        <pt x="963" y="-196" on="1"/>
        <pt x="1111" y="-196" on="0"/>
        <pt x="1234" y="-151" on="1"/>
        <pt x="1236" y="-324" on="1"/>
        <pt x="1114" y="-355" on="0"/>
        <pt x="943" y="-355" on="1"/>
        <pt x="571" y="-355" on="0"/>
        <pt x="178" y="141" on="0"/>
        <pt x="178" y="496" on="1"/>
        <pt x="178" y="931" on="0"/>
        <pt x="716" y="1595" on="0"/>
        <pt x="1147" y="1595" on="1"/>
        <pt x="1535" y="1595" on="0"/>
        <pt x="1924" y="1132" on="0"/>
      </contour>
      <contour>
        <pt x="1292" y="897" on="1"/>
        <pt x="1254" y="955" on="0"/>
        <pt x="1154" y="955" on="1"/>
        <pt x="991" y="955" on="0"/>
        <pt x="782" y="612" on="0"/>
        <pt x="782" y="438" on="1"/>
        <pt x="782" y="236" on="0"/>
        <pt x="914" y="236" on="1"/>
        <pt x="1021" y="236" on="0"/>
        <pt x="1263" y="620" on="0"/>
      </contour>
    </TTGlyph>
    <TTGlyph name="b" xMin="96" yMin="-27" xMax="1020" yMax="1417">
      <contour>
        <pt x="1020" y="595" on="1"/>
        <pt x="1020" y="325" on="0"/>
        <pt x="745" y="-27" on="0"/>
        <pt x="510" y="-27" on="1"/>
        <pt x="351" y="-27" on="0"/>
        <pt x="272" y="39" on="1"/>
        <pt x="264" y="39" on="1"/>
        <pt x="237" y="0" on="1"/>
        <pt x="96" y="-10" on="1"/>
        <pt x="109" y="82" on="0"/>
        <pt x="183" y="746" on="1"/>
        <pt x="225" y="1146" on="0"/>
        <pt x="225" y="1407" on="1"/>
        <pt x="415" y="1417" on="1"/>
        <pt x="415" y="1381" on="0"/>
        <pt x="397" y="1264" on="1"/>
        <pt x="371" y="1091" on="0"/>
        <pt x="349" y="872" on="1"/>
        <pt x="344" y="822" on="0"/>
        <pt x="332" y="738" on="1"/>
        <pt x="340" y="738" on="1"/>
        <pt x="472" y="981" on="0"/>
        <pt x="702" y="981" on="1"/>
        <pt x="844" y="981" on="0"/>
        <pt x="1020" y="772" on="0"/>
      </contour>
      <contour>
        <pt x="849" y="535" on="1"/>
        <pt x="849" y="843" on="0"/>
        <pt x="632" y="843" on="1"/>
        <pt x="523" y="843" on="0"/>
        <pt x="316" y="569" on="0"/>
        <pt x="300" y="386" on="1"/>
        <pt x="280" y="159" on="1"/>
        <pt x="377" y="101" on="0"/>
        <pt x="468" y="101" on="1"/>
        <pt x="658" y="101" on="0"/>
        <pt x="849" y="343" on="0"/>
      </contour>
    </TTGlyph>
    <TTGlyph name="b.fina" xMin="0" yMin="-367" xMax="3179" yMax="1287">
      <contour>
        <pt x="362" y="637" on="1"/>
        <pt x="380" y="574" on="0"/>
        <pt x="403" y="553" on="1"/>
        <pt x="463" y="465" on="0"/>
        <pt x="565" y="424" on="1"/>
        <pt x="604" y="417" on="0"/>
        <pt x="671" y="422" on="1"/>
        <pt x="716" y="433" on="0"/>
        <pt x="754" y="507" on="1"/>
        <pt x="754" y="604" on="1"/>
        <pt x="754" y="625" on="0"/>
        <pt x="699" y="637" on="1"/>
      </contour>
      <contour>
        <pt x="109" y="835" on="1"/>
        <pt x="182" y="903" on="0"/>
        <pt x="247" y="998" on="1"/>
        <pt x="337" y="1085" on="1"/>
        <pt x="470" y="1221" on="0"/>
        <pt x="606" y="1258" on="1"/>
        <pt x="726" y="1287" on="0"/>
        <pt x="832" y="1258" on="1"/>
        <pt x="1021" y="1190" on="0"/>
        <pt x="1161" y="1089" on="1"/>
        <pt x="1652" y="750" on="0"/>
        <pt x="2871" y="-35" on="1"/>
        <pt x="2907" y="-63" on="0"/>
        <pt x="2967" y="-113" on="0"/>
        <pt x="3055" y="-164" on="0"/>
        <pt x="3161" y="-229" on="1"/>
        <pt x="3179" y="-266" on="0"/>
        <pt x="3156" y="-316" on="1"/>
        <pt x="3136" y="-360" on="0"/>
        <pt x="3068" y="-367" on="1"/>
        <pt x="3030" y="-367" on="0"/>
        <pt x="2947" y="-296" on="0"/>
        <pt x="2847" y="-288" on="1"/>
        <pt x="2735" y="-335" on="0"/>
        <pt x="2690" y="-335" on="1"/>
        <pt x="2642" y="-333" on="0"/>
        <pt x="2654" y="-293" on="1"/>
        <pt x="2671" y="-252" on="0"/>
        <pt x="2700" y="-220" on="1"/>
        <pt x="2733" y="-187" on="0"/>
        <pt x="2762" y="-177" on="0"/>
        <pt x="2779" y="-155" on="1"/>
        <pt x="2790" y="-136" on="0"/>
        <pt x="2750" y="-114" on="1"/>
        <pt x="1763" y="522" on="0"/>
        <pt x="1096" y="932" on="0"/>
        <pt x="967" y="1003" on="0"/>
        <pt x="830" y="1062" on="0"/>
        <pt x="759" y="1074" on="1"/>
        <pt x="694" y="1083" on="0"/>
        <pt x="620" y="1083" on="1"/>
        <pt x="536" y="1063" on="0"/>
        <pt x="468" y="1027" on="0"/>
        <pt x="463" y="1027" on="1"/>
        <pt x="436" y="995" on="1"/>
        <pt x="381" y="940" on="0"/>
        <pt x="362" y="889" on="1"/>
        <pt x="358" y="857" on="0"/>
        <pt x="365" y="835" on="1"/>
        <pt x="845" y="835" on="1"/>
        <pt x="909" y="812" on="0"/>
        <pt x="933" y="738" on="1"/>
        <pt x="945" y="654" on="0"/>
        <pt x="933" y="572" on="1"/>
        <pt x="937" y="572" on="0"/>
        <pt x="940" y="570" on="1"/>
        <pt x="863" y="365" on="0"/>
        <pt x="690" y="265" on="1"/>
        <pt x="598" y="237" on="0"/>
        <pt x="477" y="270" on="1"/>
        <pt x="320" y="367" on="0"/>
        <pt x="234" y="461" on="1"/>
        <pt x="124" y="577" on="0"/>
        <pt x="109" y="637" on="1"/>
        <pt x="0" y="637" on="1"/>
        <pt x="0" y="835" on="1"/>
      </contour>
    </TTGlyph>
    <TTGlyph name="b.init" xMin="0" yMin="246" xMax="1332" yMax="1297">
      <component glyphName="b.isol" x="0" y="0" flags="0x1000"/>
    </TTGlyph>
    <TTGlyph name="b.isol" xMin="0" yMin="246" xMax="1332" yMax="1297">
      <contour>
        <pt x="1332" y="615" on="0"/>
        <pt x="1179" y="637" on="0"/>
        <pt x="1143" y="683" on="1"/>
        <pt x="912" y="878" on="1"/>
        <pt x="865" y="916" on="0"/>
        <pt x="700" y="1030" on="1"/>
        <pt x="645" y="1067" on="1"/>
        <pt x="544" y="1108" on="1"/>
        <pt x="479" y="1108" on="1"/>
        <pt x="460" y="1104" on="0"/>
        <pt x="387" y="1083" on="0"/>
        <pt x="318" y="1044" on="0"/>
        <pt x="219" y="911" on="0"/>
        <pt x="212" y="841" on="1"/>
        <pt x="212" y="832" on="0"/>
        <pt x="290" y="835" on="1"/>
        <pt x="686" y="835" on="1"/>
        <pt x="741" y="838" on="0"/>
        <pt x="783" y="805" on="1"/>
        <pt x="882" y="756" on="0"/>
        <pt x="894" y="606" on="1"/>
        <pt x="900" y="470" on="0"/>
        <pt x="838" y="394" on="1"/>
        <pt x="800" y="331" on="0"/>
        <pt x="681" y="251" on="1"/>
        <pt x="590" y="246" on="1"/>
        <pt x="453" y="260" on="0"/>
        <pt x="350" y="309" on="1"/>
        <pt x="253" y="374" on="0"/>
        <pt x="171" y="478" on="0"/>
        <pt x="120" y="533" on="1"/>
        <pt x="83" y="574" on="1"/>
        <pt x="51" y="612" on="0"/>
        <pt x="0" y="731" on="1"/>
        <pt x="0" y="766" on="1"/>
        <pt x="58" y="860" on="0"/>
        <pt x="116" y="947" on="1"/>
        <pt x="157" y="1034" on="1"/>
        <pt x="253" y="1176" on="0"/>
        <pt x="405" y="1270" on="0"/>
        <pt x="410" y="1270" on="1"/>
        <pt x="493" y="1297" on="0"/>
        <pt x="521" y="1297" on="1"/>
        <pt x="554" y="1297" on="1"/>
        <pt x="599" y="1297" on="1"/>
        <pt x="643" y="1279" on="0"/>
        <pt x="727" y="1242" on="0"/>
        <pt x="783" y="1200" on="1"/>
        <pt x="857" y="1147" on="0"/>
        <pt x="1087" y="946" on="0"/>
        <pt x="1209" y="812" on="1"/>
        <pt x="1286" y="735" on="1"/>
      </contour>
      <contour>
        <pt x="251" y="637" on="1"/>
        <pt x="264" y="606" on="1"/>
        <pt x="346" y="440" on="0"/>
        <pt x="549" y="408" on="1"/>
        <pt x="669" y="397" on="0"/>
        <pt x="737" y="462" on="0"/>
        <pt x="741" y="533" on="1"/>
        <pt x="741" y="593" on="0"/>
        <pt x="667" y="637" on="1"/>
      </contour>
    </TTGlyph>
    <TTGlyph name="b.medi" xMin="0" yMin="264" xMax="1356" yMax="1280">
      <contour>
        <pt x="275" y="637" on="1"/>
        <pt x="289" y="606" on="1"/>
        <pt x="369" y="458" on="0"/>
        <pt x="572" y="425" on="1"/>
        <pt x="694" y="414" on="0"/>
        <pt x="761" y="479" on="0"/>
        <pt x="766" y="550" on="1"/>
        <pt x="766" y="593" on="0"/>
        <pt x="692" y="637" on="1"/>
      </contour>
      <contour>
        <pt x="0" y="835" on="1"/>
        <pt x="24" y="835" on="1"/>
        <pt x="83" y="860" on="0"/>
        <pt x="139" y="947" on="1"/>
        <pt x="180" y="1017" on="1"/>
        <pt x="276" y="1159" on="0"/>
        <pt x="429" y="1253" on="0"/>
        <pt x="434" y="1253" on="1"/>
        <pt x="517" y="1280" on="0"/>
        <pt x="544" y="1280" on="1"/>
        <pt x="623" y="1280" on="1"/>
        <pt x="692" y="1267" on="0"/>
        <pt x="709" y="1260" on="1"/>
        <pt x="751" y="1242" on="0"/>
        <pt x="807" y="1200" on="1"/>
        <pt x="881" y="1147" on="0"/>
        <pt x="1112" y="946" on="0"/>
        <pt x="1233" y="812" on="1"/>
        <pt x="1310" y="735" on="1"/>
        <pt x="1356" y="633" on="0"/>
        <pt x="1204" y="637" on="0"/>
        <pt x="1167" y="683" on="1"/>
        <pt x="936" y="878" on="1"/>
        <pt x="791" y="989" on="0"/>
        <pt x="669" y="1049" on="0"/>
        <pt x="568" y="1091" on="1"/>
        <pt x="503" y="1091" on="1"/>
        <pt x="485" y="1087" on="0"/>
        <pt x="412" y="1066" on="0"/>
        <pt x="342" y="1026" on="0"/>
        <pt x="243" y="911" on="0"/>
        <pt x="236" y="841" on="1"/>
        <pt x="236" y="832" on="0"/>
        <pt x="315" y="835" on="1"/>
        <pt x="710" y="835" on="1"/>
        <pt x="766" y="838" on="0"/>
        <pt x="807" y="805" on="1"/>
        <pt x="906" y="756" on="0"/>
        <pt x="918" y="606" on="1"/>
        <pt x="925" y="488" on="0"/>
        <pt x="863" y="411" on="1"/>
        <pt x="824" y="348" on="0"/>
        <pt x="706" y="269" on="1"/>
        <pt x="614" y="264" on="1"/>
        <pt x="476" y="277" on="0"/>
        <pt x="374" y="326" on="1"/>
        <pt x="277" y="392" on="0"/>
        <pt x="195" y="495" on="0"/>
        <pt x="144" y="550" on="1"/>
        <pt x="75" y="612" on="0"/>
        <pt x="24" y="637" on="1"/>
        <pt x="0" y="637" on="1"/>
      </contour>
    </TTGlyph>
    <TTGlyph name="backslash" xMin="100" yMin="-302" xMax="408" yMax="1455">
      <contour>
        <pt x="408" y="-302" on="1"/>
        <pt x="255" y="-302" on="1"/>
        <pt x="255" y="-133" on="0"/>
        <pt x="100" y="1386" on="0"/>
        <pt x="100" y="1455" on="1"/>
        <pt x="251" y="1455" on="1"/>
        <pt x="251" y="1266" on="0"/>
        <pt x="408" y="-237" on="0"/>
      </contour>
    </TTGlyph>
    <TTGlyph name="bar" xMin="175" yMin="-294" xMax="340" yMax="1773">
      <contour>
        <pt x="340" y="-294" on="1"/>
        <pt x="177" y="-294" on="1"/>
        <pt x="187" y="365" on="0"/>
        <pt x="187" y="694" on="1"/>
        <pt x="187" y="1015" on="0"/>
        <pt x="175" y="1773" on="1"/>
        <pt x="338" y="1773" on="1"/>
        <pt x="327" y="1031" on="0"/>
        <pt x="327" y="694" on="1"/>
        <pt x="327" y="365" on="0"/>
      </contour>
    </TTGlyph>
    <TTGlyph name="braceleft" xMin="39" yMin="-267" xMax="745" yMax="1744">
      <contour>
        <pt x="745" y="1620" on="1"/>
        <pt x="410" y="1571" on="0"/>
        <pt x="410" y="1321" on="1"/>
        <pt x="410" y="1270" on="0"/>
        <pt x="457" y="1021" on="0"/>
        <pt x="457" y="984" on="1"/>
        <pt x="457" y="892" on="0"/>
        <pt x="306" y="746" on="0"/>
        <pt x="214" y="746" on="1"/>
        <pt x="214" y="737" on="1"/>
        <pt x="273" y="737" on="0"/>
        <pt x="332" y="694" on="1"/>
        <pt x="410" y="638" on="0"/>
        <pt x="410" y="539" on="1"/>
        <pt x="410" y="468" on="0"/>
        <pt x="282" y="175" on="0"/>
        <pt x="282" y="106" on="1"/>
        <pt x="282" y="-67" on="0"/>
        <pt x="570" y="-139" on="1"/>
        <pt x="497" y="-267" on="1"/>
        <pt x="118" y="-184" on="0"/>
        <pt x="118" y="29" on="1"/>
        <pt x="118" y="114" on="0"/>
        <pt x="246" y="452" on="0"/>
        <pt x="246" y="525" on="1"/>
        <pt x="246" y="589" on="0"/>
        <pt x="171" y="627" on="1"/>
        <pt x="113" y="656" on="0"/>
        <pt x="39" y="661" on="1"/>
        <pt x="55" y="810" on="1"/>
        <pt x="302" y="864" on="0"/>
        <pt x="302" y="989" on="1"/>
        <pt x="302" y="1034" on="0"/>
        <pt x="260" y="1304" on="0"/>
        <pt x="260" y="1366" on="1"/>
        <pt x="260" y="1537" on="0"/>
        <pt x="409" y="1641" on="1"/>
        <pt x="534" y="1728" on="0"/>
        <pt x="721" y="1744" on="1"/>
      </contour>
    </TTGlyph>
    <TTGlyph name="braceright" xMin="-78" yMin="-270" xMax="629" yMax="1741">
      <contour>
        <pt x="629" y="813" on="1"/>
        <pt x="615" y="664" on="1"/>
        <pt x="372" y="615" on="0"/>
        <pt x="372" y="481" on="1"/>
        <pt x="372" y="436" on="0"/>
        <pt x="408" y="169" on="0"/>
        <pt x="408" y="106" on="1"/>
        <pt x="408" y="-61" on="0"/>
        <pt x="263" y="-163" on="1"/>
        <pt x="143" y="-247" on="0"/>
        <pt x="-47" y="-270" on="1"/>
        <pt x="-78" y="-144" on="1"/>
        <pt x="250" y="-88" on="0"/>
        <pt x="250" y="150" on="1"/>
        <pt x="250" y="199" on="0"/>
        <pt x="213" y="449" on="0"/>
        <pt x="213" y="488" on="1"/>
        <pt x="213" y="579" on="0"/>
        <pt x="360" y="728" on="0"/>
        <pt x="453" y="728" on="1"/>
        <pt x="455" y="734" on="1"/>
        <pt x="397" y="734" on="0"/>
        <pt x="338" y="779" on="1"/>
        <pt x="260" y="838" on="0"/>
        <pt x="260" y="937" on="1"/>
        <pt x="260" y="1000" on="0"/>
        <pt x="378" y="1301" on="0"/>
        <pt x="378" y="1365" on="1"/>
        <pt x="378" y="1551" on="0"/>
        <pt x="106" y="1615" on="1"/>
        <pt x="168" y="1741" on="1"/>
        <pt x="549" y="1672" on="0"/>
        <pt x="549" y="1441" on="1"/>
        <pt x="549" y="1367" on="0"/>
        <pt x="419" y="1000" on="0"/>
        <pt x="419" y="950" on="1"/>
        <pt x="419" y="886" on="0"/>
        <pt x="496" y="848" on="1"/>
        <pt x="554" y="819" on="0"/>
      </contour>
    </TTGlyph>
    <TTGlyph name="bracketleft" xMin="82" yMin="-364" xMax="749" yMax="1641">
      <contour>
        <pt x="749" y="1641" on="1"/>
        <pt x="721" y="1469" on="1"/>
        <pt x="513" y="1475" on="0"/>
        <pt x="441" y="1475" on="1"/>
        <pt x="362" y="848" on="0"/>
        <pt x="336" y="591" on="1"/>
        <pt x="321" y="452" on="0"/>
        <pt x="260" y="-209" on="1"/>
        <pt x="330" y="-207" on="0"/>
        <pt x="556" y="-190" on="1"/>
        <pt x="528" y="-364" on="1"/>
        <pt x="82" y="-353" on="1"/>
        <pt x="161" y="259" on="0"/>
        <pt x="194" y="591" on="1"/>
        <pt x="215" y="795" on="0"/>
        <pt x="291" y="1628" on="1"/>
      </contour>
    </TTGlyph>
    <TTGlyph name="bracketright" xMin="-92" yMin="-366" xMax="575" yMax="1639">
      <contour>
        <pt x="575" y="1628" on="1"/>
        <pt x="482" y="870" on="0"/>
        <pt x="463" y="684" on="1"/>
        <pt x="442" y="481" on="0"/>
        <pt x="366" y="-353" on="1"/>
        <pt x="-92" y="-366" on="1"/>
        <pt x="-64" y="-192" on="1"/>
        <pt x="146" y="-198" on="0"/>
        <pt x="222" y="-198" on="1"/>
        <pt x="306" y="516" on="0"/>
        <pt x="322" y="684" on="1"/>
        <pt x="337" y="823" on="0"/>
        <pt x="398" y="1486" on="1"/>
        <pt x="328" y="1484" on="0"/>
        <pt x="101" y="1467" on="1"/>
        <pt x="129" y="1639" on="1"/>
      </contour>
    </TTGlyph>
    <TTGlyph name="c" xMin="86" yMin="-27" xMax="824" yMax="973">
      <contour>
        <pt x="824" y="957" on="1"/>
        <pt x="783" y="800" on="1"/>
        <pt x="687" y="831" on="0"/>
        <pt x="584" y="831" on="1"/>
        <pt x="434" y="831" on="0"/>
        <pt x="253" y="598" on="0"/>
        <pt x="253" y="440" on="1"/>
        <pt x="253" y="295" on="0"/>
        <pt x="380" y="116" on="0"/>
        <pt x="504" y="116" on="1"/>
        <pt x="635" y="116" on="0"/>
        <pt x="780" y="208" on="1"/>
        <pt x="755" y="60" on="1"/>
        <pt x="652" y="-27" on="0"/>
        <pt x="471" y="-27" on="1"/>
        <pt x="279" y="-27" on="0"/>
        <pt x="177" y="109" on="1"/>
        <pt x="86" y="228" on="0"/>
        <pt x="86" y="417" on="1"/>
        <pt x="86" y="647" on="0"/>
        <pt x="385" y="973" on="0"/>
        <pt x="642" y="973" on="1"/>
        <pt x="755" y="973" on="0"/>
      </contour>
    </TTGlyph>
    <TTGlyph name="c.fina" xMin="0" yMin="162" xMax="772" yMax="835">
      <component glyphName="c.medi" x="0" y="0" flags="0x1000"/>
    </TTGlyph>
    <TTGlyph name="c.init" xMin="0" yMin="191" xMax="1529" yMax="880">
      <component glyphName="c.isol" x="0" y="0" flags="0x1000"/>
    </TTGlyph>
    <TTGlyph name="c.isol" xMin="0" yMin="191" xMax="1529" yMax="880">
      <contour>
        <pt x="1529" y="835" on="1"/>
        <pt x="1529" y="637" on="1"/>
        <pt x="1272" y="637" on="1"/>
        <pt x="1268" y="592" on="1"/>
        <pt x="1290" y="544" on="0"/>
        <pt x="1338" y="471" on="0"/>
        <pt x="1410" y="412" on="1"/>
        <pt x="1474" y="366" on="1"/>
        <pt x="1502" y="324" on="1"/>
        <pt x="1502" y="310" on="1"/>
        <pt x="1502" y="247" on="0"/>
        <pt x="1451" y="210" on="1"/>
        <pt x="1420" y="191" on="0"/>
        <pt x="1410" y="191" on="1"/>
        <pt x="1396" y="191" on="1"/>
        <pt x="1360" y="195" on="0"/>
        <pt x="1309" y="237" on="1"/>
        <pt x="1251" y="310" on="0"/>
        <pt x="1042" y="334" on="0"/>
        <pt x="995" y="334" on="1"/>
        <pt x="908" y="310" on="1"/>
        <pt x="755" y="226" on="0"/>
        <pt x="737" y="210" on="1"/>
        <pt x="673" y="210" on="0"/>
        <pt x="673" y="278" on="1"/>
        <pt x="673" y="292" on="1"/>
        <pt x="707" y="341" on="0"/>
        <pt x="756" y="361" on="1"/>
        <pt x="834" y="399" on="1"/>
        <pt x="1095" y="486" on="1"/>
        <pt x="1106" y="486" on="0"/>
        <pt x="1106" y="527" on="1"/>
        <pt x="1067" y="597" on="0"/>
        <pt x="1036" y="634" on="0"/>
        <pt x="1018" y="634" on="1"/>
        <pt x="590" y="652" on="0"/>
        <pt x="459" y="639" on="0"/>
        <pt x="132" y="604" on="1"/>
        <pt x="2" y="654" on="0"/>
        <pt x="0" y="712" on="1"/>
        <pt x="9" y="734" on="1"/>
        <pt x="43" y="772" on="0"/>
        <pt x="127" y="866" on="0"/>
        <pt x="216" y="880" on="1"/>
        <pt x="346" y="854" on="1"/>
        <pt x="640" y="835" on="1"/>
      </contour>
    </TTGlyph>
    <TTGlyph name="c.medi" xMin="0" yMin="162" xMax="772" yMax="835">
      <contour>
        <pt x="0" y="835" on="1"/>
        <pt x="772" y="835" on="1"/>
        <pt x="772" y="637" on="1"/>
        <pt x="552" y="637" on="1"/>
        <pt x="511" y="639" on="0"/>
        <pt x="505" y="628" on="1"/>
        <pt x="519" y="573" on="0"/>
        <pt x="579" y="448" on="1"/>
        <pt x="596" y="423" on="0"/>
        <pt x="634" y="378" on="1"/>
        <pt x="690" y="329" on="0"/>
        <pt x="740" y="291" on="0"/>
        <pt x="740" y="229" on="0"/>
        <pt x="694" y="190" on="0"/>
        <pt x="653" y="162" on="1"/>
        <pt x="611" y="162" on="1"/>
        <pt x="544" y="187" on="0"/>
        <pt x="505" y="231" on="1"/>
        <pt x="480" y="253" on="0"/>
        <pt x="422" y="319" on="0"/>
        <pt x="376" y="328" on="1"/>
        <pt x="331" y="327" on="0"/>
        <pt x="293" y="301" on="1"/>
        <pt x="215" y="231" on="1"/>
        <pt x="173" y="176" on="0"/>
        <pt x="150" y="176" on="1"/>
        <pt x="90" y="204" on="0"/>
        <pt x="81" y="236" on="1"/>
        <pt x="81" y="258" on="0"/>
        <pt x="189" y="392" on="0"/>
        <pt x="280" y="438" on="1"/>
        <pt x="334" y="463" on="0"/>
        <pt x="351" y="479" on="0"/>
        <pt x="344" y="531" on="1"/>
        <pt x="339" y="554" on="0"/>
        <pt x="309" y="618" on="0"/>
        <pt x="290" y="637" on="1"/>
        <pt x="0" y="637" on="1"/>
      </contour>
    </TTGlyph>
    <TTGlyph name="ch.fina" xMin="-34" yMin="162" xMax="771" yMax="1287">
      <component glyphName="ch.medi" x="0" y="0" flags="0x1000"/>
    </TTGlyph>
    <TTGlyph name="ch.init" xMin="0" yMin="191" xMax="1529" yMax="1287">
      <component glyphName="ch.isol" x="0" y="0" flags="0x1000"/>
    </TTGlyph>
    <TTGlyph name="ch.isol" xMin="0" yMin="191" xMax="1529" yMax="1287">
      <contour>
        <pt x="958" y="1135" on="1"/>
        <pt x="915" y="1129" on="1"/>
        <pt x="891" y="1107" on="1"/>
        <pt x="891" y="1093" on="1"/>
        <pt x="933" y="1039" on="0"/>
        <pt x="954" y="1012" on="1"/>
        <pt x="995" y="960" on="0"/>
        <pt x="1024" y="957" on="1"/>
        <pt x="1099" y="948" on="0"/>
        <pt x="1126" y="1037" on="1"/>
        <pt x="1111" y="1099" on="0"/>
        <pt x="1035" y="1126" on="1"/>
        <pt x="989" y="1135" on="1"/>
      </contour>
      <contour>
        <pt x="1087" y="835" on="1"/>
        <pt x="1529" y="835" on="1"/>
        <pt x="1529" y="637" on="1"/>
        <pt x="1272" y="637" on="1"/>
        <pt x="1268" y="592" on="1"/>
        <pt x="1290" y="544" on="0"/>
        <pt x="1338" y="471" on="0"/>
        <pt x="1410" y="412" on="1"/>
        <pt x="1474" y="366" on="1"/>
        <pt x="1502" y="324" on="1"/>
        <pt x="1502" y="310" on="1"/>
        <pt x="1502" y="247" on="0"/>
        <pt x="1451" y="210" on="1"/>
        <pt x="1420" y="191" on="0"/>
        <pt x="1410" y="191" on="1"/>
        <pt x="1396" y="191" on="1"/>
        <pt x="1360" y="195" on="0"/>
        <pt x="1309" y="237" on="1"/>
        <pt x="1251" y="310" on="0"/>
        <pt x="1042" y="334" on="0"/>
        <pt x="995" y="334" on="1"/>
        <pt x="908" y="310" on="1"/>
        <pt x="755" y="226" on="0"/>
        <pt x="737" y="210" on="1"/>
        <pt x="673" y="210" on="0"/>
        <pt x="673" y="278" on="1"/>
        <pt x="673" y="292" on="1"/>
        <pt x="707" y="341" on="0"/>
        <pt x="756" y="361" on="1"/>
        <pt x="834" y="399" on="1"/>
        <pt x="1095" y="486" on="1"/>
        <pt x="1106" y="486" on="0"/>
        <pt x="1106" y="527" on="1"/>
        <pt x="1067" y="597" on="0"/>
        <pt x="1036" y="634" on="0"/>
        <pt x="1018" y="634" on="1"/>
        <pt x="590" y="652" on="0"/>
        <pt x="459" y="639" on="0"/>
        <pt x="132" y="604" on="1"/>
        <pt x="2" y="654" on="0"/>
        <pt x="0" y="712" on="1"/>
        <pt x="9" y="734" on="1"/>
        <pt x="43" y="772" on="0"/>
        <pt x="127" y="866" on="0"/>
        <pt x="216" y="880" on="1"/>
        <pt x="346" y="854" on="1"/>
        <pt x="640" y="835" on="1"/>
        <pt x="970" y="835" on="1"/>
        <pt x="951" y="866" on="1"/>
        <pt x="838" y="929" on="0"/>
        <pt x="761" y="993" on="1"/>
        <pt x="738" y="1022" on="0"/>
        <pt x="759" y="1056" on="1"/>
        <pt x="731" y="1117" on="0"/>
        <pt x="834" y="1184" on="1"/>
        <pt x="923" y="1241" on="1"/>
        <pt x="930" y="1241" on="0"/>
        <pt x="1041" y="1287" on="0"/>
        <pt x="1112" y="1271" on="1"/>
        <pt x="1146" y="1263" on="0"/>
        <pt x="1178" y="1241" on="1"/>
        <pt x="1258" y="1188" on="0"/>
        <pt x="1280" y="1126" on="1"/>
        <pt x="1299" y="1072" on="0"/>
        <pt x="1241" y="1012" on="1"/>
        <pt x="1186" y="952" on="0"/>
        <pt x="1105" y="875" on="0"/>
        <pt x="1101" y="875" on="1"/>
        <pt x="1089" y="862" on="0"/>
      </contour>
    </TTGlyph>
    <TTGlyph name="ch.medi" xMin="-34" yMin="162" xMax="771" yMax="1287">
      <contour>
        <pt x="192" y="1135" on="1"/>
        <pt x="151" y="1129" on="1"/>
        <pt x="127" y="1107" on="1"/>
        <pt x="127" y="1093" on="1"/>
        <pt x="169" y="1039" on="0"/>
        <pt x="190" y="1012" on="1"/>
        <pt x="231" y="960" on="0"/>
        <pt x="260" y="957" on="1"/>
        <pt x="333" y="948" on="0"/>
        <pt x="361" y="1037" on="1"/>
        <pt x="346" y="1099" on="0"/>
        <pt x="270" y="1126" on="1"/>
        <pt x="223" y="1135" on="1"/>
      </contour>
      <contour>
        <pt x="208" y="835" on="1"/>
        <pt x="187" y="866" on="1"/>
        <pt x="73" y="929" on="0"/>
        <pt x="-4" y="993" on="1"/>
        <pt x="-27" y="1022" on="0"/>
        <pt x="-5" y="1056" on="1"/>
        <pt x="-34" y="1117" on="0"/>
        <pt x="69" y="1184" on="1"/>
        <pt x="159" y="1241" on="1"/>
        <pt x="165" y="1241" on="0"/>
        <pt x="277" y="1287" on="0"/>
        <pt x="347" y="1271" on="1"/>
        <pt x="380" y="1263" on="0"/>
        <pt x="414" y="1241" on="1"/>
        <pt x="493" y="1188" on="0"/>
        <pt x="515" y="1126" on="1"/>
        <pt x="534" y="1072" on="0"/>
        <pt x="477" y="1012" on="1"/>
        <pt x="421" y="952" on="0"/>
        <pt x="340" y="875" on="0"/>
        <pt x="337" y="875" on="1"/>
        <pt x="323" y="861" on="0"/>
        <pt x="322" y="835" on="1"/>
        <pt x="771" y="835" on="1"/>
        <pt x="771" y="637" on="1"/>
        <pt x="551" y="637" on="1"/>
        <pt x="511" y="639" on="0"/>
        <pt x="505" y="628" on="1"/>
        <pt x="520" y="573" on="0"/>
        <pt x="579" y="448" on="1"/>
        <pt x="597" y="423" on="0"/>
        <pt x="634" y="378" on="1"/>
        <pt x="691" y="329" on="0"/>
        <pt x="740" y="291" on="0"/>
        <pt x="740" y="229" on="0"/>
        <pt x="694" y="190" on="0"/>
        <pt x="653" y="162" on="1"/>
        <pt x="611" y="162" on="1"/>
        <pt x="545" y="187" on="0"/>
        <pt x="505" y="231" on="1"/>
        <pt x="480" y="253" on="0"/>
        <pt x="423" y="319" on="0"/>
        <pt x="377" y="328" on="1"/>
        <pt x="332" y="327" on="0"/>
        <pt x="293" y="301" on="1"/>
        <pt x="215" y="231" on="1"/>
        <pt x="173" y="176" on="0"/>
        <pt x="151" y="176" on="1"/>
        <pt x="91" y="204" on="0"/>
        <pt x="82" y="236" on="1"/>
        <pt x="82" y="258" on="0"/>
        <pt x="190" y="392" on="0"/>
        <pt x="280" y="438" on="1"/>
        <pt x="333" y="463" on="0"/>
        <pt x="351" y="479" on="0"/>
        <pt x="344" y="531" on="1"/>
        <pt x="339" y="554" on="0"/>
        <pt x="310" y="618" on="0"/>
        <pt x="291" y="637" on="1"/>
        <pt x="0" y="637" on="1"/>
        <pt x="0" y="835" on="1"/>
      </contour>
    </TTGlyph>
    <TTGlyph name="colon" xMin="57" yMin="-2" xMax="389" yMax="957">
      <contour>
        <pt x="317" y="165" on="1"/>
        <pt x="317" y="97" on="0"/>
        <pt x="228" y="-2" on="0"/>
        <pt x="160" y="-2" on="1"/>
        <pt x="57" y="-2" on="0"/>
        <pt x="57" y="112" on="1"/>
        <pt x="57" y="180" on="0"/>
        <pt x="146" y="275" on="0"/>
        <pt x="214" y="275" on="1"/>
        <pt x="317" y="275" on="0"/>
      </contour>
      <contour>
        <pt x="389" y="847" on="1"/>
        <pt x="389" y="779" on="0"/>
        <pt x="300" y="680" on="0"/>
        <pt x="232" y="680" on="1"/>
        <pt x="129" y="680" on="0"/>
        <pt x="129" y="794" on="1"/>
        <pt x="129" y="862" on="0"/>
        <pt x="218" y="957" on="0"/>
        <pt x="286" y="957" on="1"/>
        <pt x="389" y="957" on="0"/>
      </contour>
    </TTGlyph>
    <TTGlyph name="colon.vrt2" xMin="492" yMin="588" xMax="1547" yMax="918">
      <contour>
        <pt x="709" y="901" on="1"/>
        <pt x="781" y="894" on="0"/>
        <pt x="816" y="848" on="0"/>
        <pt x="821" y="800" on="1"/>
        <pt x="800" y="719" on="0"/>
        <pt x="749" y="669" on="1"/>
        <pt x="693" y="622" on="0"/>
        <pt x="622" y="611" on="1"/>
        <pt x="554" y="611" on="0"/>
        <pt x="492" y="698" on="1"/>
        <pt x="492" y="752" on="1"/>
        <pt x="545" y="800" on="1"/>
        <pt x="586" y="829" on="0"/>
        <pt x="599" y="848" on="1"/>
        <pt x="648" y="896" on="0"/>
        <pt x="695" y="901" on="0"/>
      </contour>
      <contour>
        <pt x="1425" y="918" on="1"/>
        <pt x="1468" y="910" on="0"/>
        <pt x="1511" y="880" on="0"/>
        <pt x="1532" y="846" on="1"/>
        <pt x="1547" y="816" on="0"/>
        <pt x="1532" y="758" on="1"/>
        <pt x="1498" y="696" on="1"/>
        <pt x="1470" y="658" on="0"/>
        <pt x="1401" y="613" on="1"/>
        <pt x="1359" y="588" on="0"/>
        <pt x="1290" y="599" on="1"/>
        <pt x="1223" y="643" on="0"/>
        <pt x="1203" y="710" on="1"/>
        <pt x="1206" y="744" on="0"/>
        <pt x="1223" y="768" on="1"/>
        <pt x="1307" y="865" on="0"/>
        <pt x="1396" y="918" on="1"/>
      </contour>
    </TTGlyph>
    <TTGlyph name="combiningcaron" xMin="212" yMin="1010" xMax="823" yMax="1432">
      <contour>
        <pt x="823" y="1432" on="1"/>
        <pt x="823" y="1400" on="0"/>
        <pt x="615" y="1156" on="0"/>
        <pt x="459" y="1010" on="1"/>
        <pt x="454" y="1010" on="1"/>
        <pt x="419" y="1080" on="1"/>
        <pt x="378" y="1141" on="0"/>
        <pt x="212" y="1409" on="0"/>
        <pt x="212" y="1424" on="1"/>
        <pt x="370" y="1432" on="1"/>
        <pt x="370" y="1413" on="0"/>
        <pt x="467" y="1201" on="0"/>
        <pt x="499" y="1152" on="1"/>
        <pt x="505" y="1152" on="1"/>
        <pt x="546" y="1197" on="0"/>
        <pt x="677" y="1404" on="0"/>
        <pt x="677" y="1424" on="1"/>
      </contour>
    </TTGlyph>
    <TTGlyph name="comma" xMin="-47" yMin="-368" xMax="323" yMax="275">
      <contour>
        <pt x="323" y="143" on="1"/>
        <pt x="323" y="-99" on="0"/>
        <pt x="-1" y="-368" on="1"/>
        <pt x="-47" y="-310" on="1"/>
        <pt x="46" y="-211" on="0"/>
        <pt x="81" y="-128" on="1"/>
        <pt x="103" y="-76" on="0"/>
        <pt x="112" y="14" on="1"/>
        <pt x="63" y="43" on="0"/>
        <pt x="63" y="116" on="1"/>
        <pt x="63" y="182" on="0"/>
        <pt x="156" y="275" on="0"/>
        <pt x="222" y="275" on="1"/>
        <pt x="272" y="275" on="0"/>
        <pt x="299" y="232" on="1"/>
        <pt x="323" y="196" on="0"/>
      </contour>
      <contour>
        <pt x="180" y="-2" on="1"/>
      </contour>
    </TTGlyph>
    <TTGlyph name="comma.vrt2" xMin="487" yMin="517" xMax="1173" yMax="952">
      <contour>
        <pt x="689" y="952" on="1"/>
        <pt x="772" y="947" on="0"/>
        <pt x="888" y="906" on="0"/>
        <pt x="921" y="875" on="1"/>
        <pt x="1008" y="812" on="0"/>
        <pt x="1052" y="761" on="0"/>
        <pt x="1140" y="639" on="0"/>
        <pt x="1173" y="595" on="1"/>
        <pt x="1173" y="556" on="1"/>
        <pt x="1158" y="517" on="0"/>
        <pt x="1124" y="517" on="1"/>
        <pt x="1066" y="521" on="0"/>
        <pt x="1066" y="547" on="1"/>
        <pt x="1056" y="573" on="0"/>
        <pt x="1004" y="629" on="0"/>
        <pt x="944" y="679" on="1"/>
        <pt x="872" y="731" on="0"/>
        <pt x="815" y="745" on="1"/>
        <pt x="790" y="701" on="1"/>
        <pt x="699" y="609" on="0"/>
        <pt x="655" y="609" on="1"/>
        <pt x="581" y="609" on="0"/>
        <pt x="487" y="688" on="0"/>
        <pt x="493" y="775" on="1"/>
        <pt x="495" y="805" on="0"/>
        <pt x="544" y="866" on="1"/>
        <pt x="578" y="894" on="1"/>
        <pt x="642" y="940" on="0"/>
      </contour>
    </TTGlyph>
    <TTGlyph name="commamnc" xMin="484" yMin="445" xMax="787" yMax="1007">
      <contour>
        <pt x="542" y="990" on="1"/>
        <pt x="749" y="924" on="0"/>
        <pt x="782" y="753" on="1"/>
        <pt x="787" y="600" on="0"/>
        <pt x="576" y="445" on="0"/>
        <pt x="547" y="472" on="1"/>
        <pt x="525" y="508" on="0"/>
        <pt x="553" y="585" on="1"/>
        <pt x="623" y="666" on="0"/>
        <pt x="623" y="739" on="1"/>
        <pt x="593" y="864" on="0"/>
        <pt x="494" y="965" on="1"/>
        <pt x="484" y="1007" on="0"/>
      </contour>
    </TTGlyph>
    <TTGlyph name="d" xMin="86" yMin="-23" xMax="1058" yMax="1413">
      <contour>
        <pt x="1058" y="1413" on="1"/>
        <pt x="1058" y="1387" on="0"/>
        <pt x="990" y="1007" on="0"/>
        <pt x="938" y="488" on="0"/>
        <pt x="938" y="259" on="1"/>
        <pt x="938" y="124" on="0"/>
        <pt x="946" y="0" on="1"/>
        <pt x="790" y="-13" on="1"/>
        <pt x="774" y="70" on="0"/>
        <pt x="774" y="220" on="1"/>
        <pt x="766" y="220" on="1"/>
        <pt x="634" y="-23" on="0"/>
        <pt x="404" y="-23" on="1"/>
        <pt x="262" y="-23" on="0"/>
        <pt x="86" y="186" on="0"/>
        <pt x="86" y="363" on="1"/>
        <pt x="86" y="635" on="0"/>
        <pt x="362" y="985" on="0"/>
        <pt x="596" y="985" on="1"/>
        <pt x="746" y="985" on="0"/>
        <pt x="829" y="919" on="1"/>
        <pt x="837" y="919" on="1"/>
        <pt x="858" y="1126" on="0"/>
        <pt x="873" y="1407" on="1"/>
      </contour>
      <contour>
        <pt x="826" y="799" on="1"/>
        <pt x="739" y="857" on="0"/>
        <pt x="638" y="857" on="1"/>
        <pt x="451" y="857" on="0"/>
        <pt x="257" y="624" on="0"/>
        <pt x="257" y="423" on="1"/>
        <pt x="257" y="115" on="0"/>
        <pt x="474" y="115" on="1"/>
        <pt x="583" y="115" on="0"/>
        <pt x="790" y="389" on="0"/>
        <pt x="806" y="572" on="1"/>
      </contour>
    </TTGlyph>
    <TTGlyph name="d.fina" xMin="0" yMin="-67" xMax="1248" yMax="1467">
      <component glyphName="d.medi" x="0" y="0" flags="0x1000"/>
    </TTGlyph>
    <TTGlyph name="d.init" xMin="-2" yMin="442" xMax="1287" yMax="1357">
      <component glyphName="d.isol" x="0" y="0" flags="0x1000"/>
    </TTGlyph>
    <TTGlyph name="d.isol" xMin="-2" yMin="442" xMax="1287" yMax="1357">
      <contour>
        <pt x="349" y="1288" on="0"/>
        <pt x="474" y="1288" on="0"/>
        <pt x="565" y="1223" on="1"/>
        <pt x="684" y="1140" on="0"/>
        <pt x="775" y="1039" on="1"/>
        <pt x="803" y="1005" on="0"/>
        <pt x="865" y="888" on="1"/>
        <pt x="902" y="838" on="0"/>
        <pt x="1010" y="835" on="1"/>
        <pt x="1244" y="835" on="1"/>
        <pt x="1244" y="637" on="1"/>
        <pt x="1029" y="637" on="1"/>
        <pt x="1003" y="613" on="0"/>
        <pt x="988" y="557" on="0"/>
        <pt x="925" y="459" on="0"/>
        <pt x="872" y="442" on="1"/>
        <pt x="817" y="442" on="0"/>
        <pt x="780" y="519" on="0"/>
        <pt x="757" y="584" on="1"/>
        <pt x="734" y="637" on="1"/>
        <pt x="702" y="656" on="0"/>
        <pt x="661" y="653" on="1"/>
        <pt x="603" y="644" on="0"/>
        <pt x="565" y="637" on="1"/>
        <pt x="307" y="637" on="1"/>
        <pt x="250" y="644" on="0"/>
        <pt x="187" y="666" on="0"/>
        <pt x="114" y="713" on="1"/>
        <pt x="-2" y="792" on="0"/>
        <pt x="-1" y="952" on="1"/>
        <pt x="0" y="1029" on="0"/>
        <pt x="164" y="1181" on="0"/>
        <pt x="247" y="1227" on="1"/>
        <pt x="279" y="1252" on="0"/>
      </contour>
      <contour>
        <pt x="1145" y="1351" on="1"/>
        <pt x="1207" y="1337" on="0"/>
        <pt x="1273" y="1271" on="0"/>
        <pt x="1284" y="1231" on="1"/>
        <pt x="1287" y="1188" on="0"/>
        <pt x="1198" y="1119" on="0"/>
        <pt x="1109" y="1116" on="1"/>
        <pt x="925" y="1131" on="0"/>
        <pt x="907" y="1203" on="1"/>
        <pt x="932" y="1285" on="0"/>
        <pt x="1026" y="1337" on="1"/>
        <pt x="1067" y="1357" on="0"/>
      </contour>
      <contour>
        <pt x="163" y="1016" on="0"/>
        <pt x="160" y="947" on="1"/>
        <pt x="164" y="896" on="0"/>
        <pt x="215" y="855" on="1"/>
        <pt x="261" y="830" on="0"/>
        <pt x="371" y="835" on="1"/>
        <pt x="537" y="835" on="1"/>
        <pt x="615" y="838" on="0"/>
        <pt x="620" y="838" on="1"/>
        <pt x="659" y="840" on="0"/>
        <pt x="623" y="922" on="0"/>
        <pt x="533" y="1014" on="0"/>
        <pt x="454" y="1067" on="1"/>
        <pt x="383" y="1128" on="0"/>
        <pt x="298" y="1117" on="1"/>
        <pt x="255" y="1106" on="0"/>
      </contour>
    </TTGlyph>
    <TTGlyph name="d.medi" xMin="0" yMin="-67" xMax="1248" yMax="1467">
      <contour>
        <pt x="865" y="1422" on="1"/>
        <pt x="916" y="1397" on="0"/>
        <pt x="924" y="1356" on="1"/>
        <pt x="928" y="1315" on="0"/>
        <pt x="870" y="1252" on="0"/>
        <pt x="814" y="1252" on="1"/>
        <pt x="793" y="1254" on="0"/>
        <pt x="749" y="1275" on="0"/>
        <pt x="653" y="1275" on="1"/>
        <pt x="598" y="1261" on="0"/>
        <pt x="546" y="1276" on="0"/>
        <pt x="542" y="1331" on="0"/>
        <pt x="582" y="1385" on="0"/>
        <pt x="658" y="1422" on="1"/>
        <pt x="736" y="1467" on="0"/>
      </contour>
      <contour>
        <pt x="849" y="260" on="1"/>
        <pt x="895" y="220" on="0"/>
        <pt x="1009" y="127" on="0"/>
        <pt x="1061" y="93" on="0"/>
        <pt x="1083" y="93" on="1"/>
        <pt x="1096" y="106" on="0"/>
        <pt x="1108" y="153" on="0"/>
        <pt x="1108" y="204" on="1"/>
        <pt x="1076" y="325" on="0"/>
        <pt x="931" y="310" on="1"/>
        <pt x="849" y="295" on="0"/>
      </contour>
      <contour>
        <pt x="251" y="772" on="1"/>
        <pt x="322" y="692" on="0"/>
        <pt x="357" y="678" on="1"/>
        <pt x="365" y="682" on="0"/>
        <pt x="413" y="797" on="0"/>
        <pt x="435" y="834" on="1"/>
        <pt x="444" y="848" on="0"/>
        <pt x="468" y="860" on="1"/>
        <pt x="572" y="835" on="1"/>
        <pt x="957" y="835" on="1"/>
        <pt x="957" y="637" on="1"/>
        <pt x="508" y="637" on="1"/>
        <pt x="444" y="654" on="0"/>
        <pt x="440" y="654" on="1"/>
        <pt x="412" y="640" on="1"/>
        <pt x="384" y="623" on="0"/>
        <pt x="421" y="590" on="1"/>
        <pt x="646" y="401" on="1"/>
        <pt x="747" y="319" on="1"/>
        <pt x="772" y="328" on="0"/>
        <pt x="812" y="374" on="1"/>
        <pt x="907" y="450" on="0"/>
        <pt x="968" y="452" on="1"/>
        <pt x="995" y="452" on="0"/>
        <pt x="1124" y="427" on="0"/>
        <pt x="1224" y="324" on="0"/>
        <pt x="1248" y="215" on="0"/>
        <pt x="1248" y="139" on="1"/>
        <pt x="1214" y="46" on="0"/>
        <pt x="1188" y="6" on="1"/>
        <pt x="1123" y="-67" on="0"/>
        <pt x="1087" y="-67" on="1"/>
        <pt x="1055" y="-67" on="1"/>
        <pt x="1023" y="-67" on="0"/>
        <pt x="774" y="139" on="0"/>
        <pt x="500" y="351" on="0"/>
        <pt x="316" y="514" on="1"/>
        <pt x="251" y="570" on="0"/>
        <pt x="207" y="611" on="1"/>
        <pt x="143" y="636" on="0"/>
        <pt x="79" y="637" on="1"/>
        <pt x="0" y="637" on="1"/>
        <pt x="0" y="835" on="1"/>
        <pt x="30" y="839" on="0"/>
        <pt x="67" y="840" on="1"/>
        <pt x="119" y="872" on="0"/>
        <pt x="154" y="866" on="1"/>
        <pt x="157" y="863" on="0"/>
        <pt x="161" y="861" on="1"/>
        <pt x="174" y="861" on="1"/>
        <pt x="193" y="852" on="0"/>
        <pt x="211" y="820" on="1"/>
        <pt x="221" y="799" on="0"/>
        <pt x="252" y="776" on="1"/>
      </contour>
    </TTGlyph>
    <TTGlyph name="d1.init" xMin="0" yMin="444" xMax="1601" yMax="1357">
      <contour>
        <pt x="1460" y="1351" on="1"/>
        <pt x="1520" y="1337" on="0"/>
        <pt x="1588" y="1271" on="0"/>
        <pt x="1597" y="1231" on="1"/>
        <pt x="1601" y="1188" on="0"/>
        <pt x="1513" y="1119" on="0"/>
        <pt x="1424" y="1116" on="1"/>
        <pt x="1239" y="1131" on="0"/>
        <pt x="1221" y="1203" on="1"/>
        <pt x="1246" y="1285" on="0"/>
        <pt x="1341" y="1337" on="1"/>
        <pt x="1382" y="1357" on="0"/>
      </contour>
      <contour>
        <pt x="827" y="1252" on="1"/>
        <pt x="854" y="1252" on="0"/>
        <pt x="954" y="1200" on="0"/>
        <pt x="1043" y="1091" on="1"/>
        <pt x="1146" y="948" on="0"/>
        <pt x="1181" y="866" on="1"/>
        <pt x="1202" y="848" on="0"/>
        <pt x="1259" y="835" on="1"/>
        <pt x="1554" y="835" on="1"/>
        <pt x="1554" y="637" on="1"/>
        <pt x="1355" y="637" on="1"/>
        <pt x="1337" y="594" on="0"/>
        <pt x="1182" y="444" on="0"/>
        <pt x="1121" y="452" on="1"/>
        <pt x="1080" y="465" on="0"/>
        <pt x="1043" y="535" on="0"/>
        <pt x="1029" y="637" on="0"/>
        <pt x="999" y="637" on="1"/>
        <pt x="508" y="637" on="1"/>
        <pt x="445" y="637" on="0"/>
        <pt x="384" y="611" on="0"/>
        <pt x="356" y="593" on="1"/>
        <pt x="273" y="618" on="0"/>
        <pt x="207" y="634" on="1"/>
        <pt x="129" y="650" on="0"/>
        <pt x="51" y="636" on="1"/>
        <pt x="23" y="651" on="0"/>
        <pt x="0" y="686" on="0"/>
        <pt x="0" y="696" on="1"/>
        <pt x="0" y="700" on="1"/>
        <pt x="36" y="760" on="0"/>
        <pt x="91" y="807" on="1"/>
        <pt x="146" y="851" on="0"/>
        <pt x="203" y="889" on="0"/>
        <pt x="235" y="889" on="1"/>
        <pt x="266" y="857" on="0"/>
        <pt x="294" y="852" on="1"/>
        <pt x="361" y="838" on="0"/>
        <pt x="401" y="838" on="1"/>
        <pt x="441" y="835" on="0"/>
        <pt x="439" y="875" on="1"/>
        <pt x="436" y="960" on="0"/>
        <pt x="469" y="1070" on="0"/>
        <pt x="630" y="1215" on="0"/>
        <pt x="740" y="1247" on="1"/>
        <pt x="775" y="1252" on="0"/>
      </contour>
      <contour>
        <pt x="631" y="1056" on="1"/>
        <pt x="600" y="1002" on="0"/>
        <pt x="595" y="939" on="0"/>
        <pt x="605" y="907" on="1"/>
        <pt x="636" y="857" on="0"/>
        <pt x="704" y="835" on="1"/>
        <pt x="956" y="835" on="1"/>
        <pt x="980" y="834" on="0"/>
        <pt x="968" y="880" on="0"/>
        <pt x="912" y="964" on="0"/>
        <pt x="850" y="1031" on="1"/>
        <pt x="794" y="1091" on="0"/>
        <pt x="731" y="1091" on="1"/>
        <pt x="665" y="1098" on="0"/>
      </contour>
    </TTGlyph>
    <TTGlyph name="d1.medi" xMin="0" yMin="-331" xMax="1343" yMax="1467">
      <contour>
        <pt x="828" y="318" on="1"/>
        <pt x="959" y="199" on="0"/>
        <pt x="1021" y="139" on="0"/>
        <pt x="1072" y="111" on="1"/>
        <pt x="1087" y="102" on="0"/>
        <pt x="1164" y="128" on="0"/>
        <pt x="1167" y="192" on="0"/>
        <pt x="1146" y="226" on="1"/>
        <pt x="1090" y="277" on="1"/>
        <pt x="1007" y="325" on="0"/>
        <pt x="932" y="349" on="0"/>
        <pt x="824" y="341" on="0"/>
      </contour>
      <contour>
        <pt x="992" y="1422" on="1"/>
        <pt x="1043" y="1397" on="0"/>
        <pt x="1051" y="1356" on="1"/>
        <pt x="1055" y="1315" on="0"/>
        <pt x="997" y="1252" on="0"/>
        <pt x="941" y="1252" on="1"/>
        <pt x="920" y="1254" on="0"/>
        <pt x="877" y="1275" on="0"/>
        <pt x="780" y="1275" on="1"/>
        <pt x="725" y="1261" on="0"/>
        <pt x="673" y="1276" on="0"/>
        <pt x="669" y="1331" on="0"/>
        <pt x="708" y="1385" on="0"/>
        <pt x="785" y="1422" on="1"/>
        <pt x="863" y="1467" on="0"/>
      </contour>
      <contour>
        <pt x="244" y="771" on="1"/>
        <pt x="267" y="753" on="0"/>
        <pt x="305" y="729" on="1"/>
        <pt x="382" y="675" on="0"/>
        <pt x="437" y="649" on="1"/>
        <pt x="488" y="649" on="1"/>
        <pt x="497" y="685" on="0"/>
        <pt x="475" y="727" on="1"/>
        <pt x="505" y="787" on="0"/>
        <pt x="534" y="813" on="0"/>
        <pt x="645" y="835" on="1"/>
        <pt x="1041" y="835" on="1"/>
        <pt x="1041" y="637" on="1"/>
        <pt x="718" y="637" on="1"/>
        <pt x="663" y="636" on="0"/>
        <pt x="567" y="561" on="0"/>
        <pt x="567" y="538" on="1"/>
        <pt x="695" y="429" on="1"/>
        <pt x="736" y="410" on="0"/>
        <pt x="782" y="451" on="1"/>
        <pt x="872" y="501" on="0"/>
        <pt x="1017" y="496" on="0"/>
        <pt x="1150" y="446" on="0"/>
        <pt x="1269" y="355" on="0"/>
        <pt x="1324" y="265" on="0"/>
        <pt x="1310" y="180" on="1"/>
        <pt x="1288" y="83" on="0"/>
        <pt x="1196" y="37" on="1"/>
        <pt x="1210" y="-9" on="0"/>
        <pt x="1269" y="-74" on="0"/>
        <pt x="1329" y="-210" on="1"/>
        <pt x="1343" y="-270" on="1"/>
        <pt x="1343" y="-318" on="0"/>
        <pt x="1303" y="-331" on="0"/>
        <pt x="1273" y="-302" on="0"/>
        <pt x="1252" y="-270" on="0"/>
        <pt x="1210" y="-215" on="0"/>
        <pt x="1173" y="-159" on="0"/>
        <pt x="1100" y="-91" on="0"/>
        <pt x="1036" y="-31" on="0"/>
        <pt x="920" y="65" on="1"/>
        <pt x="850" y="121" on="0"/>
        <pt x="687" y="246" on="1"/>
        <pt x="524" y="370" on="0"/>
        <pt x="194" y="614" on="1"/>
        <pt x="133" y="636" on="0"/>
        <pt x="73" y="637" on="1"/>
        <pt x="0" y="637" on="1"/>
        <pt x="0" y="835" on="1"/>
        <pt x="67" y="842" on="0"/>
        <pt x="102" y="842" on="1"/>
        <pt x="148" y="861" on="1"/>
        <pt x="168" y="861" on="1"/>
        <pt x="187" y="852" on="0"/>
        <pt x="205" y="820" on="1"/>
        <pt x="216" y="799" on="0"/>
        <pt x="246" y="776" on="1"/>
      </contour>
    </TTGlyph>
    <TTGlyph name="dollar" xMin="107" yMin="-103" xMax="820" yMax="1488">
      <contour>
        <pt x="820" y="1157" on="1"/>
        <pt x="776" y="1012" on="1"/>
        <pt x="677" y="1056" on="0"/>
        <pt x="547" y="1056" on="1"/>
        <pt x="351" y="1056" on="0"/>
        <pt x="351" y="926" on="1"/>
        <pt x="351" y="879" on="0"/>
        <pt x="427" y="813" on="0"/>
        <pt x="530" y="769" on="1"/>
        <pt x="785" y="660" on="0"/>
        <pt x="785" y="494" on="1"/>
        <pt x="785" y="232" on="0"/>
        <pt x="491" y="192" on="1"/>
        <pt x="473" y="21" on="0"/>
        <pt x="468" y="-103" on="1"/>
        <pt x="357" y="-103" on="1"/>
        <pt x="366" y="-42" on="0"/>
        <pt x="392" y="186" on="1"/>
        <pt x="239" y="186" on="0"/>
        <pt x="107" y="219" on="1"/>
        <pt x="152" y="366" on="1"/>
        <pt x="271" y="316" on="0"/>
        <pt x="411" y="316" on="1"/>
        <pt x="634" y="316" on="0"/>
        <pt x="634" y="444" on="1"/>
        <pt x="634" y="537" on="0"/>
        <pt x="454" y="616" on="1"/>
        <pt x="338" y="667" on="0"/>
        <pt x="285" y="713" on="1"/>
        <pt x="200" y="786" on="0"/>
        <pt x="200" y="890" on="1"/>
        <pt x="200" y="1015" on="0"/>
        <pt x="368" y="1167" on="0"/>
        <pt x="499" y="1182" on="1"/>
        <pt x="520" y="1373" on="0"/>
        <pt x="524" y="1488" on="1"/>
        <pt x="636" y="1488" on="1"/>
        <pt x="627" y="1439" on="0"/>
        <pt x="597" y="1186" on="1"/>
        <pt x="738" y="1183" on="0"/>
      </contour>
      <contour>
        <pt x="553" y="1215" on="1"/>
      </contour>
    </TTGlyph>
    <TTGlyph name="dz.fina" xMin="-117" yMin="356" xMax="1458" yMax="1490">
      <contour>
        <pt x="167" y="835" on="1"/>
        <pt x="215" y="840" on="0"/>
        <pt x="218" y="908" on="1"/>
        <pt x="207" y="957" on="0"/>
        <pt x="157" y="1024" on="0"/>
        <pt x="143" y="1088" on="1"/>
        <pt x="134" y="1166" on="1"/>
        <pt x="134" y="1217" on="1"/>
        <pt x="173" y="1280" on="0"/>
        <pt x="213" y="1309" on="1"/>
        <pt x="280" y="1321" on="0"/>
        <pt x="337" y="1305" on="1"/>
        <pt x="382" y="1294" on="0"/>
        <pt x="507" y="1157" on="1"/>
        <pt x="641" y="1019" on="0"/>
        <pt x="996" y="647" on="0"/>
        <pt x="1051" y="577" on="1"/>
        <pt x="1068" y="563" on="0"/>
        <pt x="1104" y="558" on="0"/>
        <pt x="1156" y="596" on="1"/>
        <pt x="1217" y="666" on="0"/>
        <pt x="1253" y="784" on="1"/>
        <pt x="1266" y="836" on="0"/>
        <pt x="1216" y="955" on="1"/>
        <pt x="1179" y="1038" on="1"/>
        <pt x="1123" y="1144" on="0"/>
        <pt x="1056" y="1217" on="1"/>
        <pt x="1009" y="1249" on="1"/>
        <pt x="1009" y="1281" on="1"/>
        <pt x="1011" y="1290" on="0"/>
        <pt x="1018" y="1290" on="1"/>
        <pt x="1023" y="1290" on="1"/>
        <pt x="1085" y="1290" on="0"/>
        <pt x="1220" y="1180" on="0"/>
        <pt x="1280" y="1116" on="1"/>
        <pt x="1405" y="987" on="1"/>
        <pt x="1458" y="921" on="0"/>
        <pt x="1451" y="849" on="1"/>
        <pt x="1451" y="793" on="0"/>
        <pt x="1401" y="729" on="1"/>
        <pt x="1326" y="600" on="0"/>
        <pt x="1304" y="580" on="0"/>
        <pt x="1156" y="434" on="1"/>
        <pt x="1083" y="368" on="0"/>
        <pt x="1028" y="356" on="0"/>
        <pt x="1009" y="374" on="1"/>
        <pt x="996" y="411" on="0"/>
        <pt x="945" y="495" on="0"/>
        <pt x="788" y="660" on="1"/>
        <pt x="659" y="766" on="1"/>
        <pt x="459" y="946" on="0"/>
        <pt x="391" y="1010" on="1"/>
        <pt x="370" y="998" on="0"/>
        <pt x="390" y="963" on="0"/>
        <pt x="405" y="917" on="0"/>
        <pt x="425" y="838" on="0"/>
        <pt x="507" y="693" on="0"/>
        <pt x="429" y="582" on="1"/>
        <pt x="359" y="516" on="0"/>
        <pt x="314" y="531" on="1"/>
        <pt x="229" y="596" on="0"/>
        <pt x="199" y="611" on="0"/>
        <pt x="116" y="637" on="1"/>
        <pt x="0" y="637" on="1"/>
        <pt x="0" y="835" on="1"/>
      </contour>
      <contour>
        <pt x="719" y="1453" on="1"/>
        <pt x="917" y="1432" on="0"/>
        <pt x="948" y="1373" on="1"/>
        <pt x="912" y="1314" on="0"/>
        <pt x="743" y="1312" on="1"/>
        <pt x="-74" y="1312" on="1"/>
        <pt x="-110" y="1317" on="0"/>
        <pt x="-117" y="1336" on="1"/>
        <pt x="-100" y="1417" on="1"/>
        <pt x="-87" y="1490" on="0"/>
        <pt x="57" y="1490" on="0"/>
        <pt x="136" y="1469" on="1"/>
      </contour>
    </TTGlyph>
    <TTGlyph name="dz.init" xMin="-141" yMin="382" xMax="1108" yMax="1490">
      <component glyphName="dz.isol" x="0" y="0" flags="0x1000"/>
    </TTGlyph>
    <TTGlyph name="dz.isol" xMin="-141" yMin="382" xMax="1108" yMax="1490">
      <contour>
        <pt x="354" y="1321" on="1"/>
        <pt x="482" y="1279" on="0"/>
        <pt x="590" y="1206" on="0"/>
        <pt x="617" y="1165" on="1"/>
        <pt x="648" y="1136" on="0"/>
        <pt x="745" y="984" on="1"/>
        <pt x="801" y="912" on="0"/>
        <pt x="870" y="835" on="1"/>
        <pt x="1108" y="835" on="1"/>
        <pt x="1108" y="637" on="1"/>
        <pt x="921" y="637" on="1"/>
        <pt x="911" y="582" on="0"/>
        <pt x="827" y="492" on="0"/>
        <pt x="787" y="483" on="1"/>
        <pt x="725" y="501" on="0"/>
        <pt x="695" y="551" on="0"/>
        <pt x="686" y="593" on="1"/>
        <pt x="709" y="593" on="0"/>
        <pt x="740" y="721" on="0"/>
        <pt x="581" y="898" on="1"/>
        <pt x="475" y="1028" on="0"/>
        <pt x="327" y="1122" on="1"/>
        <pt x="285" y="1125" on="0"/>
        <pt x="239" y="1122" on="1"/>
        <pt x="210" y="1096" on="0"/>
        <pt x="198" y="1071" on="1"/>
        <pt x="190" y="1019" on="0"/>
        <pt x="221" y="962" on="1"/>
        <pt x="353" y="804" on="0"/>
        <pt x="419" y="690" on="0"/>
        <pt x="410" y="606" on="0"/>
        <pt x="359" y="538" on="1"/>
        <pt x="244" y="447" on="1"/>
        <pt x="127" y="382" on="0"/>
        <pt x="97" y="382" on="1"/>
        <pt x="72" y="389" on="0"/>
        <pt x="51" y="428" on="1"/>
        <pt x="92" y="501" on="0"/>
        <pt x="153" y="543" on="0"/>
        <pt x="194" y="579" on="1"/>
        <pt x="239" y="616" on="0"/>
        <pt x="237" y="645" on="1"/>
        <pt x="236" y="666" on="0"/>
        <pt x="70" y="907" on="1"/>
        <pt x="23" y="1008" on="1"/>
        <pt x="0" y="1050" on="0"/>
        <pt x="9" y="1085" on="0"/>
        <pt x="94" y="1184" on="1"/>
        <pt x="167" y="1270" on="0"/>
        <pt x="290" y="1317" on="1"/>
      </contour>
      <contour>
        <pt x="695" y="1453" on="1"/>
        <pt x="893" y="1432" on="0"/>
        <pt x="924" y="1373" on="1"/>
        <pt x="888" y="1314" on="0"/>
        <pt x="719" y="1312" on="1"/>
        <pt x="-98" y="1312" on="1"/>
        <pt x="-134" y="1317" on="0"/>
        <pt x="-141" y="1336" on="1"/>
        <pt x="-124" y="1417" on="1"/>
        <pt x="-111" y="1490" on="0"/>
        <pt x="33" y="1490" on="0"/>
        <pt x="112" y="1469" on="1"/>
      </contour>
    </TTGlyph>
    <TTGlyph name="dz.medi" xMin="-116" yMin="524" xMax="1314" yMax="1490">
      <contour>
        <pt x="117" y="835" on="1"/>
        <pt x="124" y="835" on="0"/>
        <pt x="182" y="843" on="0"/>
        <pt x="182" y="859" on="1"/>
        <pt x="182" y="883" on="0"/>
        <pt x="154" y="951" on="1"/>
        <pt x="133" y="999" on="0"/>
        <pt x="98" y="1107" on="1"/>
        <pt x="114" y="1207" on="0"/>
        <pt x="151" y="1252" on="1"/>
        <pt x="182" y="1294" on="0"/>
        <pt x="204" y="1312" on="1"/>
        <pt x="-73" y="1312" on="1"/>
        <pt x="-109" y="1317" on="0"/>
        <pt x="-116" y="1336" on="1"/>
        <pt x="-99" y="1417" on="1"/>
        <pt x="-86" y="1490" on="0"/>
        <pt x="58" y="1490" on="0"/>
        <pt x="136" y="1469" on="1"/>
        <pt x="720" y="1453" on="1"/>
        <pt x="918" y="1432" on="0"/>
        <pt x="949" y="1373" on="1"/>
        <pt x="913" y="1314" on="0"/>
        <pt x="744" y="1312" on="1"/>
        <pt x="397" y="1312" on="1"/>
        <pt x="469" y="1272" on="0"/>
        <pt x="674" y="1131" on="1"/>
        <pt x="816" y="1003" on="0"/>
        <pt x="876" y="937" on="0"/>
        <pt x="949" y="879" on="0"/>
        <pt x="1075" y="835" on="1"/>
        <pt x="1314" y="835" on="1"/>
        <pt x="1314" y="637" on="1"/>
        <pt x="1106" y="637" on="1"/>
        <pt x="1075" y="620" on="1"/>
        <pt x="1024" y="578" on="1"/>
        <pt x="965" y="527" on="0"/>
        <pt x="927" y="524" on="1"/>
        <pt x="895" y="527" on="1"/>
        <pt x="883" y="529" on="0"/>
        <pt x="852" y="556" on="0"/>
        <pt x="844" y="634" on="1"/>
        <pt x="840" y="684" on="0"/>
        <pt x="849" y="707" on="1"/>
        <pt x="849" y="760" on="0"/>
        <pt x="656" y="891" on="0"/>
        <pt x="582" y="956" on="1"/>
        <pt x="471" y="1025" on="1"/>
        <pt x="360" y="1089" on="0"/>
        <pt x="333" y="1089" on="1"/>
        <pt x="324" y="1085" on="0"/>
        <pt x="319" y="1085" on="1"/>
        <pt x="319" y="1075" on="1"/>
        <pt x="351" y="1016" on="1"/>
        <pt x="414" y="852" on="0"/>
        <pt x="481" y="813" on="1"/>
        <pt x="495" y="813" on="1"/>
        <pt x="541" y="818" on="0"/>
        <pt x="563" y="818" on="1"/>
        <pt x="609" y="777" on="0"/>
        <pt x="616" y="736" on="1"/>
        <pt x="609" y="702" on="1"/>
        <pt x="596" y="682" on="0"/>
        <pt x="500" y="593" on="0"/>
        <pt x="406" y="556" on="1"/>
        <pt x="365" y="557" on="0"/>
        <pt x="226" y="596" on="0"/>
        <pt x="154" y="611" on="0"/>
        <pt x="117" y="637" on="1"/>
        <pt x="1" y="637" on="1"/>
        <pt x="1" y="835" on="1"/>
      </contour>
    </TTGlyph>
    <TTGlyph name="dz1.init" xMin="-141" yMin="382" xMax="989" yMax="1490">
      <contour>
        <pt x="354" y="1321" on="1"/>
        <pt x="482" y="1279" on="0"/>
        <pt x="590" y="1206" on="0"/>
        <pt x="617" y="1165" on="1"/>
        <pt x="648" y="1136" on="0"/>
        <pt x="745" y="984" on="1"/>
        <pt x="801" y="912" on="0"/>
        <pt x="870" y="835" on="1"/>
        <pt x="989" y="684" on="1"/>
        <pt x="894" y="591" on="1"/>
        <pt x="736" y="767" on="0"/>
        <pt x="583" y="916" on="1"/>
        <pt x="475" y="1028" on="0"/>
        <pt x="327" y="1122" on="1"/>
        <pt x="285" y="1125" on="0"/>
        <pt x="239" y="1122" on="1"/>
        <pt x="210" y="1096" on="0"/>
        <pt x="198" y="1071" on="1"/>
        <pt x="190" y="1019" on="0"/>
        <pt x="221" y="962" on="1"/>
        <pt x="353" y="804" on="0"/>
        <pt x="419" y="690" on="0"/>
        <pt x="410" y="606" on="0"/>
        <pt x="359" y="538" on="1"/>
        <pt x="244" y="447" on="1"/>
        <pt x="127" y="382" on="0"/>
        <pt x="97" y="382" on="1"/>
        <pt x="72" y="389" on="0"/>
        <pt x="51" y="428" on="1"/>
        <pt x="92" y="501" on="0"/>
        <pt x="153" y="543" on="0"/>
        <pt x="194" y="579" on="1"/>
        <pt x="239" y="616" on="0"/>
        <pt x="237" y="645" on="1"/>
        <pt x="236" y="666" on="0"/>
        <pt x="70" y="907" on="1"/>
        <pt x="23" y="1008" on="1"/>
        <pt x="0" y="1050" on="0"/>
        <pt x="9" y="1085" on="0"/>
        <pt x="94" y="1184" on="1"/>
        <pt x="167" y="1270" on="0"/>
        <pt x="290" y="1317" on="1"/>
      </contour>
      <contour>
        <pt x="695" y="1453" on="1"/>
        <pt x="893" y="1432" on="0"/>
        <pt x="924" y="1373" on="1"/>
        <pt x="888" y="1314" on="0"/>
        <pt x="719" y="1312" on="1"/>
        <pt x="-98" y="1312" on="1"/>
        <pt x="-134" y="1317" on="0"/>
        <pt x="-141" y="1336" on="1"/>
        <pt x="-124" y="1417" on="1"/>
        <pt x="-111" y="1490" on="0"/>
        <pt x="33" y="1490" on="0"/>
        <pt x="112" y="1469" on="1"/>
      </contour>
    </TTGlyph>
    <TTGlyph name="dz1.medi" xMin="-117" yMin="556" xMax="1125" yMax="1490">
      <contour>
        <pt x="203" y="1312" on="1"/>
        <pt x="-74" y="1312" on="1"/>
        <pt x="-110" y="1317" on="0"/>
        <pt x="-117" y="1336" on="1"/>
        <pt x="-100" y="1417" on="1"/>
        <pt x="-87" y="1490" on="0"/>
        <pt x="57" y="1490" on="0"/>
        <pt x="135" y="1469" on="1"/>
        <pt x="718" y="1453" on="1"/>
        <pt x="917" y="1432" on="0"/>
        <pt x="947" y="1373" on="1"/>
        <pt x="912" y="1314" on="0"/>
        <pt x="742" y="1312" on="1"/>
        <pt x="396" y="1312" on="1"/>
        <pt x="468" y="1272" on="0"/>
        <pt x="673" y="1131" on="1"/>
        <pt x="815" y="1003" on="0"/>
        <pt x="875" y="937" on="0"/>
        <pt x="948" y="879" on="0"/>
        <pt x="1125" y="683" on="1"/>
        <pt x="940" y="654" on="1"/>
        <pt x="848" y="760" on="0"/>
        <pt x="655" y="891" on="0"/>
        <pt x="581" y="956" on="1"/>
        <pt x="470" y="1025" on="1"/>
        <pt x="359" y="1089" on="0"/>
        <pt x="332" y="1089" on="1"/>
        <pt x="323" y="1085" on="0"/>
        <pt x="318" y="1085" on="1"/>
        <pt x="318" y="1075" on="1"/>
        <pt x="350" y="1016" on="1"/>
        <pt x="413" y="852" on="0"/>
        <pt x="480" y="813" on="1"/>
        <pt x="494" y="813" on="1"/>
        <pt x="540" y="818" on="0"/>
        <pt x="562" y="818" on="1"/>
        <pt x="608" y="777" on="0"/>
        <pt x="615" y="736" on="1"/>
        <pt x="608" y="702" on="1"/>
        <pt x="595" y="682" on="0"/>
        <pt x="498" y="593" on="0"/>
        <pt x="405" y="556" on="1"/>
        <pt x="364" y="557" on="0"/>
        <pt x="225" y="596" on="0"/>
        <pt x="153" y="616" on="0"/>
        <pt x="116" y="637" on="1"/>
        <pt x="0" y="637" on="1"/>
        <pt x="0" y="835" on="1"/>
        <pt x="139" y="835" on="1"/>
        <pt x="145" y="835" on="0"/>
        <pt x="150" y="834" on="1"/>
        <pt x="181" y="849" on="0"/>
        <pt x="181" y="859" on="1"/>
        <pt x="181" y="883" on="0"/>
        <pt x="153" y="951" on="1"/>
        <pt x="132" y="999" on="0"/>
        <pt x="97" y="1107" on="1"/>
        <pt x="113" y="1207" on="0"/>
        <pt x="150" y="1252" on="1"/>
        <pt x="181" y="1294" on="0"/>
      </contour>
    </TTGlyph>
    <TTGlyph name="e" xMin="86" yMin="-27" xMax="920" yMax="994">
      <contour>
        <pt x="920" y="761" on="1"/>
        <pt x="920" y="626" on="0"/>
        <pt x="795" y="556" on="1"/>
        <pt x="636" y="466" on="0"/>
        <pt x="253" y="459" on="1"/>
        <pt x="253" y="279" on="0"/>
        <pt x="378" y="116" on="0"/>
        <pt x="526" y="116" on="1"/>
        <pt x="671" y="116" on="0"/>
        <pt x="842" y="218" on="1"/>
        <pt x="817" y="70" on="1"/>
        <pt x="682" y="-27" on="0"/>
        <pt x="483" y="-27" on="1"/>
        <pt x="279" y="-27" on="0"/>
        <pt x="86" y="218" on="0"/>
        <pt x="86" y="406" on="1"/>
        <pt x="86" y="683" on="0"/>
        <pt x="409" y="994" on="0"/>
        <pt x="620" y="994" on="1"/>
        <pt x="748" y="994" on="0"/>
        <pt x="920" y="870" on="0"/>
      </contour>
      <contour>
        <pt x="761" y="757" on="1"/>
        <pt x="761" y="810" on="0"/>
        <pt x="663" y="867" on="0"/>
        <pt x="586" y="867" on="1"/>
        <pt x="477" y="867" on="0"/>
        <pt x="290" y="723" on="0"/>
        <pt x="262" y="574" on="1"/>
        <pt x="569" y="580" on="0"/>
        <pt x="683" y="639" on="1"/>
        <pt x="761" y="679" on="0"/>
      </contour>
    </TTGlyph>
    <TTGlyph name="e.fina" xMin="0" yMin="637" xMax="1201" yMax="1926">
      <contour>
        <pt x="327" y="1368" on="1"/>
        <pt x="386" y="1368" on="0"/>
        <pt x="472" y="1332" on="0"/>
        <pt x="497" y="1300" on="0"/>
        <pt x="497" y="1267" on="0"/>
        <pt x="459" y="1221" on="0"/>
        <pt x="398" y="1212" on="0"/>
        <pt x="279" y="1176" on="0"/>
        <pt x="207" y="1164" on="0"/>
        <pt x="166" y="1187" on="0"/>
        <pt x="166" y="1235" on="0"/>
        <pt x="226" y="1295" on="0"/>
        <pt x="266" y="1368" on="0"/>
      </contour>
      <contour>
        <pt x="304" y="835" on="1"/>
        <pt x="439" y="834" on="0"/>
        <pt x="479" y="839" on="1"/>
        <pt x="585" y="861" on="0"/>
        <pt x="740" y="931" on="1"/>
        <pt x="850" y="999" on="0"/>
        <pt x="938" y="1073" on="0"/>
        <pt x="1008" y="1189" on="1"/>
        <pt x="1034" y="1238" on="0"/>
        <pt x="1041" y="1318" on="1"/>
        <pt x="1052" y="1403" on="0"/>
        <pt x="1025" y="1456" on="1"/>
        <pt x="983" y="1559" on="0"/>
        <pt x="838" y="1718" on="1"/>
        <pt x="762" y="1791" on="0"/>
        <pt x="640" y="1870" on="0"/>
        <pt x="626" y="1903" on="0"/>
        <pt x="644" y="1926" on="0"/>
        <pt x="663" y="1926" on="1"/>
        <pt x="733" y="1926" on="0"/>
        <pt x="921" y="1788" on="1"/>
        <pt x="1008" y="1710" on="0"/>
        <pt x="1128" y="1567" on="0"/>
        <pt x="1178" y="1493" on="0"/>
        <pt x="1201" y="1414" on="0"/>
        <pt x="1201" y="1336" on="1"/>
        <pt x="1184" y="1218" on="0"/>
        <pt x="1142" y="1148" on="1"/>
        <pt x="1035" y="989" on="0"/>
        <pt x="865" y="857" on="0"/>
        <pt x="787" y="802" on="1"/>
        <pt x="704" y="739" on="0"/>
        <pt x="553" y="679" on="0"/>
        <pt x="483" y="665" on="1"/>
        <pt x="342" y="637" on="0"/>
        <pt x="289" y="637" on="1"/>
        <pt x="0" y="637" on="1"/>
        <pt x="0" y="835" on="1"/>
      </contour>
    </TTGlyph>
    <TTGlyph name="e.init" xMin="-16" yMin="454" xMax="1029" yMax="1111">
      <contour>
        <pt x="349" y="1111" on="1"/>
        <pt x="415" y="1111" on="0"/>
        <pt x="519" y="1057" on="0"/>
        <pt x="551" y="987" on="1"/>
        <pt x="588" y="922" on="1"/>
        <pt x="657" y="848" on="0"/>
        <pt x="698" y="844" on="1"/>
        <pt x="731" y="839" on="0"/>
        <pt x="818" y="835" on="1"/>
        <pt x="1029" y="835" on="1"/>
        <pt x="1029" y="637" on="1"/>
        <pt x="911" y="637" on="1"/>
        <pt x="842" y="637" on="0"/>
        <pt x="809" y="614" on="1"/>
        <pt x="800" y="606" on="0"/>
        <pt x="777" y="568" on="1"/>
        <pt x="716" y="454" on="0"/>
        <pt x="652" y="457" on="1"/>
        <pt x="578" y="464" on="0"/>
        <pt x="556" y="591" on="1"/>
        <pt x="519" y="700" on="0"/>
        <pt x="366" y="889" on="0"/>
        <pt x="288" y="895" on="1"/>
        <pt x="238" y="888" on="0"/>
        <pt x="192" y="848" on="1"/>
        <pt x="141" y="813" on="0"/>
        <pt x="86" y="793" on="1"/>
        <pt x="25" y="798" on="0"/>
        <pt x="4" y="825" on="1"/>
        <pt x="-16" y="866" on="0"/>
        <pt x="114" y="982" on="0"/>
        <pt x="225" y="1051" on="1"/>
        <pt x="291" y="1101" on="0"/>
      </contour>
    </TTGlyph>
    <TTGlyph name="e.isol" xMin="-2" yMin="-363" xMax="2463" yMax="1101">
      <contour>
        <pt x="629" y="522" on="1"/>
        <pt x="609" y="509" on="0"/>
        <pt x="583" y="509" on="1"/>
        <pt x="544" y="511" on="0"/>
        <pt x="529" y="555" on="1"/>
        <pt x="515" y="591" on="0"/>
        <pt x="505" y="620" on="0"/>
        <pt x="446" y="706" on="1"/>
        <pt x="379" y="843" on="0"/>
        <pt x="294" y="881" on="1"/>
        <pt x="276" y="899" on="0"/>
        <pt x="147" y="821" on="1"/>
        <pt x="69" y="779" on="0"/>
        <pt x="51" y="779" on="1"/>
        <pt x="27" y="779" on="0"/>
        <pt x="-2" y="805" on="0"/>
        <pt x="0" y="830" on="1"/>
        <pt x="2" y="848" on="0"/>
        <pt x="25" y="880" on="0"/>
        <pt x="101" y="938" on="0"/>
        <pt x="179" y="991" on="1"/>
        <pt x="324" y="1101" on="0"/>
        <pt x="377" y="1097" on="1"/>
        <pt x="401" y="1097" on="0"/>
        <pt x="458" y="1071" on="0"/>
        <pt x="496" y="972" on="0"/>
        <pt x="520" y="913" on="1"/>
        <pt x="544" y="851" on="0"/>
        <pt x="588" y="789" on="1"/>
        <pt x="602" y="777" on="0"/>
        <pt x="615" y="789" on="1"/>
        <pt x="733" y="901" on="0"/>
        <pt x="757" y="899" on="1"/>
        <pt x="786" y="897" on="0"/>
        <pt x="822" y="862" on="1"/>
        <pt x="894" y="779" on="1"/>
        <pt x="1041" y="679" on="0"/>
        <pt x="2155" y="-33" on="1"/>
        <pt x="2192" y="-60" on="0"/>
        <pt x="2251" y="-110" on="0"/>
        <pt x="2339" y="-161" on="0"/>
        <pt x="2445" y="-225" on="1"/>
        <pt x="2463" y="-263" on="0"/>
        <pt x="2440" y="-313" on="1"/>
        <pt x="2419" y="-356" on="0"/>
        <pt x="2353" y="-363" on="1"/>
        <pt x="2314" y="-363" on="0"/>
        <pt x="2232" y="-292" on="0"/>
        <pt x="2132" y="-285" on="1"/>
        <pt x="2020" y="-331" on="0"/>
        <pt x="1977" y="-331" on="1"/>
        <pt x="1928" y="-330" on="0"/>
        <pt x="1940" y="-290" on="1"/>
        <pt x="1955" y="-249" on="0"/>
        <pt x="1985" y="-217" on="1"/>
        <pt x="2018" y="-184" on="0"/>
        <pt x="2047" y="-174" on="0"/>
        <pt x="2064" y="-152" on="1"/>
        <pt x="2075" y="-132" on="0"/>
        <pt x="2036" y="-111" on="1"/>
        <pt x="1040" y="454" on="1"/>
        <pt x="857" y="559" on="0"/>
        <pt x="755" y="596" on="0"/>
        <pt x="692" y="550" on="1"/>
        <pt x="675" y="537" on="0"/>
        <pt x="644" y="525" on="1"/>
        <pt x="638" y="523" on="0"/>
      </contour>
    </TTGlyph>
    <TTGlyph name="e.medi" xMin="0" yMin="480" xMax="663" yMax="1255">
      <contour>
        <pt x="258" y="1255" on="1"/>
        <pt x="319" y="1255" on="0"/>
        <pt x="403" y="1218" on="0"/>
        <pt x="429" y="1186" on="0"/>
        <pt x="429" y="1153" on="0"/>
        <pt x="391" y="1106" on="0"/>
        <pt x="329" y="1098" on="0"/>
        <pt x="211" y="1062" on="0"/>
        <pt x="139" y="1050" on="0"/>
        <pt x="97" y="1072" on="0"/>
        <pt x="97" y="1121" on="0"/>
        <pt x="157" y="1181" on="0"/>
        <pt x="197" y="1255" on="0"/>
      </contour>
      <contour>
        <pt x="663" y="835" on="1"/>
        <pt x="663" y="637" on="1"/>
        <pt x="476" y="637" on="1"/>
        <pt x="440" y="614" on="0"/>
        <pt x="440" y="587" on="1"/>
        <pt x="413" y="536" on="0"/>
        <pt x="332" y="480" on="0"/>
        <pt x="289" y="480" on="1"/>
        <pt x="258" y="480" on="0"/>
        <pt x="178" y="542" on="0"/>
        <pt x="109" y="637" on="1"/>
        <pt x="0" y="637" on="1"/>
        <pt x="0" y="835" on="1"/>
      </contour>
    </TTGlyph>
    <TTGlyph name="e1.fina" xMin="0" yMin="637" xMax="1201" yMax="1926">
      <contour>
        <pt x="304" y="835" on="1"/>
        <pt x="439" y="834" on="0"/>
        <pt x="479" y="839" on="1"/>
        <pt x="585" y="861" on="0"/>
        <pt x="740" y="931" on="1"/>
        <pt x="850" y="999" on="0"/>
        <pt x="938" y="1073" on="0"/>
        <pt x="1008" y="1189" on="1"/>
        <pt x="1034" y="1238" on="0"/>
        <pt x="1041" y="1318" on="1"/>
        <pt x="1052" y="1403" on="0"/>
        <pt x="1025" y="1456" on="1"/>
        <pt x="983" y="1559" on="0"/>
        <pt x="838" y="1718" on="1"/>
        <pt x="762" y="1791" on="0"/>
        <pt x="640" y="1870" on="0"/>
        <pt x="626" y="1903" on="0"/>
        <pt x="644" y="1926" on="0"/>
        <pt x="663" y="1926" on="1"/>
        <pt x="733" y="1926" on="0"/>
        <pt x="921" y="1788" on="1"/>
        <pt x="1008" y="1710" on="0"/>
        <pt x="1128" y="1567" on="0"/>
        <pt x="1178" y="1493" on="0"/>
        <pt x="1201" y="1414" on="0"/>
        <pt x="1201" y="1336" on="1"/>
        <pt x="1184" y="1218" on="0"/>
        <pt x="1142" y="1148" on="1"/>
        <pt x="1035" y="989" on="0"/>
        <pt x="865" y="857" on="0"/>
        <pt x="787" y="802" on="1"/>
        <pt x="704" y="739" on="0"/>
        <pt x="553" y="679" on="0"/>
        <pt x="483" y="665" on="1"/>
        <pt x="342" y="637" on="0"/>
        <pt x="289" y="637" on="1"/>
        <pt x="0" y="637" on="1"/>
        <pt x="0" y="835" on="1"/>
      </contour>
    </TTGlyph>
    <TTGlyph name="e1.medi" xMin="0" yMin="480" xMax="657" yMax="835">
      <contour>
        <pt x="657" y="835" on="1"/>
        <pt x="657" y="637" on="1"/>
        <pt x="476" y="637" on="1"/>
        <pt x="440" y="614" on="0"/>
        <pt x="440" y="587" on="1"/>
        <pt x="413" y="536" on="0"/>
        <pt x="332" y="480" on="0"/>
        <pt x="289" y="480" on="1"/>
        <pt x="258" y="480" on="0"/>
        <pt x="178" y="542" on="0"/>
        <pt x="109" y="637" on="1"/>
        <pt x="0" y="637" on="1"/>
        <pt x="0" y="835" on="1"/>
      </contour>
    </TTGlyph>
    <TTGlyph name="e2.fina" xMin="-232" yMin="-375" xMax="1717" yMax="875">
      <contour>
        <pt x="88" y="809" on="1"/>
        <pt x="129" y="782" on="1"/>
        <pt x="184" y="738" on="0"/>
        <pt x="1410" y="-45" on="1"/>
        <pt x="1446" y="-72" on="0"/>
        <pt x="1505" y="-121" on="0"/>
        <pt x="1593" y="-173" on="0"/>
        <pt x="1698" y="-237" on="1"/>
        <pt x="1717" y="-273" on="0"/>
        <pt x="1693" y="-324" on="1"/>
        <pt x="1674" y="-368" on="0"/>
        <pt x="1606" y="-375" on="1"/>
        <pt x="1568" y="-375" on="0"/>
        <pt x="1485" y="-304" on="0"/>
        <pt x="1386" y="-297" on="1"/>
        <pt x="1274" y="-343" on="0"/>
        <pt x="1230" y="-343" on="1"/>
        <pt x="1182" y="-341" on="0"/>
        <pt x="1194" y="-301" on="1"/>
        <pt x="1210" y="-260" on="0"/>
        <pt x="1240" y="-227" on="1"/>
        <pt x="1272" y="-196" on="0"/>
        <pt x="1301" y="-186" on="0"/>
        <pt x="1318" y="-164" on="1"/>
        <pt x="1329" y="-144" on="0"/>
        <pt x="1290" y="-123" on="1"/>
        <pt x="281" y="479" on="1"/>
        <pt x="126" y="572" on="0"/>
        <pt x="3" y="620" on="0"/>
        <pt x="-87" y="620" on="0"/>
        <pt x="-126" y="603" on="0"/>
        <pt x="-193" y="587" on="1"/>
        <pt x="-232" y="608" on="0"/>
        <pt x="-221" y="673" on="0"/>
        <pt x="-169" y="750" on="1"/>
        <pt x="-130" y="784" on="0"/>
        <pt x="-95" y="807" on="1"/>
        <pt x="0" y="875" on="0"/>
      </contour>
    </TTGlyph>
    <TTGlyph name="e3.fina" xMin="-807" yMin="-377" xMax="1719" yMax="1622">
      <contour>
        <pt x="88" y="810" on="1"/>
        <pt x="129" y="782" on="1"/>
        <pt x="184" y="738" on="0"/>
        <pt x="1412" y="-45" on="1"/>
        <pt x="1448" y="-73" on="0"/>
        <pt x="1507" y="-123" on="0"/>
        <pt x="1596" y="-175" on="0"/>
        <pt x="1701" y="-238" on="1"/>
        <pt x="1719" y="-276" on="0"/>
        <pt x="1696" y="-327" on="1"/>
        <pt x="1676" y="-370" on="0"/>
        <pt x="1610" y="-377" on="1"/>
        <pt x="1569" y="-377" on="0"/>
        <pt x="1487" y="-305" on="0"/>
        <pt x="1388" y="-299" on="1"/>
        <pt x="1276" y="-345" on="0"/>
        <pt x="1232" y="-345" on="1"/>
        <pt x="1184" y="-344" on="0"/>
        <pt x="1195" y="-303" on="1"/>
        <pt x="1211" y="-262" on="0"/>
        <pt x="1241" y="-230" on="1"/>
        <pt x="1273" y="-197" on="0"/>
        <pt x="1303" y="-187" on="0"/>
        <pt x="1320" y="-165" on="1"/>
        <pt x="1331" y="-145" on="0"/>
        <pt x="1291" y="-124" on="1"/>
        <pt x="281" y="478" on="1"/>
        <pt x="126" y="572" on="0"/>
        <pt x="3" y="620" on="0"/>
        <pt x="-88" y="620" on="0"/>
        <pt x="-127" y="603" on="0"/>
        <pt x="-193" y="587" on="1"/>
        <pt x="-233" y="608" on="0"/>
        <pt x="-222" y="673" on="0"/>
        <pt x="-169" y="750" on="1"/>
        <pt x="-131" y="784" on="0"/>
        <pt x="-96" y="807" on="1"/>
        <pt x="0" y="875" on="0"/>
      </contour>
      <contour>
        <pt x="-530" y="1621" on="1"/>
        <pt x="-473" y="1613" on="0"/>
        <pt x="-454" y="1577" on="1"/>
        <pt x="-436" y="1539" on="0"/>
        <pt x="-471" y="1461" on="0"/>
        <pt x="-524" y="1443" on="1"/>
        <pt x="-545" y="1438" on="0"/>
        <pt x="-593" y="1444" on="0"/>
        <pt x="-684" y="1414" on="1"/>
        <pt x="-732" y="1383" on="0"/>
        <pt x="-786" y="1381" on="0"/>
        <pt x="-807" y="1431" on="0"/>
        <pt x="-787" y="1495" on="0"/>
        <pt x="-727" y="1554" on="1"/>
        <pt x="-668" y="1622" on="0"/>
      </contour>
    </TTGlyph>
    <TTGlyph name="eight" xMin="58" yMin="-21" xMax="913" yMax="1366">
      <contour>
        <pt x="913" y="1095" on="1"/>
        <pt x="913" y="988" on="0"/>
        <pt x="776" y="812" on="0"/>
        <pt x="671" y="769" on="1"/>
        <pt x="671" y="758" on="1"/>
        <pt x="907" y="610" on="0"/>
        <pt x="907" y="399" on="1"/>
        <pt x="907" y="211" on="0"/>
        <pt x="631" y="-21" on="0"/>
        <pt x="438" y="-21" on="1"/>
        <pt x="282" y="-21" on="0"/>
        <pt x="58" y="162" on="0"/>
        <pt x="58" y="320" on="1"/>
        <pt x="58" y="593" on="0"/>
        <pt x="372" y="727" on="1"/>
        <pt x="372" y="738" on="1"/>
        <pt x="207" y="853" on="0"/>
        <pt x="207" y="1031" on="1"/>
        <pt x="207" y="1185" on="0"/>
        <pt x="436" y="1366" on="0"/>
        <pt x="595" y="1366" on="1"/>
        <pt x="725" y="1366" on="0"/>
        <pt x="913" y="1218" on="0"/>
      </contour>
      <contour>
        <pt x="746" y="370" on="1"/>
        <pt x="746" y="541" on="0"/>
        <pt x="486" y="682" on="1"/>
        <pt x="372" y="643" on="0"/>
        <pt x="217" y="458" on="0"/>
        <pt x="217" y="343" on="1"/>
        <pt x="217" y="231" on="0"/>
        <pt x="358" y="112" on="0"/>
        <pt x="459" y="112" on="1"/>
        <pt x="576" y="112" on="0"/>
        <pt x="746" y="255" on="0"/>
      </contour>
      <contour>
        <pt x="760" y="1078" on="1"/>
        <pt x="760" y="1162" on="0"/>
        <pt x="652" y="1252" on="0"/>
        <pt x="576" y="1252" on="1"/>
        <pt x="488" y="1252" on="0"/>
        <pt x="362" y="1146" on="0"/>
        <pt x="362" y="1060" on="1"/>
        <pt x="362" y="913" on="0"/>
        <pt x="560" y="808" on="1"/>
        <pt x="760" y="897" on="0"/>
      </contour>
    </TTGlyph>
    <TTGlyph name="eight.vert" xMin="75" yMin="385" xMax="1212" yMax="1086">
      <contour>
        <pt x="297" y="1086" on="1"/>
        <pt x="385" y="1086" on="0"/>
        <pt x="529" y="974" on="0"/>
        <pt x="565" y="888" on="1"/>
        <pt x="574" y="888" on="1"/>
        <pt x="695" y="1081" on="0"/>
        <pt x="868" y="1081" on="1"/>
        <pt x="1022" y="1081" on="0"/>
        <pt x="1212" y="855" on="0"/>
        <pt x="1212" y="697" on="1"/>
        <pt x="1212" y="569" on="0"/>
        <pt x="1062" y="385" on="0"/>
        <pt x="933" y="385" on="1"/>
        <pt x="709" y="385" on="0"/>
        <pt x="599" y="643" on="1"/>
        <pt x="590" y="643" on="1"/>
        <pt x="496" y="507" on="0"/>
        <pt x="350" y="507" on="1"/>
        <pt x="223" y="507" on="0"/>
        <pt x="75" y="695" on="0"/>
        <pt x="75" y="825" on="1"/>
        <pt x="75" y="932" on="0"/>
        <pt x="196" y="1086" on="0"/>
      </contour>
      <contour>
        <pt x="892" y="949" on="1"/>
        <pt x="752" y="949" on="0"/>
        <pt x="636" y="736" on="1"/>
        <pt x="668" y="643" on="0"/>
        <pt x="820" y="515" on="0"/>
        <pt x="914" y="515" on="1"/>
        <pt x="1006" y="515" on="0"/>
        <pt x="1103" y="631" on="0"/>
        <pt x="1103" y="714" on="1"/>
        <pt x="1103" y="810" on="0"/>
        <pt x="986" y="949" on="0"/>
      </contour>
      <contour>
        <pt x="311" y="961" on="1"/>
        <pt x="242" y="961" on="0"/>
        <pt x="168" y="872" on="0"/>
        <pt x="168" y="810" on="1"/>
        <pt x="168" y="738" on="0"/>
        <pt x="255" y="634" on="0"/>
        <pt x="326" y="634" on="1"/>
        <pt x="446" y="634" on="0"/>
        <pt x="533" y="797" on="1"/>
        <pt x="460" y="961" on="0"/>
      </contour>
    </TTGlyph>
    <TTGlyph name="eightleft.hwid" xMin="62" yMin="151" xMax="994" yMax="725">
      <contour>
        <pt x="244" y="725" on="1"/>
        <pt x="316" y="725" on="0"/>
        <pt x="434" y="634" on="0"/>
        <pt x="464" y="562" on="1"/>
        <pt x="471" y="562" on="1"/>
        <pt x="570" y="721" on="0"/>
        <pt x="712" y="721" on="1"/>
        <pt x="839" y="721" on="0"/>
        <pt x="994" y="536" on="0"/>
        <pt x="994" y="406" on="1"/>
        <pt x="994" y="301" on="0"/>
        <pt x="871" y="151" on="0"/>
        <pt x="766" y="151" on="1"/>
        <pt x="582" y="151" on="0"/>
        <pt x="492" y="361" on="1"/>
        <pt x="484" y="361" on="1"/>
        <pt x="407" y="251" on="0"/>
        <pt x="288" y="251" on="1"/>
        <pt x="183" y="251" on="0"/>
        <pt x="62" y="405" on="0"/>
        <pt x="62" y="511" on="1"/>
        <pt x="62" y="599" on="0"/>
        <pt x="161" y="725" on="0"/>
      </contour>
      <contour>
        <pt x="732" y="613" on="1"/>
        <pt x="617" y="613" on="0"/>
        <pt x="522" y="438" on="1"/>
        <pt x="548" y="361" on="0"/>
        <pt x="673" y="257" on="0"/>
        <pt x="750" y="257" on="1"/>
        <pt x="825" y="257" on="0"/>
        <pt x="905" y="352" on="0"/>
        <pt x="905" y="420" on="1"/>
        <pt x="905" y="499" on="0"/>
        <pt x="809" y="613" on="0"/>
      </contour>
      <contour>
        <pt x="256" y="622" on="1"/>
        <pt x="199" y="622" on="0"/>
        <pt x="138" y="550" on="0"/>
        <pt x="138" y="499" on="1"/>
        <pt x="138" y="439" on="0"/>
        <pt x="210" y="355" on="0"/>
        <pt x="268" y="355" on="1"/>
        <pt x="366" y="355" on="0"/>
        <pt x="438" y="488" on="1"/>
        <pt x="378" y="622" on="0"/>
      </contour>
    </TTGlyph>
    <TTGlyph name="eightright.hwid" xMin="-462" yMin="783" xMax="470" yMax="1358">
      <contour>
        <pt x="-280" y="1358" on="1"/>
        <pt x="-208" y="1358" on="0"/>
        <pt x="-90" y="1265" on="0"/>
        <pt x="-60" y="1194" on="1"/>
        <pt x="-53" y="1194" on="1"/>
        <pt x="46" y="1353" on="0"/>
        <pt x="188" y="1353" on="1"/>
        <pt x="315" y="1353" on="0"/>
        <pt x="470" y="1167" on="0"/>
        <pt x="470" y="1038" on="1"/>
        <pt x="470" y="933" on="0"/>
        <pt x="347" y="783" on="0"/>
        <pt x="242" y="783" on="1"/>
        <pt x="58" y="783" on="0"/>
        <pt x="-32" y="993" on="1"/>
        <pt x="-40" y="993" on="1"/>
        <pt x="-117" y="883" on="0"/>
        <pt x="-236" y="883" on="1"/>
        <pt x="-341" y="883" on="0"/>
        <pt x="-462" y="1037" on="0"/>
        <pt x="-462" y="1144" on="1"/>
        <pt x="-462" y="1231" on="0"/>
        <pt x="-363" y="1358" on="0"/>
      </contour>
      <contour>
        <pt x="208" y="1245" on="1"/>
        <pt x="93" y="1245" on="0"/>
        <pt x="-2" y="1071" on="1"/>
        <pt x="24" y="993" on="0"/>
        <pt x="149" y="889" on="0"/>
        <pt x="226" y="889" on="1"/>
        <pt x="301" y="889" on="0"/>
        <pt x="381" y="984" on="0"/>
        <pt x="381" y="1052" on="1"/>
        <pt x="381" y="1130" on="0"/>
        <pt x="285" y="1245" on="0"/>
      </contour>
      <contour>
        <pt x="-268" y="1254" on="1"/>
        <pt x="-325" y="1254" on="0"/>
        <pt x="-386" y="1182" on="0"/>
        <pt x="-386" y="1130" on="1"/>
        <pt x="-386" y="1071" on="0"/>
        <pt x="-314" y="987" on="0"/>
        <pt x="-256" y="987" on="1"/>
        <pt x="-158" y="987" on="0"/>
        <pt x="-86" y="1120" on="1"/>
        <pt x="-146" y="1254" on="0"/>
      </contour>
    </TTGlyph>
    <TTGlyph name="ellipsis.vrt2" xMin="292" yMin="611" xMax="1679" yMax="901">
      <contour>
        <pt x="509" y="901" on="1"/>
        <pt x="581" y="894" on="0"/>
        <pt x="616" y="848" on="0"/>
        <pt x="621" y="800" on="1"/>
        <pt x="600" y="719" on="0"/>
        <pt x="549" y="669" on="1"/>
        <pt x="493" y="622" on="0"/>
        <pt x="422" y="611" on="1"/>
        <pt x="354" y="611" on="0"/>
        <pt x="292" y="698" on="1"/>
        <pt x="292" y="752" on="1"/>
        <pt x="345" y="800" on="1"/>
        <pt x="386" y="829" on="0"/>
        <pt x="399" y="848" on="1"/>
        <pt x="448" y="896" on="0"/>
        <pt x="495" y="901" on="0"/>
      </contour>
      <contour>
        <pt x="1038" y="901" on="1"/>
        <pt x="1110" y="894" on="0"/>
        <pt x="1145" y="848" on="0"/>
        <pt x="1150" y="800" on="1"/>
        <pt x="1129" y="719" on="0"/>
        <pt x="1078" y="669" on="1"/>
        <pt x="1022" y="622" on="0"/>
        <pt x="951" y="611" on="1"/>
        <pt x="883" y="611" on="0"/>
        <pt x="821" y="698" on="1"/>
        <pt x="821" y="752" on="1"/>
        <pt x="874" y="800" on="1"/>
        <pt x="915" y="829" on="0"/>
        <pt x="928" y="848" on="1"/>
        <pt x="977" y="896" on="0"/>
        <pt x="1024" y="901" on="0"/>
      </contour>
      <contour>
        <pt x="1567" y="901" on="1"/>
        <pt x="1639" y="894" on="0"/>
        <pt x="1674" y="848" on="0"/>
        <pt x="1679" y="800" on="1"/>
        <pt x="1658" y="719" on="0"/>
        <pt x="1607" y="669" on="1"/>
        <pt x="1551" y="622" on="0"/>
        <pt x="1480" y="611" on="1"/>
        <pt x="1412" y="611" on="0"/>
        <pt x="1350" y="698" on="1"/>
        <pt x="1350" y="752" on="1"/>
        <pt x="1403" y="800" on="1"/>
        <pt x="1444" y="829" on="0"/>
        <pt x="1457" y="848" on="1"/>
        <pt x="1506" y="896" on="0"/>
        <pt x="1553" y="901" on="0"/>
      </contour>
    </TTGlyph>
    <TTGlyph name="emdash.vrt2" xMin="312" yMin="653" xMax="2001" yMax="808">
      <contour>
        <pt x="877" y="668" on="1"/>
        <pt x="725" y="661" on="1"/>
        <pt x="654" y="661" on="0"/>
        <pt x="495" y="661" on="0"/>
        <pt x="415" y="653" on="1"/>
        <pt x="359" y="662" on="0"/>
        <pt x="319" y="688" on="1"/>
        <pt x="312" y="697" on="0"/>
        <pt x="312" y="703" on="1"/>
        <pt x="312" y="719" on="0"/>
        <pt x="340" y="758" on="1"/>
        <pt x="356" y="775" on="0"/>
        <pt x="384" y="803" on="0"/>
        <pt x="400" y="808" on="1"/>
        <pt x="431" y="808" on="1"/>
        <pt x="438" y="805" on="0"/>
        <pt x="492" y="805" on="0"/>
        <pt x="707" y="805" on="1"/>
        <pt x="875" y="801" on="0"/>
        <pt x="1164" y="794" on="1"/>
        <pt x="1358" y="794" on="1"/>
        <pt x="1587" y="801" on="1"/>
        <pt x="1660" y="801" on="0"/>
        <pt x="1818" y="801" on="0"/>
        <pt x="1898" y="808" on="1"/>
        <pt x="1954" y="802" on="0"/>
        <pt x="1995" y="775" on="1"/>
        <pt x="2001" y="766" on="0"/>
        <pt x="2001" y="760" on="1"/>
        <pt x="2001" y="745" on="0"/>
        <pt x="1973" y="706" on="1"/>
        <pt x="1957" y="689" on="0"/>
        <pt x="1929" y="661" on="0"/>
        <pt x="1913" y="653" on="1"/>
        <pt x="1831" y="656" on="1"/>
        <pt x="1820" y="656" on="0"/>
        <pt x="1606" y="660" on="1"/>
        <pt x="1361" y="663" on="0"/>
        <pt x="1280" y="666" on="1"/>
      </contour>
    </TTGlyph>
    <TTGlyph name="equal" xMin="99" yMin="464" xMax="934" yMax="1006">
      <contour>
        <pt x="934" y="1006" on="1"/>
        <pt x="920" y="878" on="1"/>
        <pt x="143" y="878" on="1"/>
        <pt x="157" y="1006" on="1"/>
      </contour>
      <contour>
        <pt x="891" y="592" on="1"/>
        <pt x="876" y="464" on="1"/>
        <pt x="99" y="464" on="1"/>
        <pt x="114" y="592" on="1"/>
      </contour>
    </TTGlyph>
    <TTGlyph name="exclam" xMin="56" yMin="-2" xMax="417" yMax="1326">
      <contour>
        <pt x="417" y="1211" on="1"/>
        <pt x="417" y="1016" on="0"/>
        <pt x="260" y="537" on="1"/>
        <pt x="200" y="537" on="1"/>
        <pt x="195" y="804" on="0"/>
        <pt x="195" y="975" on="1"/>
        <pt x="195" y="1326" on="0"/>
        <pt x="336" y="1326" on="1"/>
        <pt x="417" y="1326" on="0"/>
      </contour>
      <contour>
        <pt x="316" y="165" on="1"/>
        <pt x="316" y="97" on="0"/>
        <pt x="227" y="-2" on="0"/>
        <pt x="159" y="-2" on="1"/>
        <pt x="56" y="-2" on="0"/>
        <pt x="56" y="112" on="1"/>
        <pt x="56" y="180" on="0"/>
        <pt x="145" y="275" on="0"/>
        <pt x="213" y="275" on="1"/>
        <pt x="316" y="275" on="0"/>
      </contour>
    </TTGlyph>
    <TTGlyph name="exclam.vrt2" xMin="467" yMin="642" xMax="1972" yMax="827">
      <contour>
        <pt x="575" y="827" on="1"/>
        <pt x="615" y="827" on="1"/>
        <pt x="622" y="827" on="0"/>
        <pt x="676" y="807" on="1"/>
        <pt x="689" y="807" on="0"/>
        <pt x="955" y="800" on="1"/>
        <pt x="1162" y="793" on="0"/>
        <pt x="1251" y="789" on="0"/>
        <pt x="1261" y="789" on="1"/>
        <pt x="1336" y="779" on="0"/>
        <pt x="1435" y="765" on="1"/>
        <pt x="1473" y="752" on="0"/>
        <pt x="1532" y="726" on="0"/>
        <pt x="1532" y="707" on="1"/>
        <pt x="1516" y="681" on="0"/>
        <pt x="1469" y="662" on="0"/>
        <pt x="1403" y="661" on="1"/>
        <pt x="1346" y="661" on="1"/>
        <pt x="1164" y="661" on="1"/>
        <pt x="977" y="656" on="1"/>
        <pt x="889" y="656" on="0"/>
        <pt x="693" y="656" on="0"/>
        <pt x="595" y="649" on="1"/>
        <pt x="524" y="654" on="0"/>
        <pt x="475" y="681" on="1"/>
        <pt x="467" y="689" on="0"/>
        <pt x="467" y="696" on="1"/>
        <pt x="467" y="711" on="0"/>
        <pt x="501" y="750" on="1"/>
        <pt x="522" y="786" on="0"/>
        <pt x="556" y="820" on="0"/>
      </contour>
      <contour>
        <pt x="1880" y="820" on="1"/>
        <pt x="1923" y="822" on="0"/>
        <pt x="1972" y="763" on="0"/>
        <pt x="1969" y="723" on="1"/>
        <pt x="1965" y="703" on="0"/>
        <pt x="1948" y="679" on="0"/>
        <pt x="1884" y="642" on="1"/>
        <pt x="1849" y="642" on="1"/>
        <pt x="1791" y="659" on="0"/>
        <pt x="1779" y="708" on="0"/>
        <pt x="1779" y="727" on="1"/>
        <pt x="1779" y="744" on="0"/>
        <pt x="1807" y="777" on="1"/>
        <pt x="1842" y="816" on="0"/>
      </contour>
    </TTGlyph>
    <TTGlyph name="exclam_question.vrt2" xMin="467" yMin="430" xMax="1987" yMax="1290">
      <contour>
        <pt x="830" y="1290" on="1"/>
        <pt x="861" y="1284" on="0"/>
        <pt x="899" y="1273" on="1"/>
        <pt x="930" y="1264" on="0"/>
        <pt x="970" y="1238" on="1"/>
        <pt x="985" y="1219" on="0"/>
        <pt x="996" y="1176" on="1"/>
        <pt x="1007" y="1134" on="0"/>
        <pt x="1058" y="1091" on="1"/>
        <pt x="1129" y="1059" on="0"/>
        <pt x="1335" y="1048" on="1"/>
        <pt x="1412" y="1041" on="1"/>
        <pt x="1418" y="1041" on="0"/>
        <pt x="1487" y="1025" on="0"/>
        <pt x="1503" y="998" on="1"/>
        <pt x="1498" y="979" on="1"/>
        <pt x="1467" y="932" on="0"/>
        <pt x="1347" y="898" on="1"/>
        <pt x="1260" y="888" on="0"/>
        <pt x="1129" y="901" on="1"/>
        <pt x="991" y="930" on="0"/>
        <pt x="958" y="975" on="1"/>
        <pt x="939" y="994" on="0"/>
        <pt x="857" y="1080" on="1"/>
        <pt x="852" y="1099" on="0"/>
        <pt x="811" y="1130" on="0"/>
        <pt x="771" y="1137" on="1"/>
        <pt x="734" y="1137" on="0"/>
        <pt x="675" y="1107" on="1"/>
        <pt x="656" y="1071" on="1"/>
        <pt x="642" y="1029" on="0"/>
        <pt x="667" y="991" on="1"/>
        <pt x="733" y="932" on="0"/>
        <pt x="765" y="932" on="1"/>
        <pt x="794" y="932" on="0"/>
        <pt x="834" y="929" on="0"/>
        <pt x="845" y="905" on="1"/>
        <pt x="833" y="854" on="0"/>
        <pt x="791" y="843" on="1"/>
        <pt x="761" y="838" on="0"/>
        <pt x="729" y="828" on="0"/>
        <pt x="667" y="828" on="1"/>
        <pt x="630" y="838" on="0"/>
        <pt x="593" y="854" on="0"/>
        <pt x="559" y="875" on="1"/>
        <pt x="528" y="905" on="1"/>
        <pt x="485" y="943" on="0"/>
        <pt x="493" y="1006" on="1"/>
        <pt x="506" y="1071" on="0"/>
        <pt x="527" y="1134" on="1"/>
        <pt x="565" y="1201" on="0"/>
        <pt x="645" y="1255" on="0"/>
        <pt x="729" y="1284" on="0"/>
      </contour>
      <contour>
        <pt x="1909" y="1041" on="1"/>
        <pt x="1949" y="1041" on="1"/>
        <pt x="1977" y="1041" on="0"/>
        <pt x="1987" y="991" on="1"/>
        <pt x="1987" y="973" on="0"/>
        <pt x="1960" y="940" on="0"/>
        <pt x="1934" y="916" on="1"/>
        <pt x="1890" y="866" on="0"/>
        <pt x="1863" y="866" on="1"/>
        <pt x="1816" y="870" on="0"/>
        <pt x="1775" y="893" on="0"/>
        <pt x="1763" y="916" on="1"/>
        <pt x="1777" y="975" on="0"/>
        <pt x="1832" y="1013" on="1"/>
        <pt x="1869" y="1039" on="0"/>
      </contour>
      <contour>
        <pt x="575" y="616" on="1"/>
        <pt x="615" y="616" on="1"/>
        <pt x="623" y="616" on="0"/>
        <pt x="676" y="597" on="1"/>
        <pt x="690" y="597" on="0"/>
        <pt x="955" y="588" on="1"/>
        <pt x="1162" y="581" on="0"/>
        <pt x="1251" y="577" on="0"/>
        <pt x="1261" y="577" on="1"/>
        <pt x="1337" y="568" on="0"/>
        <pt x="1435" y="554" on="1"/>
        <pt x="1473" y="542" on="0"/>
        <pt x="1532" y="514" on="0"/>
        <pt x="1532" y="495" on="1"/>
        <pt x="1516" y="469" on="0"/>
        <pt x="1469" y="450" on="0"/>
        <pt x="1404" y="449" on="1"/>
        <pt x="1346" y="449" on="1"/>
        <pt x="1164" y="449" on="1"/>
        <pt x="978" y="446" on="1"/>
        <pt x="889" y="446" on="0"/>
        <pt x="693" y="446" on="0"/>
        <pt x="595" y="438" on="1"/>
        <pt x="524" y="442" on="0"/>
        <pt x="475" y="469" on="1"/>
        <pt x="467" y="479" on="0"/>
        <pt x="467" y="484" on="1"/>
        <pt x="467" y="499" on="0"/>
        <pt x="502" y="538" on="1"/>
        <pt x="522" y="574" on="0"/>
        <pt x="556" y="609" on="0"/>
      </contour>
      <contour>
        <pt x="1880" y="608" on="1"/>
        <pt x="1923" y="610" on="0"/>
        <pt x="1972" y="552" on="0"/>
        <pt x="1969" y="511" on="1"/>
        <pt x="1965" y="492" on="0"/>
        <pt x="1948" y="466" on="0"/>
        <pt x="1884" y="430" on="1"/>
        <pt x="1849" y="430" on="1"/>
        <pt x="1791" y="448" on="0"/>
        <pt x="1780" y="497" on="0"/>
        <pt x="1780" y="515" on="1"/>
        <pt x="1780" y="533" on="0"/>
        <pt x="1807" y="565" on="1"/>
        <pt x="1843" y="604" on="0"/>
      </contour>
    </TTGlyph>
    <TTGlyph name="exclamdbl.vrt2" xMin="467" yMin="392" xMax="1972" yMax="1062">
      <contour>
        <pt x="575" y="1062" on="1"/>
        <pt x="615" y="1062" on="1"/>
        <pt x="622" y="1062" on="0"/>
        <pt x="676" y="1043" on="1"/>
        <pt x="689" y="1043" on="0"/>
        <pt x="955" y="1035" on="1"/>
        <pt x="1162" y="1028" on="0"/>
        <pt x="1251" y="1025" on="0"/>
        <pt x="1261" y="1025" on="1"/>
        <pt x="1336" y="1014" on="0"/>
        <pt x="1435" y="1000" on="1"/>
        <pt x="1473" y="988" on="0"/>
        <pt x="1532" y="962" on="0"/>
        <pt x="1532" y="943" on="1"/>
        <pt x="1516" y="916" on="0"/>
        <pt x="1469" y="898" on="0"/>
        <pt x="1403" y="896" on="1"/>
        <pt x="1346" y="896" on="1"/>
        <pt x="1164" y="896" on="1"/>
        <pt x="977" y="892" on="1"/>
        <pt x="889" y="892" on="0"/>
        <pt x="693" y="892" on="0"/>
        <pt x="595" y="884" on="1"/>
        <pt x="524" y="889" on="0"/>
        <pt x="475" y="916" on="1"/>
        <pt x="467" y="925" on="0"/>
        <pt x="467" y="931" on="1"/>
        <pt x="467" y="947" on="0"/>
        <pt x="501" y="985" on="1"/>
        <pt x="522" y="1021" on="0"/>
        <pt x="556" y="1056" on="0"/>
      </contour>
      <contour>
        <pt x="1880" y="1055" on="1"/>
        <pt x="1923" y="1057" on="0"/>
        <pt x="1972" y="998" on="0"/>
        <pt x="1969" y="958" on="1"/>
        <pt x="1965" y="939" on="0"/>
        <pt x="1948" y="914" on="0"/>
        <pt x="1884" y="877" on="1"/>
        <pt x="1849" y="877" on="1"/>
        <pt x="1791" y="894" on="0"/>
        <pt x="1779" y="943" on="0"/>
        <pt x="1779" y="962" on="1"/>
        <pt x="1779" y="980" on="0"/>
        <pt x="1807" y="1012" on="1"/>
        <pt x="1842" y="1051" on="0"/>
      </contour>
      <contour>
        <pt x="575" y="579" on="1"/>
        <pt x="615" y="579" on="1"/>
        <pt x="622" y="579" on="0"/>
        <pt x="676" y="559" on="1"/>
        <pt x="689" y="559" on="0"/>
        <pt x="955" y="552" on="1"/>
        <pt x="1162" y="543" on="0"/>
        <pt x="1251" y="541" on="0"/>
        <pt x="1261" y="541" on="1"/>
        <pt x="1336" y="530" on="0"/>
        <pt x="1435" y="516" on="1"/>
        <pt x="1473" y="504" on="0"/>
        <pt x="1532" y="478" on="0"/>
        <pt x="1532" y="459" on="1"/>
        <pt x="1516" y="432" on="0"/>
        <pt x="1469" y="413" on="0"/>
        <pt x="1403" y="412" on="1"/>
        <pt x="1346" y="412" on="1"/>
        <pt x="1164" y="412" on="1"/>
        <pt x="977" y="408" on="1"/>
        <pt x="889" y="408" on="0"/>
        <pt x="693" y="408" on="0"/>
        <pt x="595" y="401" on="1"/>
        <pt x="524" y="406" on="0"/>
        <pt x="475" y="432" on="1"/>
        <pt x="467" y="441" on="0"/>
        <pt x="467" y="447" on="1"/>
        <pt x="467" y="463" on="0"/>
        <pt x="501" y="501" on="1"/>
        <pt x="522" y="537" on="0"/>
        <pt x="556" y="572" on="0"/>
      </contour>
      <contour>
        <pt x="1880" y="571" on="1"/>
        <pt x="1923" y="573" on="0"/>
        <pt x="1972" y="515" on="0"/>
        <pt x="1969" y="474" on="1"/>
        <pt x="1965" y="455" on="0"/>
        <pt x="1948" y="430" on="0"/>
        <pt x="1884" y="392" on="1"/>
        <pt x="1849" y="392" on="1"/>
        <pt x="1791" y="410" on="0"/>
        <pt x="1779" y="460" on="0"/>
        <pt x="1779" y="479" on="1"/>
        <pt x="1779" y="496" on="0"/>
        <pt x="1807" y="528" on="1"/>
        <pt x="1842" y="567" on="0"/>
      </contour>
    </TTGlyph>
    <TTGlyph name="f" xMin="16" yMin="-450" xMax="757" yMax="1436">
      <contour>
        <pt x="757" y="1421" on="1"/>
        <pt x="726" y="1295" on="1"/>
        <pt x="672" y="1302" on="0"/>
        <pt x="615" y="1302" on="1"/>
        <pt x="526" y="1302" on="0"/>
        <pt x="449" y="1154" on="0"/>
        <pt x="425" y="930" on="1"/>
        <pt x="519" y="930" on="0"/>
        <pt x="689" y="940" on="1"/>
        <pt x="669" y="791" on="1"/>
        <pt x="485" y="797" on="0"/>
        <pt x="412" y="797" on="1"/>
        <pt x="384" y="430" on="0"/>
        <pt x="336" y="-207" on="0"/>
        <pt x="186" y="-413" on="0"/>
        <pt x="56" y="-450" on="1"/>
        <pt x="16" y="-372" on="1"/>
        <pt x="109" y="-296" on="0"/>
        <pt x="186" y="-101" on="0"/>
        <pt x="240" y="449" on="0"/>
        <pt x="266" y="797" on="1"/>
        <pt x="208" y="797" on="0"/>
        <pt x="63" y="791" on="1"/>
        <pt x="86" y="938" on="1"/>
        <pt x="216" y="930" on="0"/>
        <pt x="280" y="930" on="1"/>
        <pt x="308" y="1192" on="0"/>
        <pt x="473" y="1436" on="0"/>
        <pt x="638" y="1436" on="1"/>
        <pt x="696" y="1436" on="0"/>
      </contour>
      <contour>
        <pt x="354" y="958" on="1"/>
      </contour>
    </TTGlyph>
    <TTGlyph name="f.fina" xMin="-173" yMin="-174" xMax="1592" yMax="1184">
      <component glyphName="f.medi" x="0" y="0" flags="0x1000"/>
    </TTGlyph>
    <TTGlyph name="f.init" xMin="-2" yMin="-174" xMax="1435" yMax="959">
      <component glyphName="f.isol" x="0" y="0" flags="0x1000"/>
    </TTGlyph>
    <TTGlyph name="f.isol" xMin="-2" yMin="-174" xMax="1435" yMax="959">
      <contour>
        <pt x="535" y="386" on="1"/>
        <pt x="479" y="432" on="0"/>
        <pt x="436" y="470" on="1"/>
        <pt x="339" y="556" on="0"/>
        <pt x="211" y="649" on="1"/>
        <pt x="164" y="694" on="0"/>
        <pt x="119" y="690" on="1"/>
        <pt x="91" y="651" on="0"/>
        <pt x="41" y="650" on="0"/>
        <pt x="0" y="676" on="0"/>
        <pt x="0" y="695" on="1"/>
        <pt x="-2" y="713" on="0"/>
        <pt x="23" y="736" on="1"/>
        <pt x="98" y="889" on="1"/>
        <pt x="165" y="955" on="0"/>
        <pt x="262" y="948" on="1"/>
        <pt x="278" y="959" on="0"/>
        <pt x="302" y="952" on="0"/>
        <pt x="315" y="934" on="1"/>
        <pt x="319" y="916" on="0"/>
        <pt x="322" y="888" on="1"/>
        <pt x="329" y="791" on="0"/>
        <pt x="387" y="741" on="1"/>
        <pt x="431" y="697" on="0"/>
        <pt x="460" y="704" on="1"/>
        <pt x="512" y="741" on="0"/>
        <pt x="552" y="787" on="1"/>
        <pt x="598" y="827" on="0"/>
        <pt x="644" y="858" on="1"/>
        <pt x="857" y="835" on="1"/>
        <pt x="1107" y="835" on="1"/>
        <pt x="1107" y="637" on="1"/>
        <pt x="552" y="637" on="1"/>
        <pt x="501" y="612" on="0"/>
        <pt x="534" y="575" on="1"/>
        <pt x="581" y="527" on="0"/>
        <pt x="718" y="417" on="1"/>
        <pt x="718" y="416" on="1"/>
        <pt x="720" y="414" on="0"/>
        <pt x="723" y="412" on="1"/>
        <pt x="779" y="369" on="1"/>
        <pt x="775" y="369" on="1"/>
        <pt x="1167" y="59" on="0"/>
        <pt x="1242" y="28" on="1"/>
        <pt x="1279" y="5" on="0"/>
        <pt x="1274" y="111" on="1"/>
        <pt x="1274" y="176" on="0"/>
        <pt x="1248" y="210" on="1"/>
        <pt x="1223" y="246" on="0"/>
        <pt x="1280" y="280" on="1"/>
        <pt x="1303" y="295" on="0"/>
        <pt x="1376" y="268" on="0"/>
        <pt x="1403" y="195" on="1"/>
        <pt x="1435" y="109" on="0"/>
        <pt x="1422" y="-36" on="1"/>
        <pt x="1409" y="-107" on="0"/>
        <pt x="1306" y="-173" on="0"/>
        <pt x="1260" y="-174" on="1"/>
        <pt x="1247" y="-174" on="1"/>
        <pt x="1199" y="-174" on="0"/>
        <pt x="1085" y="-73" on="1"/>
        <pt x="998" y="6" on="0"/>
        <pt x="677" y="267" on="1"/>
        <pt x="624" y="310" on="0"/>
        <pt x="552" y="370" on="1"/>
        <pt x="542" y="377" on="0"/>
        <pt x="533" y="383" on="1"/>
      </contour>
    </TTGlyph>
    <TTGlyph name="f.medi" xMin="-173" yMin="-174" xMax="1592" yMax="1184">
      <contour>
        <pt x="700" y="374" on="0"/>
        <pt x="585" y="457" on="1"/>
        <pt x="463" y="542" on="0"/>
        <pt x="347" y="637" on="1"/>
        <pt x="0" y="637" on="1"/>
        <pt x="0" y="835" on="1"/>
        <pt x="181" y="835" on="1"/>
        <pt x="98" y="921" on="1"/>
        <pt x="20" y="1000" on="0"/>
        <pt x="-118" y="1003" on="1"/>
        <pt x="-173" y="1057" on="0"/>
        <pt x="-60" y="1118" on="1"/>
        <pt x="39" y="1184" on="0"/>
        <pt x="177" y="1117" on="0"/>
        <pt x="240" y="1009" on="1"/>
        <pt x="386" y="835" on="1"/>
        <pt x="430" y="787" on="1"/>
        <pt x="459" y="835" on="0"/>
        <pt x="522" y="835" on="1"/>
        <pt x="1254" y="835" on="1"/>
        <pt x="1254" y="637" on="1"/>
        <pt x="706" y="637" on="1"/>
        <pt x="607" y="625" on="0"/>
        <pt x="750" y="516" on="1"/>
        <pt x="750" y="515" on="0"/>
        <pt x="752" y="514" on="1"/>
        <pt x="815" y="464" on="0"/>
        <pt x="879" y="412" on="1"/>
        <pt x="935" y="369" on="1"/>
        <pt x="932" y="369" on="1"/>
        <pt x="1324" y="59" on="0"/>
        <pt x="1398" y="28" on="1"/>
        <pt x="1435" y="5" on="0"/>
        <pt x="1430" y="111" on="1"/>
        <pt x="1430" y="176" on="0"/>
        <pt x="1404" y="210" on="1"/>
        <pt x="1379" y="246" on="0"/>
        <pt x="1436" y="280" on="1"/>
        <pt x="1459" y="295" on="0"/>
        <pt x="1532" y="268" on="0"/>
        <pt x="1559" y="195" on="1"/>
        <pt x="1592" y="109" on="0"/>
        <pt x="1578" y="-36" on="1"/>
        <pt x="1565" y="-107" on="0"/>
        <pt x="1462" y="-173" on="0"/>
        <pt x="1416" y="-174" on="1"/>
        <pt x="1403" y="-174" on="1"/>
        <pt x="1355" y="-174" on="0"/>
        <pt x="1242" y="-73" on="1"/>
        <pt x="1155" y="6" on="0"/>
        <pt x="833" y="267" on="1"/>
      </contour>
    </TTGlyph>
    <TTGlyph name="f1.init" xMin="-48" yMin="-174" xMax="1262" yMax="890">
      <contour>
        <pt x="361" y="386" on="1"/>
        <pt x="293" y="443" on="0"/>
        <pt x="209" y="516" on="1"/>
        <pt x="135" y="579" on="0"/>
        <pt x="49" y="656" on="1"/>
        <pt x="-48" y="702" on="0"/>
        <pt x="46" y="796" on="1"/>
        <pt x="111" y="856" on="0"/>
        <pt x="157" y="879" on="1"/>
        <pt x="172" y="890" on="0"/>
        <pt x="196" y="884" on="0"/>
        <pt x="209" y="865" on="1"/>
        <pt x="424" y="827" on="0"/>
        <pt x="469" y="835" on="1"/>
        <pt x="943" y="835" on="1"/>
        <pt x="943" y="637" on="1"/>
        <pt x="378" y="637" on="1"/>
        <pt x="326" y="612" on="0"/>
        <pt x="359" y="575" on="1"/>
        <pt x="381" y="552" on="0"/>
        <pt x="423" y="516" on="1"/>
        <pt x="475" y="470" on="0"/>
        <pt x="562" y="401" on="1"/>
        <pt x="605" y="369" on="1"/>
        <pt x="601" y="369" on="1"/>
        <pt x="993" y="59" on="0"/>
        <pt x="1068" y="28" on="1"/>
        <pt x="1105" y="5" on="0"/>
        <pt x="1100" y="111" on="1"/>
        <pt x="1100" y="176" on="0"/>
        <pt x="1074" y="210" on="1"/>
        <pt x="1050" y="246" on="0"/>
        <pt x="1106" y="280" on="1"/>
        <pt x="1129" y="295" on="0"/>
        <pt x="1202" y="268" on="0"/>
        <pt x="1229" y="195" on="1"/>
        <pt x="1262" y="109" on="0"/>
        <pt x="1248" y="-36" on="1"/>
        <pt x="1236" y="-107" on="0"/>
        <pt x="1132" y="-173" on="0"/>
        <pt x="1086" y="-174" on="1"/>
        <pt x="1073" y="-174" on="1"/>
        <pt x="1025" y="-174" on="0"/>
        <pt x="911" y="-73" on="1"/>
        <pt x="824" y="6" on="0"/>
        <pt x="504" y="267" on="1"/>
        <pt x="451" y="310" on="0"/>
        <pt x="378" y="370" on="1"/>
        <pt x="369" y="377" on="0"/>
        <pt x="360" y="383" on="1"/>
      </contour>
    </TTGlyph>
    <TTGlyph name="f1.medi" xMin="0" yMin="-174" xMax="1358" yMax="835">
      <contour>
        <pt x="0" y="835" on="1"/>
        <pt x="1026" y="835" on="1"/>
        <pt x="1026" y="637" on="1"/>
        <pt x="437" y="637" on="1"/>
        <pt x="390" y="628" on="0"/>
        <pt x="513" y="516" on="1"/>
        <pt x="517" y="516" on="1"/>
        <pt x="567" y="474" on="0"/>
        <pt x="645" y="412" on="1"/>
        <pt x="701" y="369" on="1"/>
        <pt x="698" y="369" on="1"/>
        <pt x="1090" y="59" on="0"/>
        <pt x="1164" y="28" on="1"/>
        <pt x="1201" y="5" on="0"/>
        <pt x="1196" y="111" on="1"/>
        <pt x="1196" y="176" on="0"/>
        <pt x="1170" y="210" on="1"/>
        <pt x="1146" y="246" on="0"/>
        <pt x="1202" y="280" on="1"/>
        <pt x="1225" y="295" on="0"/>
        <pt x="1298" y="268" on="0"/>
        <pt x="1325" y="195" on="1"/>
        <pt x="1358" y="109" on="0"/>
        <pt x="1344" y="-36" on="1"/>
        <pt x="1333" y="-107" on="0"/>
        <pt x="1228" y="-173" on="0"/>
        <pt x="1182" y="-174" on="1"/>
        <pt x="1169" y="-174" on="1"/>
        <pt x="1122" y="-174" on="0"/>
        <pt x="1008" y="-73" on="1"/>
        <pt x="921" y="6" on="0"/>
        <pt x="600" y="267" on="1"/>
        <pt x="547" y="310" on="0"/>
        <pt x="474" y="370" on="1"/>
        <pt x="432" y="401" on="0"/>
        <pt x="380" y="434" on="1"/>
        <pt x="93" y="635" on="0"/>
        <pt x="71" y="637" on="1"/>
        <pt x="0" y="637" on="1"/>
      </contour>
    </TTGlyph>
    <TTGlyph name="five" xMin="99" yMin="-118" xMax="878" yMax="1302">
      <contour>
        <pt x="878" y="1302" on="1"/>
        <pt x="855" y="1143" on="1"/>
        <pt x="665" y="1170" on="0"/>
        <pt x="401" y="1170" on="1"/>
        <pt x="380" y="1093" on="0"/>
        <pt x="341" y="814" on="1"/>
        <pt x="876" y="814" on="0"/>
        <pt x="876" y="467" on="1"/>
        <pt x="876" y="204" on="0"/>
        <pt x="404" y="-106" on="0"/>
        <pt x="114" y="-118" on="1"/>
        <pt x="99" y="4" on="1"/>
        <pt x="337" y="23" on="0"/>
        <pt x="694" y="230" on="0"/>
        <pt x="694" y="421" on="1"/>
        <pt x="694" y="566" on="0"/>
        <pt x="465" y="677" on="0"/>
        <pt x="174" y="677" on="1"/>
        <pt x="225" y="889" on="0"/>
        <pt x="295" y="1302" on="1"/>
      </contour>
    </TTGlyph>
    <TTGlyph name="five.vert" xMin="40" yMin="416" xMax="1204" yMax="1055">
      <contour>
        <pt x="40" y="1055" on="1"/>
        <pt x="170" y="1036" on="1"/>
        <pt x="148" y="880" on="0"/>
        <pt x="148" y="664" on="1"/>
        <pt x="211" y="647" on="0"/>
        <pt x="440" y="615" on="1"/>
        <pt x="440" y="1053" on="0"/>
        <pt x="725" y="1053" on="1"/>
        <pt x="940" y="1053" on="0"/>
        <pt x="1195" y="666" on="0"/>
        <pt x="1204" y="429" on="1"/>
        <pt x="1104" y="416" on="1"/>
        <pt x="1089" y="611" on="0"/>
        <pt x="919" y="904" on="0"/>
        <pt x="762" y="904" on="1"/>
        <pt x="644" y="904" on="0"/>
        <pt x="553" y="716" on="0"/>
        <pt x="553" y="478" on="1"/>
        <pt x="379" y="520" on="0"/>
        <pt x="40" y="577" on="1"/>
      </contour>
    </TTGlyph>
    <TTGlyph name="fiveleft.hwid" xMin="84" yMin="203" xMax="1038" yMax="727">
      <contour>
        <pt x="84" y="727" on="1"/>
        <pt x="191" y="711" on="1"/>
        <pt x="173" y="583" on="0"/>
        <pt x="173" y="406" on="1"/>
        <pt x="224" y="392" on="0"/>
        <pt x="412" y="365" on="1"/>
        <pt x="412" y="725" on="0"/>
        <pt x="646" y="725" on="1"/>
        <pt x="822" y="725" on="0"/>
        <pt x="1031" y="408" on="0"/>
        <pt x="1038" y="213" on="1"/>
        <pt x="956" y="203" on="1"/>
        <pt x="944" y="363" on="0"/>
        <pt x="805" y="603" on="0"/>
        <pt x="676" y="603" on="1"/>
        <pt x="579" y="603" on="0"/>
        <pt x="505" y="449" on="0"/>
        <pt x="505" y="253" on="1"/>
        <pt x="362" y="287" on="0"/>
        <pt x="84" y="334" on="1"/>
      </contour>
    </TTGlyph>
    <TTGlyph name="fiveright.hwid" xMin="-499" yMin="779" xMax="455" yMax="1303">
      <contour>
        <pt x="-499" y="1303" on="1"/>
        <pt x="-392" y="1287" on="1"/>
        <pt x="-410" y="1160" on="0"/>
        <pt x="-410" y="982" on="1"/>
        <pt x="-359" y="968" on="0"/>
        <pt x="-171" y="942" on="1"/>
        <pt x="-171" y="1302" on="0"/>
        <pt x="63" y="1302" on="1"/>
        <pt x="239" y="1302" on="0"/>
        <pt x="448" y="984" on="0"/>
        <pt x="455" y="789" on="1"/>
        <pt x="373" y="779" on="1"/>
        <pt x="361" y="939" on="0"/>
        <pt x="222" y="1179" on="0"/>
        <pt x="93" y="1179" on="1"/>
        <pt x="-4" y="1179" on="0"/>
        <pt x="-78" y="1025" on="0"/>
        <pt x="-78" y="829" on="1"/>
        <pt x="-221" y="864" on="0"/>
        <pt x="-499" y="911" on="1"/>
      </contour>
    </TTGlyph>
    <TTGlyph name="four" xMin="73" yMin="-83" xMax="964" yMax="1302">
      <contour>
        <pt x="964" y="558" on="1"/>
        <pt x="927" y="399" on="1"/>
        <pt x="765" y="399" on="1"/>
        <pt x="745" y="212" on="0"/>
        <pt x="725" y="-83" on="1"/>
        <pt x="554" y="-83" on="1"/>
        <pt x="589" y="175" on="0"/>
        <pt x="613" y="399" on="1"/>
        <pt x="80" y="399" on="1"/>
        <pt x="73" y="527" on="1"/>
        <pt x="76" y="552" on="0"/>
        <pt x="664" y="1286" on="0"/>
        <pt x="666" y="1302" on="1"/>
        <pt x="870" y="1302" on="1"/>
        <pt x="836" y="1085" on="0"/>
        <pt x="780" y="547" on="1"/>
        <pt x="866" y="547" on="0"/>
      </contour>
      <contour>
        <pt x="701" y="1158" on="1"/>
        <pt x="694" y="1158" on="1"/>
        <pt x="692" y="1131" on="0"/>
        <pt x="232" y="565" on="0"/>
        <pt x="231" y="549" on="1"/>
        <pt x="230" y="541" on="1"/>
        <pt x="392" y="541" on="0"/>
        <pt x="628" y="547" on="1"/>
        <pt x="671" y="858" on="0"/>
      </contour>
    </TTGlyph>
    <TTGlyph name="four.vert" xMin="38" yMin="368" xMax="1174" yMax="1098">
      <contour>
        <pt x="648" y="1098" on="1"/>
        <pt x="778" y="1068" on="1"/>
        <pt x="778" y="935" on="1"/>
        <pt x="932" y="919" on="0"/>
        <pt x="1174" y="902" on="1"/>
        <pt x="1174" y="762" on="1"/>
        <pt x="962" y="791" on="0"/>
        <pt x="778" y="811" on="1"/>
        <pt x="778" y="374" on="1"/>
        <pt x="674" y="368" on="1"/>
        <pt x="653" y="370" on="0"/>
        <pt x="51" y="852" on="0"/>
        <pt x="38" y="854" on="1"/>
        <pt x="38" y="1021" on="1"/>
        <pt x="216" y="993" on="0"/>
        <pt x="657" y="948" on="1"/>
        <pt x="657" y="1018" on="0"/>
      </contour>
      <contour>
        <pt x="156" y="883" on="1"/>
        <pt x="156" y="877" on="1"/>
        <pt x="178" y="875" on="0"/>
        <pt x="642" y="498" on="0"/>
        <pt x="655" y="497" on="1"/>
        <pt x="662" y="497" on="1"/>
        <pt x="662" y="629" on="0"/>
        <pt x="657" y="823" on="1"/>
        <pt x="402" y="858" on="0"/>
      </contour>
    </TTGlyph>
    <TTGlyph name="fourleft.hwid" xMin="58" yMin="150" xMax="990" yMax="749">
      <contour>
        <pt x="558" y="749" on="1"/>
        <pt x="665" y="724" on="1"/>
        <pt x="665" y="615" on="1"/>
        <pt x="791" y="602" on="0"/>
        <pt x="990" y="588" on="1"/>
        <pt x="990" y="473" on="1"/>
        <pt x="816" y="497" on="0"/>
        <pt x="665" y="513" on="1"/>
        <pt x="665" y="155" on="1"/>
        <pt x="580" y="150" on="1"/>
        <pt x="562" y="151" on="0"/>
        <pt x="69" y="547" on="0"/>
        <pt x="58" y="548" on="1"/>
        <pt x="58" y="686" on="1"/>
        <pt x="204" y="663" on="0"/>
        <pt x="566" y="625" on="1"/>
        <pt x="566" y="683" on="0"/>
      </contour>
      <contour>
        <pt x="155" y="572" on="1"/>
        <pt x="155" y="567" on="1"/>
        <pt x="173" y="566" on="0"/>
        <pt x="553" y="256" on="0"/>
        <pt x="564" y="256" on="1"/>
        <pt x="570" y="255" on="1"/>
        <pt x="570" y="365" on="0"/>
        <pt x="566" y="523" on="1"/>
        <pt x="356" y="552" on="0"/>
      </contour>
    </TTGlyph>
    <TTGlyph name="fourright.hwid" xMin="-501" yMin="761" xMax="431" yMax="1361">
      <contour>
        <pt x="-1" y="1361" on="1"/>
        <pt x="106" y="1335" on="1"/>
        <pt x="106" y="1227" on="1"/>
        <pt x="232" y="1213" on="0"/>
        <pt x="431" y="1200" on="1"/>
        <pt x="431" y="1085" on="1"/>
        <pt x="257" y="1108" on="0"/>
        <pt x="106" y="1125" on="1"/>
        <pt x="106" y="766" on="1"/>
        <pt x="21" y="761" on="1"/>
        <pt x="3" y="764" on="0"/>
        <pt x="-490" y="1159" on="0"/>
        <pt x="-501" y="1160" on="1"/>
        <pt x="-501" y="1298" on="1"/>
        <pt x="-355" y="1275" on="0"/>
        <pt x="7" y="1237" on="1"/>
        <pt x="7" y="1294" on="0"/>
      </contour>
      <contour>
        <pt x="-404" y="1184" on="1"/>
        <pt x="-404" y="1179" on="1"/>
        <pt x="-386" y="1178" on="0"/>
        <pt x="-6" y="869" on="0"/>
        <pt x="5" y="868" on="1"/>
        <pt x="11" y="867" on="1"/>
        <pt x="11" y="976" on="0"/>
        <pt x="7" y="1135" on="1"/>
        <pt x="-203" y="1164" on="0"/>
      </contour>
    </TTGlyph>
    <TTGlyph name="fs.fina" xMin="-173" yMin="-174" xMax="1592" yMax="1184">
      <component glyphName="f.medi" x="0" y="0" flags="0x1000"/>
    </TTGlyph>
    <TTGlyph name="fs.init" xMin="-2" yMin="-174" xMax="1435" yMax="959">
      <component glyphName="f.isol" x="0" y="0" flags="0x1000"/>
    </TTGlyph>
    <TTGlyph name="fs.isol" xMin="-2" yMin="-174" xMax="1435" yMax="959">
      <component glyphName="f.isol" x="0" y="0" flags="0x1000"/>
    </TTGlyph>
    <TTGlyph name="fs.medi" xMin="-173" yMin="-174" xMax="1592" yMax="1184">
      <component glyphName="f.medi" x="0" y="0" flags="0x1000"/>
    </TTGlyph>
    <TTGlyph name="fullstopmnc" xMin="484" yMin="445" xMax="1174" yMax="1007">
      <contour>
        <pt x="542" y="990" on="1"/>
        <pt x="749" y="924" on="0"/>
        <pt x="782" y="753" on="1"/>
        <pt x="787" y="600" on="0"/>
        <pt x="576" y="445" on="0"/>
        <pt x="547" y="472" on="1"/>
        <pt x="525" y="508" on="0"/>
        <pt x="553" y="585" on="1"/>
        <pt x="623" y="666" on="0"/>
        <pt x="623" y="739" on="1"/>
        <pt x="593" y="864" on="0"/>
        <pt x="494" y="965" on="1"/>
        <pt x="484" y="1007" on="0"/>
      </contour>
      <contour>
        <pt x="930" y="990" on="1"/>
        <pt x="1137" y="924" on="0"/>
        <pt x="1170" y="753" on="1"/>
        <pt x="1174" y="600" on="0"/>
        <pt x="964" y="445" on="0"/>
        <pt x="935" y="472" on="1"/>
        <pt x="913" y="508" on="0"/>
        <pt x="941" y="585" on="1"/>
        <pt x="1011" y="666" on="0"/>
        <pt x="1011" y="739" on="1"/>
        <pt x="981" y="864" on="0"/>
        <pt x="882" y="965" on="1"/>
        <pt x="872" y="1007" on="0"/>
      </contour>
    </TTGlyph>
    <TTGlyph name="g" xMin="-28" yMin="-517" xMax="1065" yMax="1091">
      <contour>
        <pt x="1065" y="1076" on="1"/>
        <pt x="1035" y="938" on="1"/>
        <pt x="871" y="938" on="0"/>
        <pt x="835" y="876" on="1"/>
        <pt x="834" y="868" on="1"/>
        <pt x="878" y="794" on="0"/>
        <pt x="878" y="710" on="1"/>
        <pt x="878" y="533" on="0"/>
        <pt x="633" y="331" on="0"/>
        <pt x="450" y="331" on="1"/>
        <pt x="350" y="331" on="0"/>
        <pt x="299" y="351" on="1"/>
        <pt x="241" y="310" on="0"/>
        <pt x="241" y="236" on="1"/>
        <pt x="241" y="184" on="0"/>
        <pt x="334" y="151" on="0"/>
        <pt x="646" y="151" on="1"/>
        <pt x="917" y="151" on="0"/>
        <pt x="917" y="-59" on="1"/>
        <pt x="917" y="-266" on="0"/>
        <pt x="579" y="-517" on="0"/>
        <pt x="359" y="-517" on="1"/>
        <pt x="149" y="-517" on="0"/>
        <pt x="-28" y="-362" on="0"/>
        <pt x="-28" y="-225" on="1"/>
        <pt x="-28" y="-38" on="0"/>
        <pt x="169" y="45" on="1"/>
        <pt x="170" y="54" on="1"/>
        <pt x="109" y="87" on="0"/>
        <pt x="109" y="175" on="1"/>
        <pt x="109" y="279" on="0"/>
        <pt x="222" y="372" on="1"/>
        <pt x="223" y="380" on="1"/>
        <pt x="184" y="401" on="0"/>
        <pt x="106" y="531" on="0"/>
        <pt x="106" y="612" on="1"/>
        <pt x="106" y="789" on="0"/>
        <pt x="347" y="981" on="0"/>
        <pt x="533" y="981" on="1"/>
        <pt x="688" y="981" on="0"/>
        <pt x="780" y="915" on="1"/>
        <pt x="789" y="915" on="1"/>
        <pt x="817" y="1013" on="0"/>
        <pt x="893" y="1091" on="0"/>
        <pt x="958" y="1091" on="1"/>
        <pt x="1028" y="1091" on="0"/>
      </contour>
      <contour>
        <pt x="765" y="-124" on="1"/>
        <pt x="765" y="-44" on="0"/>
        <pt x="650" y="2" on="0"/>
        <pt x="447" y="2" on="1"/>
        <pt x="352" y="2" on="0"/>
        <pt x="251" y="14" on="1"/>
        <pt x="115" y="-53" on="0"/>
        <pt x="115" y="-192" on="1"/>
        <pt x="115" y="-403" on="0"/>
        <pt x="376" y="-403" on="1"/>
        <pt x="539" y="-403" on="0"/>
        <pt x="765" y="-246" on="0"/>
      </contour>
      <contour>
        <pt x="720" y="681" on="1"/>
        <pt x="720" y="776" on="0"/>
        <pt x="657" y="828" on="1"/>
        <pt x="600" y="876" on="0"/>
        <pt x="508" y="876" on="1"/>
        <pt x="398" y="876" on="0"/>
        <pt x="258" y="737" on="0"/>
        <pt x="258" y="627" on="1"/>
        <pt x="258" y="535" on="0"/>
        <pt x="373" y="436" on="0"/>
        <pt x="472" y="436" on="1"/>
        <pt x="581" y="436" on="0"/>
        <pt x="720" y="572" on="0"/>
      </contour>
    </TTGlyph>
    <TTGlyph name="g.fina" xMin="0" yMin="464" xMax="958" yMax="1285">
      <component glyphName="g.medi" x="0" y="0" flags="0x1000"/>
    </TTGlyph>
    <TTGlyph name="g.init" xMin="0" yMin="301" xMax="1385" yMax="1290">
      <component glyphName="g.isol" x="0" y="0" flags="0x1000"/>
    </TTGlyph>
    <TTGlyph name="g.isol" xMin="0" yMin="301" xMax="1385" yMax="1290">
      <contour>
        <pt x="1247" y="1290" on="1"/>
        <pt x="1374" y="1273" on="0"/>
        <pt x="1385" y="1189" on="1"/>
        <pt x="1384" y="1105" on="0"/>
        <pt x="1317" y="1098" on="1"/>
        <pt x="1284" y="1107" on="1"/>
        <pt x="1206" y="1103" on="0"/>
        <pt x="1137" y="1079" on="0"/>
        <pt x="1105" y="1071" on="1"/>
        <pt x="1066" y="1080" on="0"/>
        <pt x="1064" y="1116" on="1"/>
        <pt x="1085" y="1157" on="0"/>
        <pt x="1105" y="1185" on="1"/>
        <pt x="1138" y="1230" on="0"/>
        <pt x="1199" y="1290" on="0"/>
      </contour>
      <contour>
        <pt x="893" y="720" on="1"/>
        <pt x="844" y="786" on="0"/>
        <pt x="759" y="863" on="1"/>
        <pt x="649" y="961" on="0"/>
        <pt x="538" y="941" on="1"/>
        <pt x="485" y="931" on="0"/>
        <pt x="428" y="846" on="0"/>
        <pt x="428" y="822" on="1"/>
        <pt x="428" y="782" on="0"/>
        <pt x="456" y="725" on="1"/>
        <pt x="475" y="677" on="0"/>
        <pt x="534" y="606" on="0"/>
        <pt x="594" y="569" on="1"/>
        <pt x="699" y="499" on="0"/>
        <pt x="709" y="458" on="1"/>
        <pt x="731" y="421" on="0"/>
        <pt x="645" y="375" on="1"/>
        <pt x="622" y="357" on="0"/>
        <pt x="494" y="328" on="0"/>
        <pt x="382" y="301" on="1"/>
        <pt x="354" y="324" on="0"/>
        <pt x="354" y="342" on="1"/>
        <pt x="354" y="393" on="0"/>
        <pt x="414" y="434" on="1"/>
        <pt x="430" y="456" on="0"/>
        <pt x="396" y="490" on="1"/>
        <pt x="326" y="573" on="1"/>
        <pt x="257" y="659" on="0"/>
        <pt x="235" y="656" on="1"/>
        <pt x="214" y="672" on="0"/>
        <pt x="94" y="545" on="0"/>
        <pt x="55" y="545" on="1"/>
        <pt x="0" y="555" on="0"/>
        <pt x="0" y="587" on="1"/>
        <pt x="20" y="632" on="0"/>
        <pt x="74" y="683" on="1"/>
        <pt x="133" y="774" on="0"/>
        <pt x="241" y="866" on="0"/>
        <pt x="304" y="839" on="1"/>
        <pt x="335" y="1006" on="0"/>
        <pt x="480" y="1184" on="0"/>
        <pt x="600" y="1198" on="1"/>
        <pt x="671" y="1198" on="0"/>
        <pt x="788" y="1157" on="0"/>
        <pt x="899" y="1026" on="0"/>
        <pt x="990" y="890" on="1"/>
        <pt x="1027" y="847" on="0"/>
        <pt x="1068" y="835" on="1"/>
        <pt x="1326" y="835" on="1"/>
        <pt x="1326" y="637" on="1"/>
        <pt x="1139" y="626" on="1"/>
        <pt x="1097" y="531" on="0"/>
        <pt x="1008" y="509" on="1"/>
        <pt x="968" y="509" on="0"/>
        <pt x="933" y="552" on="1"/>
        <pt x="912" y="582" on="0"/>
        <pt x="900" y="641" on="1"/>
        <pt x="909" y="693" on="0"/>
      </contour>
    </TTGlyph>
    <TTGlyph name="g.medi" xMin="0" yMin="464" xMax="958" yMax="1285">
      <contour>
        <pt x="617" y="1239" on="1"/>
        <pt x="668" y="1213" on="0"/>
        <pt x="677" y="1174" on="1"/>
        <pt x="681" y="1132" on="0"/>
        <pt x="622" y="1069" on="0"/>
        <pt x="566" y="1069" on="1"/>
        <pt x="545" y="1071" on="0"/>
        <pt x="502" y="1092" on="0"/>
        <pt x="405" y="1092" on="1"/>
        <pt x="350" y="1078" on="0"/>
        <pt x="298" y="1094" on="0"/>
        <pt x="294" y="1148" on="0"/>
        <pt x="334" y="1202" on="0"/>
        <pt x="410" y="1239" on="1"/>
        <pt x="488" y="1285" on="0"/>
      </contour>
      <contour>
        <pt x="958" y="835" on="1"/>
        <pt x="958" y="637" on="1"/>
        <pt x="771" y="637" on="1"/>
        <pt x="745" y="536" on="0"/>
        <pt x="690" y="464" on="0"/>
        <pt x="620" y="470" on="1"/>
        <pt x="579" y="497" on="0"/>
        <pt x="517" y="552" on="0"/>
        <pt x="472" y="637" on="1"/>
        <pt x="398" y="637" on="1"/>
        <pt x="344" y="478" on="0"/>
        <pt x="237" y="492" on="1"/>
        <pt x="195" y="511" on="0"/>
        <pt x="165" y="550" on="1"/>
        <pt x="135" y="588" on="0"/>
        <pt x="109" y="637" on="1"/>
        <pt x="0" y="637" on="1"/>
        <pt x="0" y="835" on="1"/>
      </contour>
    </TTGlyph>
    <TTGlyph name="g1.init" xMin="0" yMin="393" xMax="963" yMax="1713">
      <contour>
        <pt x="419" y="1713" on="1"/>
        <pt x="545" y="1695" on="0"/>
        <pt x="557" y="1613" on="1"/>
        <pt x="556" y="1529" on="0"/>
        <pt x="488" y="1521" on="1"/>
        <pt x="455" y="1530" on="1"/>
        <pt x="377" y="1526" on="0"/>
        <pt x="308" y="1503" on="0"/>
        <pt x="276" y="1493" on="1"/>
        <pt x="237" y="1504" on="0"/>
        <pt x="235" y="1539" on="1"/>
        <pt x="257" y="1581" on="0"/>
        <pt x="276" y="1608" on="1"/>
        <pt x="310" y="1654" on="0"/>
        <pt x="371" y="1713" on="0"/>
      </contour>
      <contour>
        <pt x="448" y="1199" on="1"/>
        <pt x="611" y="1180" on="0"/>
        <pt x="704" y="1052" on="1"/>
        <pt x="851" y="877" on="0"/>
        <pt x="963" y="745" on="1"/>
        <pt x="921" y="571" on="1"/>
        <pt x="801" y="720" on="0"/>
        <pt x="732" y="789" on="1"/>
        <pt x="690" y="838" on="0"/>
        <pt x="631" y="890" on="1"/>
        <pt x="472" y="997" on="0"/>
        <pt x="400" y="987" on="1"/>
        <pt x="348" y="975" on="0"/>
        <pt x="308" y="931" on="1"/>
        <pt x="276" y="895" on="0"/>
        <pt x="276" y="793" on="0"/>
        <pt x="289" y="770" on="1"/>
        <pt x="344" y="715" on="0"/>
        <pt x="557" y="545" on="1"/>
        <pt x="585" y="498" on="0"/>
        <pt x="557" y="444" on="1"/>
        <pt x="531" y="393" on="0"/>
        <pt x="414" y="393" on="1"/>
        <pt x="327" y="448" on="1"/>
        <pt x="248" y="517" on="0"/>
        <pt x="189" y="554" on="1"/>
        <pt x="138" y="589" on="0"/>
        <pt x="24" y="609" on="1"/>
        <pt x="0" y="637" on="1"/>
        <pt x="0" y="674" on="1"/>
        <pt x="65" y="734" on="1"/>
        <pt x="46" y="774" on="0"/>
        <pt x="65" y="825" on="1"/>
        <pt x="86" y="869" on="0"/>
        <pt x="157" y="963" on="1"/>
        <pt x="239" y="1067" on="0"/>
        <pt x="349" y="1185" on="0"/>
      </contour>
    </TTGlyph>
    <TTGlyph name="g1.medi" xMin="3" yMin="584" xMax="1109" yMax="1783">
      <contour>
        <pt x="486" y="1783" on="1"/>
        <pt x="612" y="1764" on="0"/>
        <pt x="625" y="1681" on="1"/>
        <pt x="623" y="1598" on="0"/>
        <pt x="555" y="1590" on="1"/>
        <pt x="523" y="1599" on="1"/>
        <pt x="445" y="1595" on="0"/>
        <pt x="375" y="1571" on="0"/>
        <pt x="344" y="1562" on="1"/>
        <pt x="304" y="1572" on="0"/>
        <pt x="301" y="1608" on="1"/>
        <pt x="324" y="1649" on="0"/>
        <pt x="344" y="1677" on="1"/>
        <pt x="376" y="1723" on="0"/>
        <pt x="438" y="1783" on="0"/>
      </contour>
      <contour>
        <pt x="126" y="835" on="1"/>
        <pt x="109" y="902" on="0"/>
        <pt x="120" y="939" on="1"/>
        <pt x="134" y="980" on="0"/>
        <pt x="208" y="1094" on="0"/>
        <pt x="292" y="1166" on="1"/>
        <pt x="389" y="1240" on="1"/>
        <pt x="485" y="1276" on="0"/>
        <pt x="505" y="1276" on="1"/>
        <pt x="524" y="1276" on="1"/>
        <pt x="606" y="1270" on="0"/>
        <pt x="721" y="1194" on="1"/>
        <pt x="721" y="1187" on="0"/>
        <pt x="813" y="1111" on="1"/>
        <pt x="910" y="1019" on="1"/>
        <pt x="977" y="930" on="0"/>
        <pt x="1048" y="839" on="1"/>
        <pt x="1109" y="738" on="1"/>
        <pt x="1069" y="584" on="1"/>
        <pt x="838" y="833" on="1"/>
        <pt x="705" y="970" on="0"/>
        <pt x="603" y="1045" on="0"/>
        <pt x="464" y="1084" on="0"/>
        <pt x="445" y="1084" on="1"/>
        <pt x="342" y="1065" on="0"/>
        <pt x="302" y="1014" on="1"/>
        <pt x="302" y="954" on="1"/>
        <pt x="311" y="869" on="0"/>
        <pt x="346" y="844" on="1"/>
        <pt x="353" y="839" on="0"/>
        <pt x="430" y="811" on="0"/>
        <pt x="500" y="798" on="1"/>
        <pt x="537" y="798" on="1"/>
        <pt x="556" y="811" on="0"/>
        <pt x="588" y="811" on="1"/>
        <pt x="638" y="784" on="1"/>
        <pt x="638" y="734" on="1"/>
        <pt x="562" y="635" on="0"/>
        <pt x="394" y="619" on="1"/>
        <pt x="352" y="619" on="0"/>
        <pt x="292" y="637" on="1"/>
        <pt x="3" y="637" on="1"/>
        <pt x="3" y="835" on="1"/>
      </contour>
    </TTGlyph>
    <TTGlyph name="gh.fina" xMin="0" yMin="296" xMax="1077" yMax="1668">
      <component glyphName="gh.medi" x="0" y="0" flags="0x1000"/>
    </TTGlyph>
    <TTGlyph name="gh.init" xMin="0" yMin="296" xMax="1214" yMax="1599">
      <component glyphName="gh.isol" x="0" y="0" flags="0x1000"/>
    </TTGlyph>
    <TTGlyph name="gh.isol" xMin="0" yMin="296" xMax="1214" yMax="1599">
      <contour>
        <pt x="636" y="1599" on="1"/>
        <pt x="763" y="1581" on="0"/>
        <pt x="774" y="1498" on="1"/>
        <pt x="773" y="1414" on="0"/>
        <pt x="706" y="1406" on="1"/>
        <pt x="673" y="1414" on="1"/>
        <pt x="595" y="1412" on="0"/>
        <pt x="526" y="1387" on="0"/>
        <pt x="494" y="1378" on="1"/>
        <pt x="455" y="1388" on="0"/>
        <pt x="453" y="1424" on="1"/>
        <pt x="475" y="1465" on="0"/>
        <pt x="494" y="1493" on="1"/>
        <pt x="527" y="1539" on="0"/>
        <pt x="588" y="1599" on="0"/>
      </contour>
      <contour>
        <pt x="340" y="1052" on="0"/>
        <pt x="404" y="1130" on="1"/>
        <pt x="517" y="1262" on="0"/>
        <pt x="608" y="1256" on="1"/>
        <pt x="679" y="1256" on="0"/>
        <pt x="796" y="1214" on="0"/>
        <pt x="884" y="1130" on="0"/>
        <pt x="998" y="982" on="1"/>
        <pt x="1129" y="807" on="1"/>
        <pt x="1214" y="706" on="1"/>
        <pt x="1036" y="706" on="1"/>
        <pt x="945" y="834" on="0"/>
        <pt x="768" y="989" on="1"/>
        <pt x="692" y="1070" on="0"/>
        <pt x="569" y="1033" on="1"/>
        <pt x="517" y="999" on="0"/>
        <pt x="481" y="915" on="0"/>
        <pt x="472" y="820" on="1"/>
        <pt x="467" y="763" on="0"/>
        <pt x="475" y="708" on="1"/>
        <pt x="485" y="681" on="1"/>
        <pt x="504" y="657" on="0"/>
        <pt x="548" y="602" on="1"/>
        <pt x="571" y="574" on="1"/>
        <pt x="610" y="542" on="0"/>
        <pt x="636" y="519" on="0"/>
        <pt x="702" y="444" on="0"/>
        <pt x="724" y="401" on="0"/>
        <pt x="740" y="351" on="0"/>
        <pt x="748" y="333" on="1"/>
        <pt x="748" y="296" on="0"/>
        <pt x="711" y="296" on="1"/>
        <pt x="697" y="296" on="0"/>
        <pt x="633" y="351" on="1"/>
        <pt x="610" y="379" on="1"/>
        <pt x="593" y="406" on="0"/>
        <pt x="550" y="448" on="0"/>
        <pt x="494" y="485" on="1"/>
        <pt x="457" y="515" on="0"/>
        <pt x="442" y="515" on="1"/>
        <pt x="434" y="515" on="0"/>
        <pt x="419" y="488" on="1"/>
        <pt x="368" y="421" on="0"/>
        <pt x="322" y="384" on="1"/>
        <pt x="302" y="370" on="0"/>
        <pt x="244" y="351" on="1"/>
        <pt x="212" y="351" on="0"/>
        <pt x="198" y="384" on="1"/>
        <pt x="198" y="401" on="1"/>
        <pt x="207" y="415" on="0"/>
        <pt x="260" y="488" on="0"/>
        <pt x="289" y="538" on="1"/>
        <pt x="301" y="571" on="0"/>
        <pt x="308" y="602" on="1"/>
        <pt x="285" y="635" on="0"/>
        <pt x="212" y="695" on="0"/>
        <pt x="162" y="719" on="0"/>
        <pt x="102" y="725" on="1"/>
        <pt x="83" y="725" on="1"/>
        <pt x="70" y="715" on="1"/>
        <pt x="41" y="715" on="1"/>
        <pt x="10" y="729" on="0"/>
        <pt x="0" y="747" on="1"/>
        <pt x="0" y="775" on="1"/>
        <pt x="1" y="785" on="0"/>
        <pt x="98" y="874" on="0"/>
        <pt x="175" y="908" on="1"/>
        <pt x="189" y="908" on="1"/>
        <pt x="225" y="906" on="0"/>
        <pt x="282" y="821" on="1"/>
        <pt x="309" y="784" on="0"/>
        <pt x="331" y="784" on="1"/>
        <pt x="345" y="802" on="1"/>
      </contour>
    </TTGlyph>
    <TTGlyph name="gh.medi" xMin="0" yMin="296" xMax="1077" yMax="1668">
      <contour>
        <pt x="458" y="1668" on="1"/>
        <pt x="585" y="1649" on="0"/>
        <pt x="596" y="1567" on="1"/>
        <pt x="595" y="1482" on="0"/>
        <pt x="527" y="1475" on="1"/>
        <pt x="494" y="1484" on="1"/>
        <pt x="417" y="1481" on="0"/>
        <pt x="348" y="1457" on="0"/>
        <pt x="316" y="1447" on="1"/>
        <pt x="276" y="1458" on="0"/>
        <pt x="274" y="1493" on="1"/>
        <pt x="296" y="1535" on="0"/>
        <pt x="316" y="1562" on="1"/>
        <pt x="349" y="1608" on="0"/>
        <pt x="410" y="1668" on="0"/>
      </contour>
      <contour>
        <pt x="0" y="835" on="1"/>
        <pt x="7" y="835" on="1"/>
        <pt x="162" y="823" on="0"/>
        <pt x="216" y="778" on="0"/>
        <pt x="209" y="1057" on="0"/>
        <pt x="267" y="1130" on="1"/>
        <pt x="380" y="1262" on="0"/>
        <pt x="472" y="1256" on="1"/>
        <pt x="542" y="1256" on="0"/>
        <pt x="660" y="1214" on="0"/>
        <pt x="747" y="1130" on="0"/>
        <pt x="861" y="982" on="1"/>
        <pt x="992" y="818" on="1"/>
        <pt x="1077" y="706" on="1"/>
        <pt x="900" y="706" on="1"/>
        <pt x="809" y="834" on="0"/>
        <pt x="631" y="989" on="1"/>
        <pt x="554" y="1070" on="0"/>
        <pt x="433" y="1033" on="1"/>
        <pt x="380" y="999" on="0"/>
        <pt x="344" y="915" on="0"/>
        <pt x="335" y="820" on="1"/>
        <pt x="330" y="763" on="0"/>
        <pt x="337" y="708" on="1"/>
        <pt x="349" y="681" on="1"/>
        <pt x="367" y="657" on="0"/>
        <pt x="412" y="602" on="1"/>
        <pt x="434" y="574" on="1"/>
        <pt x="473" y="542" on="0"/>
        <pt x="499" y="519" on="0"/>
        <pt x="566" y="444" on="0"/>
        <pt x="587" y="401" on="0"/>
        <pt x="604" y="351" on="0"/>
        <pt x="612" y="333" on="1"/>
        <pt x="612" y="296" on="0"/>
        <pt x="574" y="296" on="1"/>
        <pt x="561" y="296" on="0"/>
        <pt x="496" y="351" on="1"/>
        <pt x="473" y="379" on="1"/>
        <pt x="456" y="406" on="0"/>
        <pt x="413" y="448" on="0"/>
        <pt x="358" y="485" on="1"/>
        <pt x="320" y="515" on="0"/>
        <pt x="305" y="515" on="1"/>
        <pt x="297" y="515" on="0"/>
        <pt x="282" y="488" on="1"/>
        <pt x="231" y="421" on="0"/>
        <pt x="185" y="384" on="1"/>
        <pt x="164" y="370" on="0"/>
        <pt x="107" y="351" on="1"/>
        <pt x="76" y="351" on="0"/>
        <pt x="62" y="384" on="1"/>
        <pt x="62" y="401" on="1"/>
        <pt x="71" y="415" on="0"/>
        <pt x="123" y="488" on="0"/>
        <pt x="153" y="538" on="1"/>
        <pt x="164" y="571" on="0"/>
        <pt x="171" y="602" on="1"/>
        <pt x="142" y="635" on="0"/>
        <pt x="7" y="637" on="1"/>
        <pt x="0" y="637" on="1"/>
      </contour>
    </TTGlyph>
    <TTGlyph name="glyph00147" xMin="0" yMin="272" xMax="1811" yMax="892">
      <contour>
        <pt x="632" y="835" on="1"/>
        <pt x="657" y="835" on="1"/>
        <pt x="657" y="834" on="1"/>
        <pt x="676" y="832" on="0"/>
        <pt x="694" y="829" on="1"/>
        <pt x="736" y="807" on="0"/>
        <pt x="790" y="770" on="1"/>
        <pt x="810" y="770" on="0"/>
        <pt x="836" y="788" on="1"/>
        <pt x="942" y="858" on="0"/>
        <pt x="1009" y="892" on="0"/>
        <pt x="1116" y="882" on="1"/>
        <pt x="1188" y="863" on="0"/>
        <pt x="1301" y="807" on="0"/>
        <pt x="1348" y="779" on="1"/>
        <pt x="1618" y="570" on="1"/>
        <pt x="1665" y="533" on="1"/>
        <pt x="1776" y="425" on="1"/>
        <pt x="1795" y="384" on="1"/>
        <pt x="1811" y="337" on="0"/>
        <pt x="1806" y="272" on="0"/>
        <pt x="1767" y="272" on="1"/>
        <pt x="1752" y="272" on="0"/>
        <pt x="1735" y="305" on="1"/>
        <pt x="1735" y="319" on="0"/>
        <pt x="1739" y="329" on="0"/>
        <pt x="1706" y="368" on="0"/>
        <pt x="1632" y="407" on="1"/>
        <pt x="1539" y="472" on="1"/>
        <pt x="1414" y="556" on="0"/>
        <pt x="1219" y="649" on="1"/>
        <pt x="1144" y="682" on="0"/>
        <pt x="990" y="719" on="1"/>
        <pt x="922" y="693" on="0"/>
        <pt x="926" y="633" on="0"/>
        <pt x="1014" y="579" on="1"/>
        <pt x="1060" y="528" on="1"/>
        <pt x="1160" y="370" on="1"/>
        <pt x="1176" y="292" on="0"/>
        <pt x="1083" y="277" on="1"/>
        <pt x="1053" y="299" on="0"/>
        <pt x="1039" y="347" on="0"/>
        <pt x="1023" y="360" on="1"/>
        <pt x="981" y="407" on="1"/>
        <pt x="907" y="472" on="1"/>
        <pt x="790" y="565" on="1"/>
        <pt x="709" y="611" on="0"/>
        <pt x="626" y="634" on="0"/>
        <pt x="585" y="637" on="1"/>
        <pt x="476" y="637" on="1"/>
        <pt x="440" y="614" on="0"/>
        <pt x="440" y="587" on="1"/>
        <pt x="413" y="536" on="0"/>
        <pt x="332" y="480" on="0"/>
        <pt x="289" y="480" on="1"/>
        <pt x="258" y="480" on="0"/>
        <pt x="178" y="542" on="0"/>
        <pt x="109" y="637" on="1"/>
        <pt x="0" y="637" on="1"/>
        <pt x="0" y="835" on="1"/>
      </contour>
    </TTGlyph>
    <TTGlyph name="glyph00183" xMin="0" yMin="-174" xMax="1450" yMax="1149">
      <contour>
        <pt x="550" y="386" on="1"/>
        <pt x="540" y="394" on="0"/>
        <pt x="531" y="401" on="1"/>
        <pt x="269" y="573" on="1"/>
        <pt x="171" y="635" on="0"/>
        <pt x="71" y="637" on="1"/>
        <pt x="0" y="637" on="1"/>
        <pt x="0" y="835" on="1"/>
        <pt x="103" y="842" on="0"/>
        <pt x="138" y="842" on="1"/>
        <pt x="184" y="861" on="1"/>
        <pt x="205" y="861" on="1"/>
        <pt x="224" y="852" on="0"/>
        <pt x="289" y="788" on="0"/>
        <pt x="394" y="708" on="0"/>
        <pt x="408" y="704" on="1"/>
        <pt x="422" y="699" on="0"/>
        <pt x="425" y="699" on="1"/>
        <pt x="490" y="777" on="1"/>
        <pt x="490" y="796" on="1"/>
        <pt x="490" y="819" on="0"/>
        <pt x="360" y="898" on="1"/>
        <pt x="280" y="948" on="0"/>
        <pt x="190" y="1025" on="1"/>
        <pt x="164" y="1067" on="0"/>
        <pt x="250" y="1122" on="1"/>
        <pt x="281" y="1148" on="0"/>
        <pt x="323" y="1149" on="0"/>
        <pt x="333" y="1149" on="1"/>
        <pt x="364" y="1125" on="0"/>
        <pt x="429" y="1040" on="1"/>
        <pt x="582" y="869" on="0"/>
        <pt x="659" y="835" on="1"/>
        <pt x="1119" y="835" on="1"/>
        <pt x="1119" y="637" on="1"/>
        <pt x="531" y="637" on="1"/>
        <pt x="483" y="628" on="0"/>
        <pt x="606" y="516" on="1"/>
        <pt x="611" y="516" on="1"/>
        <pt x="654" y="479" on="0"/>
        <pt x="742" y="408" on="1"/>
        <pt x="793" y="369" on="1"/>
        <pt x="790" y="369" on="1"/>
        <pt x="1182" y="59" on="0"/>
        <pt x="1256" y="28" on="1"/>
        <pt x="1293" y="5" on="0"/>
        <pt x="1288" y="111" on="1"/>
        <pt x="1288" y="176" on="0"/>
        <pt x="1262" y="210" on="1"/>
        <pt x="1238" y="246" on="0"/>
        <pt x="1294" y="280" on="1"/>
        <pt x="1317" y="295" on="0"/>
        <pt x="1390" y="268" on="0"/>
        <pt x="1417" y="195" on="1"/>
        <pt x="1450" y="109" on="0"/>
        <pt x="1436" y="-36" on="1"/>
        <pt x="1424" y="-107" on="0"/>
        <pt x="1320" y="-173" on="0"/>
        <pt x="1274" y="-174" on="1"/>
        <pt x="1261" y="-174" on="1"/>
        <pt x="1214" y="-174" on="0"/>
        <pt x="1100" y="-73" on="1"/>
        <pt x="1013" y="6" on="0"/>
        <pt x="692" y="267" on="1"/>
        <pt x="639" y="310" on="0"/>
        <pt x="566" y="370" on="1"/>
        <pt x="557" y="377" on="0"/>
        <pt x="548" y="383" on="1"/>
      </contour>
    </TTGlyph>
    <TTGlyph name="glyph00275" xMin="91" yMin="27" xMax="342" yMax="957">
      <contour>
        <pt x="341" y="957" on="1"/>
        <pt x="342" y="889" on="0"/>
        <pt x="307" y="649" on="0"/>
        <pt x="288" y="471" on="1"/>
        <pt x="273" y="336" on="0"/>
        <pt x="256" y="37" on="1"/>
        <pt x="91" y="27" on="1"/>
        <pt x="113" y="177" on="0"/>
        <pt x="150" y="471" on="1"/>
        <pt x="170" y="661" on="0"/>
        <pt x="170" y="822" on="1"/>
        <pt x="170" y="889" on="0"/>
        <pt x="166" y="932" on="1"/>
      </contour>
    </TTGlyph>
    <TTGlyph name="glyph00276" xMin="-55" yMin="-389" xMax="341" yMax="957">
      <contour>
        <pt x="341" y="957" on="1"/>
        <pt x="341" y="888" on="0"/>
        <pt x="289" y="503" on="0"/>
        <pt x="248" y="30" on="0"/>
        <pt x="243" y="-16" on="1"/>
        <pt x="211" y="-323" on="0"/>
        <pt x="-18" y="-389" on="1"/>
        <pt x="-55" y="-317" on="1"/>
        <pt x="32" y="-245" on="0"/>
        <pt x="99" y="-50" on="0"/>
        <pt x="172" y="646" on="0"/>
        <pt x="172" y="828" on="1"/>
        <pt x="172" y="895" on="0"/>
        <pt x="168" y="932" on="1"/>
      </contour>
    </TTGlyph>
    <TTGlyph name="glyph00277" xMin="-112" yMin="480" xMax="547" yMax="835">
      <contour>
        <pt x="547" y="835" on="1"/>
        <pt x="547" y="637" on="1"/>
        <pt x="360" y="637" on="1"/>
        <pt x="323" y="614" on="0"/>
        <pt x="323" y="587" on="1"/>
        <pt x="296" y="536" on="0"/>
        <pt x="215" y="480" on="0"/>
        <pt x="171" y="480" on="1"/>
        <pt x="141" y="480" on="0"/>
        <pt x="61" y="542" on="0"/>
        <pt x="-9" y="637" on="1"/>
        <pt x="-112" y="811" on="1"/>
        <pt x="-112" y="835" on="0"/>
        <pt x="-88" y="835" on="1"/>
      </contour>
    </TTGlyph>
    <TTGlyph name="glyph00278" xMin="-837" yMin="480" xMax="556" yMax="1622">
      <contour>
        <pt x="556" y="835" on="1"/>
        <pt x="556" y="637" on="1"/>
        <pt x="361" y="637" on="1"/>
        <pt x="324" y="614" on="0"/>
        <pt x="324" y="587" on="1"/>
        <pt x="296" y="536" on="0"/>
        <pt x="216" y="480" on="0"/>
        <pt x="172" y="480" on="1"/>
        <pt x="142" y="480" on="0"/>
        <pt x="62" y="542" on="0"/>
        <pt x="-7" y="637" on="1"/>
        <pt x="-111" y="811" on="1"/>
        <pt x="-111" y="835" on="0"/>
        <pt x="-88" y="835" on="1"/>
      </contour>
      <contour>
        <pt x="-560" y="1620" on="1"/>
        <pt x="-503" y="1612" on="0"/>
        <pt x="-484" y="1576" on="1"/>
        <pt x="-466" y="1539" on="0"/>
        <pt x="-501" y="1460" on="0"/>
        <pt x="-554" y="1442" on="1"/>
        <pt x="-575" y="1437" on="0"/>
        <pt x="-623" y="1444" on="0"/>
        <pt x="-714" y="1413" on="1"/>
        <pt x="-762" y="1382" on="0"/>
        <pt x="-816" y="1381" on="0"/>
        <pt x="-837" y="1431" on="0"/>
        <pt x="-817" y="1494" on="0"/>
        <pt x="-757" y="1554" on="1"/>
        <pt x="-698" y="1622" on="0"/>
      </contour>
    </TTGlyph>
    <TTGlyph name="glyph00279" xMin="-129" yMin="188" xMax="511" yMax="861">
      <contour>
        <pt x="215" y="637" on="1"/>
        <pt x="229" y="614" on="0"/>
        <pt x="256" y="580" on="1"/>
        <pt x="288" y="531" on="0"/>
        <pt x="347" y="461" on="0"/>
        <pt x="456" y="331" on="0"/>
        <pt x="511" y="242" on="0"/>
        <pt x="495" y="213" on="1"/>
        <pt x="470" y="189" on="0"/>
        <pt x="432" y="188" on="1"/>
        <pt x="378" y="237" on="0"/>
        <pt x="197" y="427" on="0"/>
        <pt x="92" y="524" on="0"/>
        <pt x="46" y="580" on="1"/>
        <pt x="-8" y="647" on="0"/>
        <pt x="-43" y="686" on="0"/>
        <pt x="-78" y="731" on="1"/>
        <pt x="-129" y="785" on="1"/>
        <pt x="-87" y="813" on="1"/>
        <pt x="16" y="830" on="1"/>
        <pt x="49" y="800" on="0"/>
        <pt x="65" y="779" on="0"/>
        <pt x="95" y="779" on="1"/>
        <pt x="101" y="779" on="0"/>
        <pt x="114" y="785" on="1"/>
        <pt x="119" y="788" on="0"/>
        <pt x="126" y="792" on="1"/>
        <pt x="126" y="793" on="1"/>
        <pt x="138" y="803" on="0"/>
        <pt x="201" y="829" on="0"/>
        <pt x="219" y="852" on="0"/>
        <pt x="242" y="861" on="1"/>
        <pt x="245" y="859" on="0"/>
        <pt x="249" y="857" on="1"/>
        <pt x="392" y="839" on="0"/>
        <pt x="493" y="835" on="1"/>
        <pt x="493" y="637" on="1"/>
      </contour>
    </TTGlyph>
    <TTGlyph name="glyph00280" xMin="0" yMin="234" xMax="833" yMax="835">
      <contour>
        <pt x="383" y="637" on="1"/>
        <pt x="226" y="639" on="0"/>
        <pt x="226" y="603" on="1"/>
        <pt x="226" y="574" on="1"/>
        <pt x="230" y="542" on="0"/>
        <pt x="285" y="478" on="0"/>
        <pt x="355" y="433" on="1"/>
        <pt x="404" y="418" on="0"/>
        <pt x="448" y="418" on="1"/>
        <pt x="485" y="418" on="0"/>
        <pt x="503" y="442" on="1"/>
        <pt x="522" y="457" on="0"/>
        <pt x="533" y="556" on="1"/>
        <pt x="522" y="620" on="0"/>
        <pt x="513" y="639" on="0"/>
        <pt x="471" y="637" on="1"/>
      </contour>
      <contour>
        <pt x="833" y="835" on="1"/>
        <pt x="833" y="637" on="1"/>
        <pt x="646" y="637" on="1"/>
        <pt x="665" y="515" on="0"/>
        <pt x="617" y="393" on="0"/>
        <pt x="576" y="336" on="1"/>
        <pt x="504" y="239" on="0"/>
        <pt x="429" y="239" on="1"/>
        <pt x="309" y="234" on="0"/>
        <pt x="236" y="290" on="1"/>
        <pt x="89" y="406" on="0"/>
        <pt x="37" y="516" on="0"/>
        <pt x="0" y="643" on="1"/>
        <pt x="0" y="835" on="0"/>
        <pt x="61" y="835" on="1"/>
      </contour>
    </TTGlyph>
    <TTGlyph name="glyph00281" xMin="0" yMin="234" xMax="665" yMax="835">
      <contour>
        <pt x="631" y="725" on="1"/>
        <pt x="646" y="637" on="1"/>
        <pt x="665" y="515" on="0"/>
        <pt x="617" y="393" on="0"/>
        <pt x="576" y="336" on="1"/>
        <pt x="504" y="239" on="0"/>
        <pt x="429" y="239" on="1"/>
        <pt x="309" y="234" on="0"/>
        <pt x="236" y="290" on="1"/>
        <pt x="89" y="406" on="0"/>
        <pt x="37" y="516" on="0"/>
        <pt x="0" y="643" on="1"/>
        <pt x="0" y="835" on="0"/>
        <pt x="61" y="835" on="1"/>
        <pt x="536" y="835" on="1"/>
        <pt x="593" y="811" on="0"/>
      </contour>
      <contour>
        <pt x="383" y="637" on="1"/>
        <pt x="226" y="639" on="0"/>
        <pt x="226" y="603" on="1"/>
        <pt x="226" y="574" on="1"/>
        <pt x="230" y="542" on="0"/>
        <pt x="285" y="478" on="0"/>
        <pt x="355" y="433" on="1"/>
        <pt x="404" y="418" on="0"/>
        <pt x="448" y="418" on="1"/>
        <pt x="485" y="418" on="0"/>
        <pt x="503" y="442" on="1"/>
        <pt x="522" y="457" on="0"/>
        <pt x="533" y="556" on="1"/>
        <pt x="522" y="620" on="0"/>
        <pt x="513" y="639" on="0"/>
        <pt x="471" y="637" on="1"/>
      </contour>
    </TTGlyph>
    <TTGlyph name="glyph00282" xMin="-251" yMin="234" xMax="832" yMax="1726">
      <contour>
        <pt x="383" y="637" on="1"/>
        <pt x="225" y="639" on="0"/>
        <pt x="226" y="603" on="1"/>
        <pt x="226" y="574" on="1"/>
        <pt x="230" y="542" on="0"/>
        <pt x="284" y="478" on="0"/>
        <pt x="355" y="433" on="1"/>
        <pt x="403" y="418" on="0"/>
        <pt x="447" y="418" on="1"/>
        <pt x="485" y="418" on="0"/>
        <pt x="503" y="442" on="1"/>
        <pt x="521" y="457" on="0"/>
        <pt x="533" y="556" on="1"/>
        <pt x="521" y="620" on="0"/>
        <pt x="513" y="639" on="0"/>
        <pt x="471" y="637" on="1"/>
      </contour>
      <contour>
        <pt x="832" y="835" on="1"/>
        <pt x="832" y="637" on="1"/>
        <pt x="645" y="637" on="1"/>
        <pt x="665" y="515" on="0"/>
        <pt x="617" y="393" on="0"/>
        <pt x="576" y="336" on="1"/>
        <pt x="504" y="239" on="0"/>
        <pt x="429" y="239" on="1"/>
        <pt x="309" y="234" on="0"/>
        <pt x="236" y="290" on="1"/>
        <pt x="89" y="406" on="0"/>
        <pt x="37" y="516" on="0"/>
        <pt x="0" y="643" on="1"/>
        <pt x="0" y="835" on="0"/>
        <pt x="61" y="835" on="1"/>
      </contour>
      <contour>
        <pt x="26" y="1724" on="1"/>
        <pt x="83" y="1715" on="0"/>
        <pt x="102" y="1679" on="1"/>
        <pt x="120" y="1642" on="0"/>
        <pt x="85" y="1563" on="0"/>
        <pt x="32" y="1545" on="1"/>
        <pt x="11" y="1540" on="0"/>
        <pt x="-37" y="1547" on="0"/>
        <pt x="-128" y="1517" on="1"/>
        <pt x="-176" y="1485" on="0"/>
        <pt x="-230" y="1484" on="0"/>
        <pt x="-251" y="1535" on="0"/>
        <pt x="-231" y="1598" on="0"/>
        <pt x="-171" y="1658" on="1"/>
        <pt x="-112" y="1726" on="0"/>
      </contour>
    </TTGlyph>
    <TTGlyph name="glyph00283" xMin="-251" yMin="234" xMax="665" yMax="1726">
      <contour>
        <pt x="630" y="725" on="1"/>
        <pt x="645" y="637" on="1"/>
        <pt x="665" y="515" on="0"/>
        <pt x="617" y="393" on="0"/>
        <pt x="576" y="336" on="1"/>
        <pt x="504" y="239" on="0"/>
        <pt x="429" y="239" on="1"/>
        <pt x="309" y="234" on="0"/>
        <pt x="236" y="290" on="1"/>
        <pt x="89" y="406" on="0"/>
        <pt x="37" y="516" on="0"/>
        <pt x="0" y="643" on="1"/>
        <pt x="0" y="835" on="0"/>
        <pt x="61" y="835" on="1"/>
        <pt x="536" y="835" on="1"/>
        <pt x="593" y="811" on="0"/>
      </contour>
      <contour>
        <pt x="383" y="637" on="1"/>
        <pt x="225" y="639" on="0"/>
        <pt x="226" y="603" on="1"/>
        <pt x="226" y="574" on="1"/>
        <pt x="230" y="542" on="0"/>
        <pt x="284" y="478" on="0"/>
        <pt x="355" y="433" on="1"/>
        <pt x="403" y="418" on="0"/>
        <pt x="448" y="418" on="1"/>
        <pt x="485" y="418" on="0"/>
        <pt x="503" y="442" on="1"/>
        <pt x="522" y="457" on="0"/>
        <pt x="533" y="556" on="1"/>
        <pt x="521" y="620" on="0"/>
        <pt x="513" y="639" on="0"/>
        <pt x="471" y="637" on="1"/>
      </contour>
      <contour>
        <pt x="26" y="1724" on="1"/>
        <pt x="83" y="1715" on="0"/>
        <pt x="102" y="1679" on="1"/>
        <pt x="120" y="1642" on="0"/>
        <pt x="85" y="1563" on="0"/>
        <pt x="32" y="1545" on="1"/>
        <pt x="11" y="1540" on="0"/>
        <pt x="-37" y="1547" on="0"/>
        <pt x="-128" y="1517" on="1"/>
        <pt x="-176" y="1485" on="0"/>
        <pt x="-230" y="1484" on="0"/>
        <pt x="-251" y="1535" on="0"/>
        <pt x="-231" y="1598" on="0"/>
        <pt x="-171" y="1658" on="1"/>
        <pt x="-112" y="1726" on="0"/>
      </contour>
    </TTGlyph>
</ttFont>
